<?xml version="1.0" encoding="UTF-8"?>
<svg xmlns="http://www.w3.org/2000/svg" viewBox="0 0 134.91 128.72">
  <defs>
    <style>.cls-1{fill:#2d3d81;}.cls-2{fill:#24305d;}.cls-3{fill:#cfa86b;}.cls-4{fill:#303b81;}.cls-5{fill:#f4f8f8;}</style>
  </defs>
  <g id="Layer_2" data-name="Layer 2">
    <g id="Layer_1-2" data-name="Layer 1">
      <g id="Color">
        <path class="cls-1" d="M61,23.53l40.57-.45v-.34L61,23.19c0,.11,0,.23,0,.34Z"></path>
        <path class="cls-1" d="M50.33,23.31l-15.43.17v.34l14.94-.17a2.85,2.85,0,0,1,.49-.34Z"></path>
        <path class="cls-1" d="M55.78,32.56l55-.48v-.34l-55,.48c0,.11,0,.22,0,.34Z"></path>
        <path class="cls-1" d="M49.7,32.27,26,32.48v.34l23.67-.21A1.93,1.93,0,0,1,49.7,32.27Z"></path>
        <polygon class="cls-1" points="18.55 46.77 18.55 46.43 118.83 45.69 118.83 46.03 18.55 46.77"></polygon>
        <polygon class="cls-1" points="24.88 94 24.87 93.66 112.94 92.93 112.95 93.27 24.88 94"></polygon>
        <polygon class="cls-1" points="33.76 103.62 33.76 103.28 104.43 102.54 104.44 102.88 33.76 103.62"></polygon>
        <path class="cls-1" d="M69.59,52.73h-.35l0-2.34v-.32l0-1-.05-2.7h0v-.34L69,38.29l-.11-5.84h0v-.34l-.16-8.66v-.34h0l-.18-10.53h0v-.35h0v0h0v-.36h.34v.34h0v.21l.19,10.71h0v.34l.16,8.66h0v.34l.11,6.1.13,7.51v.34l0,2.7v.33h0v1l0,2.35Z"></path>
        <path class="cls-1" d="M70.71,116.25h-.34v-1.07l-.11-5.85-.1-6.09v-.74L70,93.62v-.34l-.07-4.11,0-2.86-.11-6.41h.34l.11,6.44,0,2.84.07,4.09v.34l.16,8.81v.81l.1,5.79.12,6.41v.81Z"></path>
        <path class="cls-1" d="M90.34,49H90c-.17-1.11-.22-1.32-.45-2.42,0-.12,0-.24-.08-.36a3.4,3.4,0,0,0-.07-.34,61.45,61.45,0,0,0-2.23-7.65c0-.14-.11-.29-.16-.44q-1.1-2.91-2.37-5.51c-.06-.12-.11-.23-.17-.34-.75-1.52-1.55-2.95-2.36-4.3-.93-1.56-1.89-3-2.85-4.34L79,23A56.94,56.94,0,0,0,69,12.3l-.17-.12h0l-.12-.1h0l0,0,0,0h0l0,0,0,0,.1-.14h0l0-.07.05-.07.08.06h0l.19.15.13.1h0l.16.12A57.55,57.55,0,0,1,79.43,23l.24.33c1,1.34,1.91,2.79,2.83,4.34.81,1.35,1.59,2.79,2.35,4.3.05.12.11.23.16.34.83,1.71,1.62,3.52,2.33,5.44,0,.13.09.26.14.38a62.29,62.29,0,0,1,2.26,7.78c0,.11.05.23.07.34a2,2,0,0,1,0,.24c.24,1.13.3,1.39.47,2.54Z"></path>
        <path class="cls-1" d="M87,83.35l.4-.14q-.78,2.46-1.71,5c-.62,1.66-1.3,3.33-2,5l-.15.34q-2,4.6-4.55,9.3c-.06.11-.13.22-.19.34q-2,3.73-4.4,7.52-1.58,2.51-3.28,5s0,0,0,0l-.2.29a0,0,0,0,0,0,0s0,0,0,0-.14.19-.2.29l-.14-.1-.14-.09.07-.11.16-.23.07-.1.12-.19q1.75-2.57,3.34-5.11,2.28-3.66,4.26-7.27l.18-.34q2.55-4.69,4.57-9.3l.15-.34q1.07-2.48,2-4.93C85.94,86.6,86.5,85,87,83.35Z"></path>
        <path class="cls-2" d="M90.56,69.44c-.07.48-.14,1-.22,1.44-.18,1.19-.4,2.39-.65,3.6,0-.33-.09-.66-.14-1,.17-.89.32-1.77.46-2.64.06-.4.12-.79.17-1.19l.38-.21Z"></path>
        <path class="cls-1" d="M60.51,22a2.42,2.42,0,0,1,.18.36A61.68,61.68,0,0,1,68.81,12a49.61,49.61,0,0,0-8.3,10Z"></path>
        <path class="cls-1" d="M52.57,39.39c-.19.58-.37,1.16-.55,1.75-.49,1.68-.93,3.36-1.29,5,0,.12,0,.23-.08.34h0c0,.24-.1.48-.14.71-.13.63-.24,1.25-.35,1.87s-.18,1-.26,1.58c0,.23-.07.47-.1.7l-.33-.09.09-.63c.08-.54.17-1.08.26-1.63s.23-1.25.35-1.87c0-.21.09-.42.13-.63s.05-.23.08-.34q.55-2.61,1.32-5.17c.18-.61.37-1.21.57-1.81a3,3,0,0,0,.3.18Z"></path>
        <path class="cls-1" d="M70.38,116.15h0l-.26.2-.22-.29c-.47-.61-.92-1.22-1.37-1.83-.24-.32-.47-.65-.7-1q-1.44-2-2.76-4c-1.34-2-2.59-4-3.75-6l-.2-.34q-2.69-4.62-4.79-9.25c0-.12-.11-.23-.16-.34-1-2.22-1.89-4.43-2.69-6.65-.55-1.55-1.06-3.09-1.52-4.64l.38.08c.46,1.55,1,3.1,1.54,4.65h0c.79,2.19,1.68,4.37,2.67,6.56l.15.34q2.12,4.62,4.81,9.25l.2.33q1.69,2.88,3.6,5.75c1.1,1.64,2.26,3.29,3.46,4.93l.72,1c.27.37.55.73.83,1.1h0l.06.08Z"></path>
        <path class="cls-1" d="M118.83,45.85v-.07l0-.09c-.19-.48-.38-1-.58-1.43,0-.13-.11-.27-.17-.4s-.16-.38-.25-.57L117.22,42c-.06-.11-.11-.23-.17-.34s-.17-.37-.26-.55l-.3-.58-.26-.52h0c-.06-.13-.12-.24-.19-.36A53.58,53.58,0,0,0,78.87,12.61a55.63,55.63,0,0,0-7-.86h0l-1.12-.05h-.37l-.43,0H68.69c-.56,0-1.11,0-1.66,0h-.55l-.42,0h-.35l-.28,0H65l-.4,0-.35,0h-.14l-.29,0-.65.07-.36,0-.58.07-.2,0-.3,0c-.38.05-.79.1-1.22.17l-.29,0-.37.06a53.75,53.75,0,0,0-8.34,2.05h0A53.46,53.46,0,0,0,38.7,20.69h0l-.08.06c-.43.28-.85.57-1.27.87s-.65.47-1,.71A53.23,53.23,0,0,0,26,32.48h0l-.15.19v0c-.53.69-1,1.4-1.54,2.11l0,.05-.05.07-.56.82-.08.13h0A53,53,0,0,0,18.84,45l-.36.94c-.37,1-.72,2-1,3h0c-.06.21-.12.42-.19.63l.4-.14c0-.05,0-.11.05-.17.26-.85.54-1.7.84-2.53l.12-.33h0c.06-.16.12-.33.19-.49.12-.34.25-.67.39-1A51.51,51.51,0,0,1,24.61,35c.51-.74,1-1.46,1.58-2.17l.27-.34h0A53.68,53.68,0,0,1,35,23.82h0l.43-.34c.45-.36.91-.71,1.37-1.05s1.15-.83,1.74-1.22l1-.67a53.66,53.66,0,0,1,28-8.52h2.27l.76,0h0l.79,0c1.58.08,3.14.22,4.67.43h0c1.15.15,2.3.34,3.42.58a53,53,0,0,1,9.17,2.73h0l1,.42A53.5,53.5,0,0,1,101,22.76l.43.33h0a53.19,53.19,0,0,1,8.89,8.66l.27.34c.48.61,1,1.22,1.41,1.85.33.46.66.92,1,1.39.94,1.39,1.81,2.83,2.62,4.3a53,53,0,0,1,2.81,6.07c0,.12.09.23.13.34a51,51,0,0,1-2.64,41.86,50.14,50.14,0,0,1-3,5l-.14.21h0l-.09.12h0a53,53,0,0,1-8.24,9.27h0c-.12.12-.25.23-.38.34h0a53.41,53.41,0,0,1-18.78,10.62h0l-.11,0A53.48,53.48,0,0,1,72.6,116h0l-1.12.07h-3.6a53.53,53.53,0,0,1-17-3l-.07,0a53.3,53.3,0,0,1-16.63-9.44h0l-.4-.33h0c-.37-.32-.74-.64-1.1-1a.47.47,0,0,1-.1-.1A52.11,52.11,0,0,1,25.25,94L25,93.66h0c-.15-.21-.3-.41-.44-.62h0c-.1-.16-.21-.3-.31-.46a.28.28,0,0,1,0-.06,50.88,50.88,0,0,1-3.89-6.86l-.16-.36a51,51,0,0,1-2.44-6.41l-.09.86a52.6,52.6,0,0,0,2.21,5.68l.16.34A51.31,51.31,0,0,0,24,92.7c.26.39.52.75.79,1.13h0v0h0v0l.09.13.35.48A53,53,0,0,0,31.82,102h0l.61.56.06,0,.88.78.31.26a53.63,53.63,0,0,0,17.06,9.78c1.55.54,3.14,1,4.76,1.42l.07,0a54.5,54.5,0,0,0,13.12,1.59c.87,0,1.74,0,2.6-.06h.19a54,54,0,0,0,10-1.44h0c1.31-.31,2.59-.68,3.85-1.08l0,0a53.48,53.48,0,0,0,30.66-25.46v0s0,0,0,0l.27-.5h0a51.21,51.21,0,0,0,2.47-41.93Z"></path>
        <path class="cls-1" d="M101,39.38l.33-.11A68.21,68.21,0,0,0,88.11,23.76,91,91,0,0,0,70.64,11.68l-.15.3a91.09,91.09,0,0,1,17.4,12A67.84,67.84,0,0,1,101,39.38Z"></path>
        <path class="cls-1" d="M107.65,57.49a40.58,40.58,0,0,0-3.41-12.72,2.83,2.83,0,0,1-.28.2,40.53,40.53,0,0,1,3.36,12.55c1.8,19-10.48,38.63-36.53,58.43l.21.27c26.14-19.87,38.48-39.63,36.65-58.73Z"></path>
        <path class="cls-1" d="M71.31,116.41l-.11-.32c23.13-8.22,34-22.59,39.11-33.2a54.54,54.54,0,0,0,5.53-21.23h.34A54.66,54.66,0,0,1,110.61,83c-5.1,10.66-16.06,25.11-39.3,33.37Z"></path>
        <path class="cls-2" d="M33.17,58c.07-.9.17-1.84.33-2.83v3h0a37,37,0,0,0,0,5.77v3a39.1,39.1,0,0,1-.33-8.9Z"></path>
        <path class="cls-1" d="M47.86,28.73c-1.09,1.17-2.1,2.32-3,3.47l-.1.11-.28.35c-.45.56-.89,1.13-1.32,1.69a53.19,53.19,0,0,0-6.43,11c-.13.31-.26.62-.38.93l0,.07-.11.27c-.52,1.34-1,2.63-1.3,3.88l-.34-.07c.35-1.22.77-2.5,1.28-3.81l.12-.31a0,0,0,0,0,0,0c.13-.33.27-.67.41-1a52.87,52.87,0,0,1,6.29-10.87c.44-.58.89-1.17,1.37-1.77l.27-.34.41-.49q1.39-1.7,3-3.42a3.18,3.18,0,0,0,.16.32Z"></path>
        <path class="cls-1" d="M71.57,116.08l-.2.27-.1-.07-.18-.13-.15-.11h0l0,0-.1-.07-.11-.07-.07-.06-.27-.2c-.3-.21-.59-.43-.88-.65l-1-.72c-2-1.52-3.94-3-5.78-4.57q-3.81-3.15-7.12-6.28c-.11-.12-.23-.23-.35-.34a105.33,105.33,0,0,1-8.62-9.23l-.28-.34A73.52,73.52,0,0,1,39.75,84c-.85-1.46-1.61-2.92-2.3-4.38l.4,0q1,2.19,2.32,4.39h0a74,74,0,0,0,6.64,9.47l.27.33A105,105,0,0,0,55.76,103l.35.34q3.35,3.15,7.17,6.29,2.19,1.8,4.54,3.6l1,.73,1.58,1.18.35.25.13.1a2.48,2.48,0,0,0,.26.19h0l.27.2.09.06v0h0l.09.06Z"></path>
        <path class="cls-1" d="M106.54,36.31c-7.24-10.9-19.53-24-37-24.65h0l0,0A91.37,91.37,0,0,0,53.12,23.16a2.4,2.4,0,0,1,.32.17A91.12,91.12,0,0,1,69.59,12c17.28.65,29.48,13.67,36.66,24.49a105.42,105.42,0,0,1,11.6,23.61l.33-.1a106.44,106.44,0,0,0-11.64-23.69Z"></path>
        <path class="cls-1" d="M68.74,12h0l0,0h0l-.14,0-.43.14a80,80,0,0,0-12.56,5.41c-1,.55-2.1,1.15-3.18,1.79S50,20.84,48.8,21.64c-.79.54-1.59,1.11-2.41,1.71h0l-.45.35h0c-.39.29-.78.6-1.17.91a52.85,52.85,0,0,0-8,7.77l-.28.34c-.69.86-1.36,1.75-2,2.68A39.2,39.2,0,0,0,31,41.63c-.4.89-.76,1.8-1.08,2.74l-.12.35c-.06.17-.12.35-.17.52s-.11.36-.17.54-.11.37-.17.57h0l-.09.34c-.12.45-.24.9-.34,1.36h-.34c.11-.45.22-.89.34-1.35l.09-.34c.06-.2.11-.39.18-.59.13-.46.29-.93.45-1.4.33-1,.72-2,1.17-3a39,39,0,0,1,3.31-6c.6-.89,1.26-1.79,2-2.68h0l.27-.35a52,52,0,0,1,8.32-8.14l.7-.54h0l.45-.34c.89-.68,1.83-1.34,2.81-2,1.26-.86,2.53-1.65,3.78-2.38,1.06-.63,2.11-1.22,3.14-1.76a80.78,80.78,0,0,1,12-5.21l.73-.24.35-.1,0,.09,0,.07h0l0,.16Z"></path>
        <path class="cls-1" d="M28.42,78.54a36,36,0,0,0,1.4,4.23c.13.34.28.68.42,1s.23.52.36.78a43.83,43.83,0,0,0,5.63,9h0c.09.12.18.23.28.34A61.67,61.67,0,0,0,46,103.15h0l.42.33h0a90.16,90.16,0,0,0,9.47,6.42h0a119.06,119.06,0,0,0,12,6.17l.75.33.14-.31,0,0a118.78,118.78,0,0,1-12.56-6.41h0A88.52,88.52,0,0,1,47,103.48h0l-.43-.34h0A62.38,62.38,0,0,1,37,93.9l-.27-.34h0a43.55,43.55,0,0,1-5.76-9.1c-.11-.23-.22-.46-.32-.69s-.3-.7-.43-1a32.48,32.48,0,0,1-1.4-4.22l-.35,0Z"></path>
        <path class="cls-3" d="M24.23,92.52s.47.92,2.77.55a8.38,8.38,0,0,0,2-.87,1.46,1.46,0,0,0,.68-.93c.19-.81.72-2.15,2.14-1.1a4.11,4.11,0,0,1,1.91,2.32,1.52,1.52,0,0,1,0,.21c0,.19.21.7,1.77.92,0,0,2.79.57,2.72,5a.75.75,0,0,1-.62.73c-1.36.24-4.64,1-5.15,3.25A49.71,49.71,0,0,1,24,92.7l.28-.18Z"></path>
        <path class="cls-3" d="M55.14,87.69s.19,2.11,3.45,5.1c0,0,3.06,2.31,3.15,3v2.89s.3,1.74,2.67,1.83h2.66s1.08.1,2.86,2c0,0,2.86-.09,1.38-3l-.49-7.71,2.26-5.1L55.14,84.41v3.27Z"></path>
        <path class="cls-3" d="M100.55,79.77v2.69c-.39,1.93-3.94,5.3-3.94,5.3-1.38,1.15-1.68,4.62-1.68,4.62a5.42,5.42,0,0,1-.27.7,3.51,3.51,0,0,1-.18.34c-.74,1.17-1.58.51-2,0l-.26-.34,0,0V89.68a3,3,0,0,0-.89-2.31l-.34-1.21L89.74,82l.31-.1.55-.2c0-.41-.08-.8-.13-1.18s0-.47-.08-.7Z"></path>
        <path class="cls-3" d="M50.74,113.39l1.48-2.68s.22-.44,1.4,0a1.92,1.92,0,0,0,2.3-.8l1-1s.45-1.22,2.89.73l5,.07s1.07-2.3,4.48-.46a.7.7,0,0,1,.22.2c.07.11.31.19,1-.25a2.89,2.89,0,0,1,2.44-1.37s2.29-.72,1.18,1.66c0,0-.59,1,1,1.52l2.07,1.15a2.77,2.77,0,0,0,1.41.29l5.25-.07s1.17,1,1.61,1.43c0,0-16.72,6.24-34.67-.41Z"></path>
        <path class="cls-3" d="M101.44,89.06a.84.84,0,0,1-.83-1.07A4,4,0,0,1,102,86.31c2.27-1.83,1.68-1.83,3.55-1.16,0,0,2,.84.5,1.72,0,0-2.39,2.18-4.6,2.19Z"></path>
        <path class="cls-3" d="M74.5,41.83s-.89-2.39,3.4-3.25,3.18,2.53,3.18,3.25a5,5,0,0,1-3.77,4.62s-1.18.5-1.63-1,.37-1.3-.44-2.24-.74-1.37-.74-1.37Z"></path>
        <path class="cls-3" d="M92.84,22.84A7.5,7.5,0,0,0,92.36,21h0c-.08-.21-.16-.42-.25-.63h0a24.14,24.14,0,0,0-2.31-4l-.1-.08a2.38,2.38,0,0,0-1-.42h0a3.93,3.93,0,0,0-2.6.51l-.35.2a5.64,5.64,0,0,0-.57.38,19,19,0,0,0-2.68,2.29l-.22.26a4.62,4.62,0,0,0-.65.88A2.46,2.46,0,0,1,80,18.87c-.3-1.08-4.24-1.77-5.13-1.77s-.69-2.08,1.18-1.33a2.28,2.28,0,0,0,1.07.13h0l.48-.09h0a2.74,2.74,0,0,0,2-1.94h0a1.09,1.09,0,0,0,0-.36,1,1,0,0,0-.17-.43,1.3,1.3,0,0,0-.15-.2,1.49,1.49,0,0,0-.47-.27c-2-.8-7-.86-7-.86h0l-1.12-.06H68.52l-1.49,0H65.71l-.27,0H65l-.39,0-.36,0h-.14l-.29,0-.65.06-.36,0-.58.07-.5.06c-.38.05-.79.1-1.21.17l-.3,0-.37.06-.12,0a39.94,39.94,0,0,0-8.22,2h0a40.78,40.78,0,0,0-14.21,7.19c-.3.24-.67.46-1,.71l.44.1,3,.56.44.43.34.34h0l1,1,1.52-1h0l.47-.34.73-.5.12.49.08.34.12.53.1.37,1.16,4.85s-1.54,1.07-1.24,2.36a1.4,1.4,0,0,0,.14.37.67.67,0,0,0,.06.12h0a2.39,2.39,0,0,0,.25.33,2.67,2.67,0,0,0,.49.44c2.37,1.77,3,.4,3,.4s.69,3.14-2.07,1.67.89-1.47-2.86-.89l-.53.09-.48.08c-2.42.42-1.24.42-2.74.42a1.83,1.83,0,0,1-2-1.17l-2,1.66-1.43.06H34.1l-3.57.13-1.67,2.06L24.61,35l-.28-.18,0,0-.05.07-.56.83-.08.12a0,0,0,0,1,0,0,42,42,0,0,0-5.15,9.24c-.1.29-.21.59-.3.88a16.56,16.56,0,0,0-.7,3h0l0,.31h.29l.42,0c.59-.18,1.12-.33,1.66-.46l.38-.08c.72-.16,1.48-.28,2.44-.42.07.4.15.79.23,1.17l.45,0,.26-1.89a2.8,2.8,0,0,1,.32-.92h0l.21-.34a5.16,5.16,0,0,1,.56-.7l.24-.24,1.41-1,0-.1-.35-2.45,2.44-2.87s1.13,1.1,2.43,2.34l.25.24c1.23,1.17,2.55,2.42,3.15,2.93l.16.14a4,4,0,0,0,2,.59l.34.07a1.26,1.26,0,0,1,.69.42.91.91,0,0,1,.17.5,2.26,2.26,0,0,1,0,.26.25.25,0,0,0,0,.08,7.87,7.87,0,0,1-.68,2.26l0,.16.39.07.34.07c2.75.52,4.5.84,7.37,1.29l4.64.2h.34l17.22.75a9.21,9.21,0,0,1-.35-1c0-.14-.09-.3-.13-.46s-.15-.58-.21-.9a8.67,8.67,0,0,1-.18-2.65h0c0-.11,0-.23,0-.34l0-.14c.49-2.35,1.28-2.35,1.28-2.35s0-2.16-3.75-6.47c0,0-.69-.89.89-.89s1.48.49,1.68.79a1.23,1.23,0,0,0,1.18-.39A5.62,5.62,0,0,0,69,38.3a2.93,2.93,0,0,0,.34.24,2.83,2.83,0,0,0,1.24.44c1.87.2,3.05-2.36,3.35-5.69h3.45a2.49,2.49,0,0,0,.5-.92A1.89,1.89,0,0,0,78,32c.2-1,.06-2.39-1.48-4.23,0,0-1.68-.4,1-2.95,0,0,.19-2.55,2.36.79l.5,2.06,1.78,0h.4l5.11-.07a15,15,0,0,0,2.76-1.29,2,2,0,0,0,.29-.19c.52-.34,2.14-1.43,2.18-2.94v-.09c0-.07,0-.13,0-.25ZM51.27,37c0-1.88,0-.86-1.33-2.24s0-1.88,0-1.88a4.84,4.84,0,0,1,3.62-.65c-.37,2.75.3,2.31.44,2.89s1,1.37.45,2.46-3.18,1.3-3.18-.58ZM49,18.29V16.75h2.17s1.18,0,0,1.54Zm2.32,6.26s2.46-.1,2.26.58-1,2.6-2.26,1.54A1.31,1.31,0,0,1,51.34,24.55Zm7.4,4a4.09,4.09,0,0,1,1.85-2.67s.15-.93,1.4,1.66,1.48,3.11.67,3.61-2.66.73-3.33,0S58.74,28.59,58.74,28.59Zm-3.21-11a9.65,9.65,0,0,1-.2,1.7c-.14.62-1.92,2.35-2.65,1.48a1.94,1.94,0,0,1-.33-1.39c0-.15,0-.29,0-.42a7.74,7.74,0,0,1,.21-.94,1,1,0,0,1,.19-.36,2.85,2.85,0,0,1,2.53-1.22c.14,0,.2.32.21.76,0,.12,0,.26,0,.39Zm-6.87,7.16c2.07-1.35,1.68.86,1.68,1.2s-1.29,1.21-1.29,1.21H46.69S46.59,26.12,48.66,24.77Zm5.58,2.48c-1.28-2.12,1.93-4.43,1.93-4.43s1.24-.88,1.33,0l.59,6.25a4.19,4.19,0,0,1-3.85-1.82ZM39.58,21.5c-.18-.12-.39-.41-.31-.62a.38.38,0,0,1,.16-.2.59.59,0,0,1,.38-.1,2.25,2.25,0,0,1,.53.05c.09,0,.74.17.76.39s-1,.83-1.52.48Zm4.17-.85s.15-1.59,2.29-1.59S45,21.88,43.75,20.65Z"></path>
        <path class="cls-3" d="M118.83,45.74s0,0,0-.05c-.19-.47-.38-.95-.59-1.43,0-.13-.11-.27-.17-.4l-.25-.57L117.22,42c-.06-.11-.11-.23-.17-.34s-.17-.37-.26-.55l-.3-.58c-.08-.17-.18-.34-.27-.52h0l-.19-.36h0l-.41,0c-.93-.16-3-.87-2.61-4.13,0,0,0-.07,0-.17a1.78,1.78,0,0,0-1-1.4,2.43,2.43,0,0,0-1.06-.21s-.11-1-1.95,0c0,0-3.9,1.78-1,3,0,0,2.91,2.8,1.3,4A1,1,0,0,1,109,41a4.55,4.55,0,0,1-1.88.38s-1.29.21-1.51-3.65a5.18,5.18,0,0,0-2.39-3.45V29h-4s-1.85.63-1.52,1.25-1.52.21-1.84-.1A3.86,3.86,0,0,0,94.43,30H94c-1.52.08-3.41.53-3.57,1.91h0a1.28,1.28,0,0,0,0,.34h0a3,3,0,0,0,.41,1.25s2.5,2.78-3.46,4.24l-.34.08-.86.17a50,50,0,0,1-3.65,8,3.79,3.79,0,0,1-.2.34,22.18,22.18,0,0,1-1.33,2c-.3.37-.6.72-.91,1l-.19.2,1.34,1.34c1.45-.38,3.46-.9,5.61-1.69a20,20,0,0,1,3.11-.55l.34,0c1.61-.2,3.26-.36,3.75-.37h.34a4.71,4.71,0,0,1,2.08.46c1.45.71,2.46,2.23,3,5a16,16,0,0,1-.53,8.4c-.41,1.17-3.73,5.47-4.46,6.42L102.55,79a9.52,9.52,0,0,1,.85-.68c.16-.12.35-.26.56-.4h0l.51-.33a13,13,0,0,1,1.83-1,8.18,8.18,0,0,1,2.82-.7,8.27,8.27,0,0,1,3.78.69h0l.3.16a2.69,2.69,0,0,1,1.55,2.08A4.59,4.59,0,0,1,113.24,82s-1,1,.75,2.61a6.75,6.75,0,0,1,1.94,3.33,3.05,3.05,0,0,0,.14.45v0l0,0c0-.07.13-.24.26-.51h0c2-3.11,11.32-19.58,2.46-42.05ZM105,57.43c1.43-.77,1.67,1.2,1.82,1.54s1,2.4-1.49,1.83-1.47-1.5-1.47-1.5-.29-1.11,1.14-1.87Zm-.08-16.67A1.2,1.2,0,0,1,106,41.85a3.32,3.32,0,0,1-2.11,2.63,2.28,2.28,0,0,1-2.74-.29V40.76s2.82-.07,3.74,0Z"></path>
        <path class="cls-1" d="M131.45,61a1.57,1.57,0,0,0-1-1.23v0a1.67,1.67,0,0,0,1.32-1.57,1.44,1.44,0,0,0-.55-1.16,3.12,3.12,0,0,0-2-.51,10.81,10.81,0,0,0-1.73.13v6.06h.9V60h.85c.82,0,1.19.35,1.4,1.19a7.06,7.06,0,0,0,.46,1.47H132A8.69,8.69,0,0,1,131.45,61Zm-2.19-1.57h-.92V57.14a3.9,3.9,0,0,1,.89-.08c1,0,1.61.36,1.61,1.15s-.61,1.17-1.57,1.17Z"></path>
        <path class="cls-1" d="M129.45,53.66a5.72,5.72,0,1,0,5.46,5.72A5.61,5.61,0,0,0,129.45,53.66Zm0,10.55a4.84,4.84,0,1,1,4.66-4.83A4.76,4.76,0,0,1,129.45,64.21Z"></path>
        <path class="cls-4" d="M103.46,118a3.67,3.67,0,0,0-.29-2.87,3.89,3.89,0,0,0-.8-1.07,3.86,3.86,0,0,0-6,4.63,3.92,3.92,0,0,0,.81,1.06,3.65,3.65,0,0,0,4.31.46A3.91,3.91,0,0,0,103.46,118Zm-2.38,1.36a2.5,2.5,0,0,1-3-.37,3.06,3.06,0,0,1-.64-.85,2.6,2.6,0,0,1,1-3.69,2.52,2.52,0,0,1,3,.37,3.3,3.3,0,0,1,.65.86,2.6,2.6,0,0,1-1,3.68Z"></path>
        <path class="cls-4" d="M22.37,98.66l-7.49,2,.8,1,1.4-.4h.07l0,0,2.13,2.8,0,0h0v0l0,0-.75,1.25.8,1,3.93-6.69-.94-1.23Zm-.3,1.23-.1.17-2,3.24-.05.09,0,0,0,0-.07-.09-1.68-2.19L18.1,101l0,0h0l.1,0,3.64-1,.19,0,.06,0,0,.06Z"></path>
        <path class="cls-4" d="M28,104.94a4,4,0,0,0-2.68-1.25h-.15a3.64,3.64,0,0,0-2.55,1.08,3.7,3.7,0,0,0,.12,5.39,3.37,3.37,0,0,0,2.46,1.07,3.66,3.66,0,0,0,.65-.06l-.33-1a3,3,0,0,1-.42,0,2.4,2.4,0,0,1-1.71-.72,2.68,2.68,0,0,1,0-3.92,2.79,2.79,0,0,1,2-.85,2.73,2.73,0,0,1,1.95.85,2.42,2.42,0,0,1,.65,2.13l1,.35a3.39,3.39,0,0,0-1-3.13Z"></path>
        <path class="cls-4" d="M33.64,109.83a4,4,0,0,0-2.49-.89,3.56,3.56,0,0,0-2.87,1.45,3.62,3.62,0,0,0-.74,2.81,4,4,0,0,0,1.58,2.51,3.44,3.44,0,0,0,2.11.76,3.68,3.68,0,0,0,1.11-.18l-.46-.93a2.24,2.24,0,0,1-.73.12,2.44,2.44,0,0,1-1.47-.5,2.69,2.69,0,0,1-.49-3.9A2.84,2.84,0,0,1,31,110l.34,0a2.8,2.8,0,0,1,1.71.6,2.45,2.45,0,0,1,.93,2l1,.2a3.37,3.37,0,0,0-1.39-3Z"></path>
        <path class="cls-4" d="M40.78,115.27a2.54,2.54,0,0,0-1.2-1.41l-2.82-1.64-3.62,6.21,1,.58,1.34-2.3,0-.07v0l0,0,.06,0,1.15.68,0,0h0v.05l.08,3.19,1.13.66L37.87,118v-.15h0l.11,0a2.13,2.13,0,0,0,.79.15A2,2,0,0,0,40.54,117a2.12,2.12,0,0,0,.24-1.72Zm-1.25,1.13a1.2,1.2,0,0,1-1.06.62,1.57,1.57,0,0,1-.8-.23l-1.59-.93-.07,0h0l0,0,0-.06,1.19-2,0-.07v0l0,0,.06,0,1.59.93a1.29,1.29,0,0,1,.58,1.82Z"></path>
        <path class="cls-4" d="M33.11,118.43h0l1,.56-1-.57Z"></path>
        <path class="cls-4" d="M43.45,117v0h0L47,118.5l.37-.82-4.6-2-2.87,6.55,4.59,2,.37-.83-3.56-1.57h0v0l.9-2v0h0l3.48,1.53.37-.83-3.49-1.53h0v0l.84-1.93Z"></path>
        <path class="cls-4" d="M53.68,120.7a4.07,4.07,0,0,0-2.43-1.79l-2.63-.79L46.55,125l2.64.79a4.77,4.77,0,0,0,1.38.21,3.41,3.41,0,0,0,3.4-2.53,3.49,3.49,0,0,0-.29-2.79Zm-.85,2.45a2.52,2.52,0,0,1-2.45,1.9,3,3,0,0,1-.92-.15L48,124.47l-.08,0h0v0l0-.07,1.47-4.9,0-.07v0h0l.07,0,1.45.43a2.77,2.77,0,0,1,1.71,1.29,2.68,2.68,0,0,1,.14,2Z"></path>
        <path class="cls-4" d="M56.3,120.25l-1.42,7,1.09.21,1.42-7Z"></path>
        <path class="cls-4" d="M58.5,120.74l-.11.9,2.28.29h0v0l-.76,6.18,1.1.14.75-6.19v0h0l2.28.29.11-.91-5.71-.7Z"></path>
        <path class="cls-4" d="M66.45,122.44v0h0l3.89,0v-.9l-5-.07-.1,7.16,5,.07v-.91l-3.88,0h0v0l0-2.24v0h0l3.8,0,0-.9-3.81-.05h0v0l0-2.1Z"></path>
        <path class="cls-4" d="M78.67,124.4A3.5,3.5,0,0,0,75,121.2a3.32,3.32,0,0,0-.55,0l-2.73.28.75,7.16,2.73-.29a4.09,4.09,0,0,0,2.71-1.3,3.34,3.34,0,0,0,.8-2.68ZM77,126.48a2.76,2.76,0,0,1-1.9,1l-1.5.16h-.1v-.1l-.53-5.08v-.1H73l1.49-.16.39,0a2.51,2.51,0,0,1,2.6,2.38,2.61,2.61,0,0,1-.54,2Z"></path>
        <path class="cls-4" d="M88.29,120.61a2.1,2.1,0,0,0-2.1-1.61,2.94,2.94,0,0,0-.81.12l-3.15.87,1.93,6.93,1.11-.31-.72-2.56,0-.07v0h0l.07,0,1.95-.55a2.45,2.45,0,0,0,1.55-1.12,2.16,2.16,0,0,0,.17-1.66Zm-1.23,1.25a1.51,1.51,0,0,1-.92.67l-1.77.49-.07,0h0v0l0-.07-.64-2.26,0-.07v0h0l.07,0,1.78-.5a1.82,1.82,0,0,1,.46-.06,1.23,1.23,0,0,1,1.24.91,1.26,1.26,0,0,1-.1.94Z"></path>
        <path class="cls-4" d="M93.94,120.78l-.11-.08,0,0,0,0,.12-.07a2,2,0,0,0,.82-2.55,2.06,2.06,0,0,0-2-1.36,2.86,2.86,0,0,0-1.08.22l-3,1.23,2.7,6.63,1-.42-1-2.45,0-.08v0h0l.09,0,1.23-.5.05,0h0l0,0,2.56,1.87,1.18-.48-2.66-1.85Zm-1.07-.58-1.7.69-.09,0h0v0l0-.08-.88-2.18,0-.09v0h0l.08,0,1.7-.7a1.88,1.88,0,0,1,.65-.13,1.27,1.27,0,0,1,1.15,1.8,1.52,1.52,0,0,1-.82.73Z"></path>
        <path class="cls-4" d="M109.8,110a3.4,3.4,0,0,0-2.73-1.41,4.16,4.16,0,0,0-2.54,1l-2.17,1.66,4.37,5.68,2.16-1.67a3.59,3.59,0,0,0,.91-5.21Zm-1.46,4.49-1.19.92-.08.06h0v0l-.06-.07-3.12-4.05,0-.08h0l0,0,.08-.06,1.19-.92a2.88,2.88,0,0,1,1.75-.65,2.72,2.72,0,0,1,1.51,4.89Z"></path>
        <path class="cls-4" d="M116.09,104.83l-3.1-3.06-.79.8,3.07,3a1.88,1.88,0,0,1,0,2.92,2.06,2.06,0,0,1-1.48.71,2,2,0,0,1-1.44-.67l-3.08-3-.79.8,3.11,3.06a2.83,2.83,0,0,0,2,.93,4,4,0,0,0,3.45-3.47,3,3,0,0,0-1-2Z"></path>
        <path class="cls-4" d="M115.23,109.8a3.15,3.15,0,0,0,.29-.22A3.15,3.15,0,0,1,115.23,109.8Z"></path>
        <path class="cls-4" d="M122.5,98.9l-.93.47a2.41,2.41,0,0,1-.35,2.21,2.77,2.77,0,0,1-1.81,1.1,2.19,2.19,0,0,1-.36,0,3,3,0,0,1-2.85-2.43,2.76,2.76,0,0,1,.56-2,2.41,2.41,0,0,1,1.9-1h.12l.19-1h-.15A3.34,3.34,0,0,0,116,97.68a4,4,0,0,0-.84,2.87,3.77,3.77,0,0,0,3.66,3.24,3.92,3.92,0,0,0,3.1-1.66,3.37,3.37,0,0,0,.55-3.23Z"></path>
        <path class="cls-4" d="M120.67,92.41h0v0l1.14-2-.78-.45-2.87,5,.79.45,1.14-2v0h0l5.4,3.1.56-1-5.4-3.1Z"></path>
        <path class="cls-4" d="M121.94,87.84l-.47,1,6.49,3,.47-1-6.49-3Z"></path>
        <path class="cls-4" d="M130.63,82.63a3.68,3.68,0,0,0-2.17-1.91,4.06,4.06,0,0,0-1.31-.23A3.86,3.86,0,0,0,125.94,88a4.12,4.12,0,0,0,1.32.23,3.65,3.65,0,0,0,3.46-2.62A3.8,3.8,0,0,0,130.63,82.63Zm-.81,2.62A2.48,2.48,0,0,1,127.39,87a3.32,3.32,0,0,1-1.06-.18,2.6,2.6,0,0,1-1.75-3.41A2.51,2.51,0,0,1,127,81.65a3,3,0,0,1,1.06.19,2.6,2.6,0,0,1,1.75,3.41Z"></path>
        <path class="cls-4" d="M133.34,74.53l.21-1.1-7-1.31-.2,1.09,5.2,1h.07l-.06,0-6,3-.23,1.19,7,1.31.21-1.09-5.35-1h-.07l.06,0Z"></path>
        <path class="cls-4" d="M14.23,31.28l5.3,1.66.69-1.07-4.94-5.62-.69,1.08,4,4.23.19.2.06.06-.09,0-.26-.09L12.89,30l-.48.77,3.91,4.31.18.21.06.06-.08,0-.27-.09L10.7,33.45,10,34.53,17.2,36.6l.68-1.07-3.75-4.09-.19-.2-.06-.07.08,0,.27.08Z"></path>
        <path class="cls-4" d="M23.88,21.91a3.6,3.6,0,0,0-5.27.36,3.62,3.62,0,0,0,.29,5.28,3.6,3.6,0,0,0,5.27-.36,3.61,3.61,0,0,0-.29-5.28Zm-.42,4.65a2.46,2.46,0,0,1-1.89.89,3.1,3.1,0,0,1-2.91-2.6A2.65,2.65,0,0,1,21.21,22a3.11,3.11,0,0,1,2.91,2.64,2.53,2.53,0,0,1-.66,1.91Z"></path>
        <path class="cls-4" d="M26.63,20.57l1-.86,0,0h.06l3,1,1-.85-3.12-.92-.12,0,0,0,0,0,.08-.09A2,2,0,0,0,28.47,16a2.13,2.13,0,0,0-1.62-.78h0a2.54,2.54,0,0,0-1.62.66L22.79,18l4.72,5.42.85-.74-1.74-2-.05-.05,0,0h0l.06-.05ZM26,19.86l-.06,0,0,0v0l-.05,0-1.54-1.77,0-.06h0l0,0,.06,0,1.37-1.18a1.49,1.49,0,0,1,1-.39,1.2,1.2,0,0,1,.92.43,1.17,1.17,0,0,1,.31.9,1.43,1.43,0,0,1-.52,1L26,19.86Z"></path>
        <path class="cls-4" d="M35.92,15.69l-2.65,1.85-.06,0h0l0,0,0-.06-3.5-5-.93.64L32.8,19l3.65-2.55-.53-.77Z"></path>
        <path class="cls-4" d="M41.53,9.53a3.42,3.42,0,0,0-3.05-1.88,4.26,4.26,0,0,0-2,.55L34,9.48l3.41,6.32,2.39-1.28a4,4,0,0,0,2-2.21,3.47,3.47,0,0,0-.29-2.78Zm-.76,2.53a2.71,2.71,0,0,1-1.38,1.63l-1.3.7-.07,0h0l0-.07L35.53,9.87l0-.07v0h0l.06,0L36.88,9a2.9,2.9,0,0,1,1.4-.38,2.51,2.51,0,0,1,2.22,1.44,2.65,2.65,0,0,1,.27,2Z"></path>
        <path class="cls-4" d="M46.34,5.72l3.2,4.54,1.19-.43-.48-7.46-1.2.44.55,5.76,0,.28v.08l0-.07-.16-.23L46.06,3.89l-.85.31.47,5.8,0,.28v.08l-.05-.07-.16-.23L42.22,5.29,41,5.72l4.43,6,1.19-.44-.48-5.53,0-.28V5.42l0,.07.16.23Z"></path>
        <path class="cls-4" d="M53,1.83l-1.09.27,1.7,7,1.1-.27L53,1.83Z"></path>
        <path class="cls-4" d="M62.27,3.84a3.46,3.46,0,0,0-3.6-3,4.93,4.93,0,0,0-.75.06l-2.67.41,1.08,7.09L59,8a4,4,0,0,0,2.61-1.41,3.46,3.46,0,0,0,.66-2.71ZM58.87,7l-1.47.22-.07,0h0v-.1l-.77-5V2h.09l1.47-.23a3.15,3.15,0,0,1,.53,0A2.48,2.48,0,0,1,61.13,4a2.56,2.56,0,0,1-2.26,3Z"></path>
        <path class="cls-4" d="M69.05,6.23l-3.75.12h-.09v-.1l-.07-2v-.1h.09L68.9,4l0-.94-3.67.12h-.1v-.1L65,1.16V1.07h.1L68.89.94l0-.94-5,.16.23,7.17,5-.16,0-.94Z"></path>
        <path class="cls-4" d="M79,1.45A2.49,2.49,0,0,0,77.33.63l-3.2-.4-.88,7.12,1.12.14.33-2.63v-.1h.09l1.31.16h.06l0,0,1.3,2.89L78.77,8,77.38,5.1l0-.1,0,0h.15a2,2,0,0,0,2-1.85A2.16,2.16,0,0,0,79,1.45ZM78.25,3a1.23,1.23,0,0,1-1.31,1.1h-.22l-1.8-.22h-.09v-.1l.29-2.32v-.1h.09l1.8.22A1.28,1.28,0,0,1,78.25,3Z"></path>
        <path class="cls-4" d="M82.18,4.46l.45-1.86V2.51h0l.08,0,3.64.86.22-.92L81.77,1.33l-1.66,7L85,9.46l.21-.92-3.65-.86-.07,0h0v0l0-.07.47-2,0-.07v0h0l.07,0,3.57.84.22-.92-3.57-.84-.08,0h0V4.46Z"></path>
        <path class="cls-4" d="M89.85,4.5a2,2,0,0,1,.66.12,3.2,3.2,0,0,1,1.78,1.47l.87-.55a3.83,3.83,0,0,0-2.23-1.78,3.58,3.58,0,0,0-1.17-.21,2,2,0,0,0-2,1.27c-.49,1.39.69,2.17,1.73,2.85.81.53,1.57,1,1.32,1.73a1.07,1.07,0,0,1-1.08.66,2.54,2.54,0,0,1-.81-.15A3.43,3.43,0,0,1,87,8.21l-.86.58a4,4,0,0,0,2.41,2,4.22,4.22,0,0,0,1.36.26,2,2,0,0,0,2-1.38c.51-1.46-.72-2.26-1.8-3-.79-.52-1.47-1-1.26-1.58a1,1,0,0,1,1-.62Z"></path>
        <path class="cls-4" d="M98.4,7l-2.9-1.4-3.11,6.47,1,.49,1.16-2.39,0-.07v0h0l.07,0,1.79.86a2.73,2.73,0,0,0,1.17.29A2.13,2.13,0,0,0,99.58,10,2.17,2.17,0,0,0,98.4,7Zm.12,2.52a1.18,1.18,0,0,1-1.11.7,1.57,1.57,0,0,1-.68-.16L95.1,9.29l-.07,0h0v0l0-.07,1-2.11,0-.07V7h0l.07,0,1.62.78a1.43,1.43,0,0,1,.77.8,1.19,1.19,0,0,1-.06.94Z"></path>
        <path class="cls-4" d="M106.91,13.12a3.82,3.82,0,0,0-1.69-2.35,3.91,3.91,0,0,0-2.14-.67,3.64,3.64,0,0,0-3,1.74A3.61,3.61,0,0,0,101.18,17a4,4,0,0,0,2.13.66,3.6,3.6,0,0,0,3-1.73,3.66,3.66,0,0,0,.56-2.81Zm-1.53,2.18a2.74,2.74,0,0,1-2.27,1.34,2.63,2.63,0,0,1-1.42-.44,2.54,2.54,0,0,1-1.13-1.59,2.83,2.83,0,0,1,.46-2.14,2.73,2.73,0,0,1,2.26-1.35,2.54,2.54,0,0,1,1.42.45,2.57,2.57,0,0,1,.68,3.73Z"></path>
        <path class="cls-4" d="M114,17.71l-3.28,3.8-.15.17,0,.05v-.07l0-.22.43-6.35-.92-.8-4.7,5.43.86.74,3.38-3.91.14-.17,0-.05v.3l-.47,6.51.86.74,4.7-5.43-.85-.74Z"></path>
        <path class="cls-4" d="M118.3,21.92a2.87,2.87,0,0,0-2.07-1.05,1.78,1.78,0,0,0-1.23.47c-1.1,1-.43,2.23.16,3.33.46.85.89,1.65.34,2.15a1,1,0,0,1-.64.24,1.76,1.76,0,0,1-1.26-.7,3.42,3.42,0,0,1-.88-2.42l-1,.11A4.1,4.1,0,0,0,112.85,27,3.06,3.06,0,0,0,115,28.13a2,2,0,0,0,1.35-.55c1.14-1,.45-2.32-.16-3.46-.45-.83-.83-1.55-.36-2a.86.86,0,0,1,.6-.24,1.54,1.54,0,0,1,1.08.58,3.22,3.22,0,0,1,.87,2.14l1-.07a3.86,3.86,0,0,0-1.11-2.63Z"></path>
        <path class="cls-4" d="M121.28,25.61,115.59,30l.68.89L122,26.5Z"></path>
        <path class="cls-4" d="M125.29,31.34l-2-3.05-6,3.88,2,3.13A2,2,0,0,0,121,36.37a1.89,1.89,0,0,0,1-.32,1.72,1.72,0,0,0,.71-2.09l-.18-.38,0-.12.09.09.3.3a1.53,1.53,0,0,0,1.09.46,1.65,1.65,0,0,0,.92-.28,1.83,1.83,0,0,0,.39-2.69ZM122,34.27a1.11,1.11,0,0,1-.49.7,1.14,1.14,0,0,1-.62.2,1.22,1.22,0,0,1-1-.64l-1.18-1.84,0-.06v0h0l.06,0,1.72-1.11.07,0h0v0l0,.06,1.17,1.83a1.35,1.35,0,0,1,.23,1Zm2-1.1a1.08,1.08,0,0,1-.57.17,1.13,1.13,0,0,1-.94-.58L121.43,31l0-.06v0h0l.06,0,1.6-1,.07,0h0v0l0,.06,1.15,1.79A1.06,1.06,0,0,1,124.08,33.17Z"></path>
        <path class="cls-4" d="M122.41,38.87h0l.07,0L128,36.09l-.5-1-6.43,3.19,2,4,.85-.42L122.45,39l0-.09Z"></path>
        <path class="cls-4" d="M130.25,40.87l-6.73,2.51L125.25,48l.89-.33-1.31-3.51,0-.07v0h0l.07,0,1.92-.71.07,0h0v0l0,.07,1.28,3.44.89-.33-1.28-3.44,0-.08v0h0l.07,0,1.8-.67.07,0h0v0l0,.07,1.3,3.52.89-.33-1.74-4.67Z"></path>
        <path class="cls-4" d="M90.92,55.75c-.54-.47-1.36-.45-2.45,0l-.12,0-1.53.55c.41,2.68.65,4.1,1.12,7l1.48-.55a3.93,3.93,0,0,0,2.31-2.07c0-.12.09-.24.13-.36A4.93,4.93,0,0,0,92,57.86a3.57,3.57,0,0,0-1.07-2.11Z"></path>
        <path class="cls-4" d="M48.1,57.49a4.31,4.31,0,0,0-2.64-1.15l-3-.47c.05,2.32.08,3.47.13,5.76,1.15.17,1.73.27,2.91.46A9.44,9.44,0,0,0,47.36,62a1.49,1.49,0,0,0,1.13-.7,2.68,2.68,0,0,0,.39-1.58,3.51,3.51,0,0,0-.78-2.24Z"></path>
        <path class="cls-4" d="M72.23,70.45v0c-.83-3.65-1.34-5.86-2.19-9.8-.63,4.46-1,6.68-1.8,11,1.79.13,2.58.13,4,.14h.28l-.31-1.35Z"></path>
        <path class="cls-4" d="M106,73.26h0l-.14-.71h0l-5.32-26.38-.07-.34-.19-1-.07-.33L99.49,41a20.35,20.35,0,0,1-5.63,3.54h0l-.77.35-.57.24-.32.13c-.51.2-1,.41-1.62.62h0l-.75.25-.26.09h0l0,0A53,53,0,0,1,82.71,48L81,48.24a74.17,74.17,0,0,1-8.77.8h-.34c-.76,0-1.54,0-2.34,0h-.33l-2.76,0q-5.31-.14-11.66-.92c-.54-.07-1.19-.2-1.94-.36l-.33-.08-2-.46-.33-.08-2.65-.61h0L46,46.22h0c-1.57-.32-3.28-.65-5.18-.93h0l-.52-.08L39,45l-.34,0-.24,0-1.44-.16-.36,0-2.39-.2c-.65-.05-1.32-.09-2-.12h-.33L30,44.36h-.35c-.74,0-1.5,0-2.28,0l-1.06,0c-1.52,0-3.09.1-4.72.23l-.37,0-.33,0h-.17s-.52.06-1.43.26l-.4.09-.39.09A38.67,38.67,0,0,0,0,56L8.08,92.58a40.32,40.32,0,0,1,11.8-7.16l.31-.12c.81-.32,1.65-.63,2.53-.91l.33-.1A41.3,41.3,0,0,1,28.57,83l1.26-.2.34,0c.94-.13,1.87-.23,2.77-.3l.36,0a49.41,49.41,0,0,1,5.54-.08l.4,0c1.11,0,2.17.14,3.19.25l.42,0h0a69.73,69.73,0,0,1,9.89,2l.39.1h0l.86.19c.22,0,.61.14,1.16.27l1,.23.39.09h0l1.27.28a101.77,101.77,0,0,0,12.06,1.86,2,2,0,0,1,.34,0l2.34.16h.06l.28,0,1.72.07a62.1,62.1,0,0,0,11.07-.62l.39-.06c.63-.1,1.26-.21,1.89-.34l.39-.08c.87-.19,1.74-.4,2.59-.64s1.86-.55,2.77-.88a31.66,31.66,0,0,0,6.85-3.45,24.18,24.18,0,0,0,2.51-1.92l.11-.09.53-.47h0A27.77,27.77,0,0,0,106,76.93l.28-.34.29-.37-.59-3ZM30.53,71.37l-.21,1.54q-.37,2.75-.71,5.5l-.84.09-.34,0a31.47,31.47,0,0,0-4.46.82c-1.57-7.54-2.4-11.27-4-18.81-.5,3.6-.86,6.45-1.19,9.21L18.58,71c-.28,2.45-.54,4.91-.83,7.84l-.09.87c-.06.58-.12,1.18-.18,1.81a44.65,44.65,0,0,0-6,3.15c-2.77-11.11-4.19-17.56-6-28a30.15,30.15,0,0,1,5.87-4.37c1,6.42,1.61,9.85,2.83,16.55.87-7.75,1.35-11.59,2.45-19l.63-.23.4-.13.47-.15c.59-.19,1.12-.34,1.66-.47l.38-.08c.72-.15,1.48-.28,2.44-.41.08.4.15.78.23,1.16C24.05,55.57,24.74,59,26,65.28c.71-7,1.11-10.33,2-17.26l.58,0h.33c.76,0,1.41.05,2.05.11l.33,0c.82.08,1.66.2,2.74.36-1.24,7.59-2.44,15.2-3.49,22.82ZM75.1,83.69c-.42-2-.64-3-1.08-5.11l-1.3,0h-.35A51.17,51.17,0,0,1,67,78.13c-.38,2-.58,2.92-1,4.84-2.79-.42-4.26-.72-7.21-1.33h0l0,0a.06.06,0,0,0,0,0L55,80.82l-.38-.08c-1.23-.26-2.46-.53-4.09-.86-1.63-3.87-2.47-5.77-4.11-9.51A8.33,8.33,0,0,0,45.07,68a3,3,0,0,0-1.72-.93l-.61-.1c.11,4.58.16,6.87.23,11.61-.95-.13-1.73-.23-2.44-.3l-.4,0h0a36.36,36.36,0,0,0-4-.14V48.92l.64.13.39.07.34.06c2.75.52,4.51.84,7.37,1.29l2,.31a24.43,24.43,0,0,1,2.58.52l.33.09a10.69,10.69,0,0,1,2.07.78l.09,0,.23.13a7.28,7.28,0,0,1,2.7,2.89,10.83,10.83,0,0,1,1.25,4.87,8.81,8.81,0,0,1-.67,4.07,5.43,5.43,0,0,1-2.19,2.46,5.07,5.07,0,0,1-1.07.43l-.33.08a10.64,10.64,0,0,1-1.12.17A14.07,14.07,0,0,1,52,68.1h0c.14.1.26.2.38.3l.34.31a13.24,13.24,0,0,1,1.23,1.73,14.57,14.57,0,0,1,1.09,2c1.55,3.62,2.32,5.47,3.76,9.15,2.89-9.52,5.13-19.25,7.61-28.88,1.15,0,2,0,2.84,0h.35c.79,0,1.51,0,2.33-.08l.34,0,.63,0c2.38,10.42,5.58,20.77,8.9,30.91a47.5,47.5,0,0,1-6.69.18ZM97.68,62.44A11.22,11.22,0,0,1,96,65.64a9.63,9.63,0,0,1-2.78,2.45l-.37.21-.36.18A29.26,29.26,0,0,1,89,69.89c.21,1.35.39,2.52.55,3.59.06.34.11.67.15,1,.26,1.73.47,3.29.68,5.12h0a1,1,0,0,1,0,.17c0,.23.06.46.08.7s.09.77.13,1.18l-.55.2-.31.1-.09,0a27.65,27.65,0,0,1-5.79,1.3c-.78-10.53-2.23-21-3.15-31.5,1.54-.28,2.73-.53,3.94-.84,1.45-.39,2.93-.88,5.07-1.67a10.44,10.44,0,0,1,3.06-.68h.35A4.84,4.84,0,0,1,95.2,49c1.45.72,2.46,2.23,3,5a16,16,0,0,1-.53,8.39Z"></path>
        <path class="cls-5" d="M58.92,81.58s0,0,0,0h0a.08.08,0,0,1,0,0Z"></path>
        <path class="cls-5" d="M58.92,81.58s0,0,0,0h0a.08.08,0,0,1,0,0Z"></path>
      </g>
    </g>
  </g>
</svg>
