<?xml version="1.0" encoding="UTF-8"?>
<svg xmlns="http://www.w3.org/2000/svg" viewBox="0 0 199.3 53.9">
  <defs>
    <style>.cls-1{fill:#1b1919;}.cls-2{fill:#da322b;}</style>
  </defs>
  <g id="Layer_2" data-name="Layer 2">
    <g id="Layer_1-2" data-name="Layer 1">
      <path class="cls-1" d="M0,21c.5-.82,1.06-1.6,1.49-2.45s.77-1.05,1.52-.31a6,6,0,0,0,2.78,1.55,2,2,0,0,0,2.44-.8A2.38,2.38,0,0,0,8,16.14a4.52,4.52,0,0,0-1.4-1.09c-.71-.39-1.44-.75-2.15-1.15A7.54,7.54,0,0,1,1.24,3.71,6.37,6.37,0,0,1,9.16.35,7.72,7.72,0,0,1,10.4.82c3.15,1.48,3.4,2.64,1.26,5.36-.41.52-.67.27-1,0A6.86,6.86,0,0,0,8.11,4.9a2,2,0,0,0-2.34.79A2.33,2.33,0,0,0,6,8.57a5.08,5.08,0,0,0,1.15.86c.67.39,1.38.71,2.07,1.06a7.73,7.73,0,0,1,3.59,10.63c-1.41,3-4.72,4.28-8.21,3.25a11.81,11.81,0,0,1-4.6-3Z"></path>
      <path class="cls-2" d="M61.14,41.75c0,3.48,0,7,0,10.44,0,1.07-.28,1.48-1.37,1.37a13,13,0,0,0-2.33,0c-.87.06-1.16-.25-1.15-1.14,0-3.52,0-7,0-10.56s0-7.12,0-10.67c0-1,.29-1.23,1.21-1.18A32.89,32.89,0,0,0,61,30c.69,0,1,.23,1.16.87,1.14,3.55,2.33,7.09,3.5,10.64a1.72,1.72,0,0,0,.44.78V35.62c0-1.55,0-3.11,0-4.66,0-.75.23-1,.95-.94,1,.05,1.93,0,2.89,0,.68,0,.93.21.89.89,0,.85,0,1.71,0,2.56,0,6.3,0,12.6,0,18.9,0,.91-.23,1.26-1.17,1.19a26.59,26.59,0,0,0-3.34,0c-.83.06-1.15-.28-1.39-1.05-1-3.31-2.14-6.61-3.22-9.91l-.31-.9Z"></path>
      <path class="cls-2" d="M163.05,42.29c0-3.7,0-7.4,0-11.09,0-.91.22-1.27,1.16-1.19a19.83,19.83,0,0,0,2.67,0c.65,0,.92.17.92.87q0,10.89,0,21.78c0,.61-.2.89-.82.88-1.34,0-2.67,0-4,0-.69,0-.86-.38-1-.92-1.08-3.38-2.19-6.75-3.3-10.12-.12-.36-.12-.8-.5-1.07,0,3.58,0,7.15,0,10.72,0,1-.24,1.51-1.35,1.39a21.85,21.85,0,0,0-2.56,0c-.64,0-.92-.19-.92-.89q0-10.89,0-21.78c0-.72.3-.87.94-.86,1.26,0,2.52.05,3.78,0,.66,0,.88.29,1.06.84,1.15,3.55,2.33,7.1,3.5,10.64.09.28.19.55.29.82Z"></path>
      <path class="cls-1" d="M107.85,15.22c.44-1,.84-1.85,1.14-2.72.2-.56.46-.68,1-.44.88.38,1.76.76,2.66,1.1.55.21.6.51.43,1a15.11,15.11,0,0,1-1.83,3.9,1.28,1.28,0,0,0,.12,1.82c1,1.13,1.8,2.34,2.69,3.53.15.2.41.39.3.67s-.5.26-.78.26c-1.44,0-2.89,0-4.33,0-.7,0-1-.39-1.28-.87-.38-.65-.7-.84-1.41-.29a7.07,7.07,0,0,1-4,1.47,6.54,6.54,0,0,1-6.65-6.24,8.09,8.09,0,0,1,2.43-6.86,1,1,0,0,0,.17-1.41,7.9,7.9,0,0,1-.81-6.31,5.1,5.1,0,0,1,10,.89,6.92,6.92,0,0,1-2,6.29c-.46.46-.52.75-.09,1.27C106.38,13.2,107,14.14,107.85,15.22Zm-6.22-.4a4,4,0,0,0-1.09,3.12,2.05,2.05,0,0,0,1.28,2,2.83,2.83,0,0,0,2.59-.61c.29-.2.22-.4,0-.65C103.51,17.43,102.59,16.15,101.63,14.82Zm.83-6.9a2.77,2.77,0,0,0,1.1-2.33c0-.62-.13-1.37-1-1.35s-.89.69-.94,1.3A3.15,3.15,0,0,0,102.46,7.92Z"></path>
      <path class="cls-1" d="M150.81,12.39c0-3.63,0-7.26,0-10.89,0-1,.31-1.2,1.21-1.16,2,.09,4.07-.08,6.11.13a5.22,5.22,0,0,1,5,4.86c.29,2.12.17,4.15-1.29,5.88-.26.31-.16.43.09.69a7.75,7.75,0,0,1,1.59,8.79,5.7,5.7,0,0,1-5.06,3.6c-2.29.14-4.6,0-6.89.1-.8,0-.78-.44-.78-1C150.82,19.72,150.81,16.06,150.81,12.39ZM159.14,17c0-2.09-.8-2.87-2.81-2.76-.49,0-.62.19-.61.65,0,1.37,0,2.74,0,4.11,0,.5.18.6.65.62C158.39,19.76,159.13,19.08,159.14,17Zm-3.42-9.57a5.87,5.87,0,0,0,0,1.11c.08.41-.37,1.06.3,1.22a1.58,1.58,0,0,0,1.9-.77A3.75,3.75,0,0,0,158,5.91c-.33-.85-1.16-.88-1.89-.79s-.31.81-.4,1.24A5,5,0,0,0,155.72,7.46Z"></path>
      <path class="cls-1" d="M185.25,12.32c0-3.63,0-7.26,0-10.89,0-.8.19-1.12,1-1.09,1.93.07,3.86,0,5.78.09a6.45,6.45,0,0,1,6.2,6c.36,3.08-.06,5.93-2.6,8.07-.45.38-.12.67,0,1,1.13,2.61,2.25,5.22,3.43,7.81.37.82.27,1.14-.69,1.1-1.19-.05-2.38-.05-3.56,0-.69,0-1-.26-1.2-.86-.81-2.22-1.66-4.42-2.54-6.62-.15-.36-.12-1.08-.69-.95s-.23.76-.24,1.17c0,2.07-.05,4.15,0,6.22,0,.88-.32,1.09-1.11,1a19.84,19.84,0,0,0-2.78,0c-.84.06-1.07-.24-1.07-1.06C185.28,19.66,185.25,16,185.25,12.32Zm8.13-4.2c0-2.15-.84-3.11-2.59-3-.47,0-.64.16-.63.64,0,1.62,0,3.24,0,4.86,0,.53.23.58.66.6C192.59,11.24,193.39,10.3,193.38,8.12Z"></path>
      <path class="cls-1" d="M14.88,13.67c0-4.19.54-6.92,2-9.39,3.42-5.65,10.31-5.75,13.59,0a15.54,15.54,0,0,1-.09,16.39c-3.27,5.55-10,5.45-13.41,0A14.38,14.38,0,0,1,14.88,13.67Zm12.69-.8a12.66,12.66,0,0,0-1.17-6c-.59-1-1.29-1.93-2.62-1.94a2.86,2.86,0,0,0-2.69,2,12.92,12.92,0,0,0,0,10.94,2.86,2.86,0,0,0,2.69,2,3,3,0,0,0,2.67-2A11.44,11.44,0,0,0,27.57,12.87Z"></path>
      <path class="cls-1" d="M183.2,12.31a15.14,15.14,0,0,1-2.06,8.18c-3.45,5.65-10.3,5.73-13.58,0a15.63,15.63,0,0,1-.07-16.11c3.31-5.89,10.34-5.77,13.78.06A15.41,15.41,0,0,1,183.2,12.31Zm-5,0a11.88,11.88,0,0,0-1.25-5.62c-1.44-2.47-3.87-2.53-5.14,0a12.55,12.55,0,0,0,0,11.22,2.79,2.79,0,0,0,2.65,1.87A3,3,0,0,0,176.93,18,12.08,12.08,0,0,0,178.16,12.35Z"></path>
      <path class="cls-2" d="M36.42,41.73a14.09,14.09,0,0,1,2.68-8.86c3.33-4.32,8.93-4.26,12.15.15,2.28,3.12,2.82,6.7,2.49,10.45a13.79,13.79,0,0,1-2.22,6.66c-3.35,5-9.44,5-12.8,0A14.51,14.51,0,0,1,36.42,41.73Zm12.37.07a11,11,0,0,0-1-5.18c-.56-1.12-1.29-2.14-2.73-2.12a2.9,2.9,0,0,0-2.62,2.09,12.75,12.75,0,0,0,0,10.34,2.91,2.91,0,0,0,2.72,2.12c1.43,0,2.14-1,2.69-2.17A11,11,0,0,0,48.79,41.8Z"></path>
      <path class="cls-2" d="M105.7,41.72c0-3.48,0-7,0-10.44,0-1.08.34-1.32,1.32-1.27,1.44.07,2.89,0,4.33,0,4.45,0,7.12,2.61,7.26,7.06.08,2.58-.5,4.94-2.56,6.7-.45.39-.24.69-.08,1.06,1.09,2.5,2.19,5,3.28,7.52.46,1.06.39,1.17-.8,1.17s-2.23,0-3.34,0a1,1,0,0,1-1.14-.8c-.85-2.28-1.74-4.55-2.63-6.82-.11-.29-.12-.77-.57-.65s-.18.52-.18.79c0,2.15,0,4.3,0,6.44,0,.78-.25,1.07-1,1a19.82,19.82,0,0,0-2.67,0c-.91.07-1.21-.23-1.2-1.17C105.73,48.83,105.7,45.28,105.7,41.72Zm8-4c0-2-.79-3-2.42-3-.52,0-.73.13-.72.68q0,2.28,0,4.56c0,.57.24.65.73.66C112.89,40.58,113.66,39.67,113.68,37.68Z"></path>
      <path class="cls-1" d="M141.07.35c2.72,0,2.71,0,3.34,2.59,1.64,6.79,3.27,13.59,5,20.37.23.91,0,1.11-.85,1.08-1.11-.05-2.22,0-3.34,0-.62,0-.92-.15-1-.84-.2-1.31-.55-2.6-.77-3.91-.09-.53-.26-.76-.83-.73-1,0-2.08,0-3.12,0-.53,0-.77.11-.86.7-.18,1.28-.52,2.54-.72,3.82-.11.71-.38,1-1.14,1-.93-.06-1.86,0-2.78,0-1.35,0-1.36,0-1.05-1.28q2.12-8.85,4.25-17.68c.33-1.37.74-2.72,1-4.1.15-.82.53-1,1.28-1C140,.39,140.51.35,141.07.35Zm0,7.43-.15,0c-.31,1.59-.63,3.18-.93,4.77-.32,1.75-.32,1.72,1.42,1.75.73,0,1-.15.81-.91C141.76,11.54,141.41,9.66,141,7.78Z"></path>
      <path class="cls-1" d="M67.73.35C70.37.35,70.37.36,71,3c1.64,6.75,3.27,13.5,4.95,20.24.23.91.09,1.21-.87,1.16a28.82,28.82,0,0,0-3.22,0c-.76,0-1-.25-1.14-1-.16-1.21-.48-2.39-.67-3.6-.11-.72-.42-1-1.16-.91a14.72,14.72,0,0,1-1.88,0c-1.7,0-1.7,0-2,1.61-.14.73-.28,1.45-.43,2.18-.33,1.67-.33,1.67-2,1.67H60.5c-1.26,0-1.29-.06-1-1.24l2.64-11C63,8.59,63.9,5.05,64.69,1.48,64.9.55,65.28.23,66.18.34A11.44,11.44,0,0,0,67.73.35Zm0,7.71h-.25l-1.14,5.8c0,.24,0,.44.3.44h2c.22,0,.32-.1.27-.35Z"></path>
      <path class="cls-2" d="M132.79,40.54c1.07,0,2.15,0,3.22,0,.54,0,.84.15.83.75a20.35,20.35,0,0,1-1.56,8.34,6.92,6.92,0,0,1-12.25,1c-2.17-3.13-2.61-6.71-2.33-10.4a14.07,14.07,0,0,1,2.42-7.17,7.58,7.58,0,0,1,11.87-1c.5.49.66.89.23,1.51s-.78,1.85-1.48,2.31c-.9.59-1.5-.69-2.3-1-1.92-.77-3.66-.42-4.56,1.43a12.79,12.79,0,0,0,0,11.35,2.28,2.28,0,0,0,2.19,1.46,2.46,2.46,0,0,0,2.16-1.67c.08-.17.14-.34.21-.51.66-1.91.58-2.09-1.42-2-1.16.06-1.43-.33-1.4-1.44.07-3,0-3,3-3Z"></path>
      <path class="cls-2" d="M139.07,41.67c0-3.48.05-7,0-10.44,0-1,.31-1.24,1.26-1.22,3.07.06,6.15,0,9.22,0,.86,0,1.11.28,1.06,1.09a26.42,26.42,0,0,0,0,2.67c0,.72-.25,1-1,.95-1.55,0-3.11.05-4.66,0-.88,0-1.08.26-1,1.06a16.87,16.87,0,0,1,0,2.66c-.06.82.26,1,1,1,1.26-.06,2.52,0,3.78,0,.7,0,1.05.19,1,.94-.12,1.2.51,2.71-.29,3.52s-2.19.2-3.33.22c-2.13,0-2.13,0-2.13,2.13,0,2.67,0,2.67,2.71,2.67,1,0,2.08,0,3.11,0,.64,0,1,.15.93.87a27.86,27.86,0,0,0,0,2.89c0,.72-.21,1-.94,1-3.23,0-6.45,0-9.67,0-.87,0-1-.33-1-1.12C139.1,48.85,139.07,45.26,139.07,41.67Z"></path>
      <path class="cls-2" d="M91.43,41.76c0-3.56,0-7.12,0-10.67,0-.81.19-1.09,1-1.08,3.15,0,6.3,0,9.45,0,.69,0,1,.14,1,.91-.06,1,0,1.93,0,2.89,0,.67-.22.92-.9.9-1.63,0-3.26,0-4.89,0-.62,0-.85.16-.82.81,0,1,0,2.07,0,3.11,0,.58.2.77.78.75,1.37,0,2.74,0,4.11,0,.61,0,.88.18.86.82q0,1.5,0,3c0,.69-.29.89-.94.88-1.33,0-2.67,0-4,0-.65,0-.83.21-.81.83,0,1,0,2.07,0,3.11,0,.66.16.91.86.89,1.67-.05,3.34,0,5,0,.65,0,.93.19.9.89,0,1,0,2,0,3,0,.54-.14.83-.74.83-3.37,0-6.74,0-10.11,0-.79,0-.77-.46-.77-1C91.44,48.94,91.43,45.35,91.43,41.76Z"></path>
      <path class="cls-2" d="M186.84,41.78c0-3.52,0-7,0-10.56,0-1,.31-1.23,1.26-1.21,3.08.06,6.15,0,9.23,0,.78,0,1.06.22,1,1a19.68,19.68,0,0,0,0,2.66c.07.87-.3,1.07-1.1,1-1.51,0-3,0-4.55,0-.75,0-1.07.15-1,1a25.33,25.33,0,0,1,0,2.89c0,.63.2.84.83.82,1.37,0,2.74,0,4.11,0,.63,0,.87.21.83.84-.08,1.21.47,2.74-.21,3.56S195,44,193.8,44c-2.15,0-2.15,0-2.15,2.15,0,2.66,0,2.66,2.64,2.66,1.11,0,2.22,0,3.33,0,.61,0,.83.22.86.85.19,3.87.21,3.87-3.62,3.87-2.26,0-4.52,0-6.78,0-1,0-1.28-.23-1.27-1.24C186.88,48.81,186.84,45.3,186.84,41.78Z"></path>
      <path class="cls-2" d="M81.26,43.43q.54-2.58,1.07-5.17c.51-2.46,1-4.92,1.5-7.39.12-.64.36-.88,1-.85q1.5.06,3,0c.8,0,1,.17.82,1-1.5,6-3,12.06-4.43,18.09-.29,1.19-.59,2.37-.85,3.56a.93.93,0,0,1-1,.87c-3.28.11-3.28.14-4.06-3.08C76.71,44,75.16,37.55,73.55,31.1c-.22-.9,0-1.12.86-1.08a27.86,27.86,0,0,0,2.89,0c.8-.05,1.15.16,1.31,1,.77,4.13,1.64,8.24,2.48,12.35Z"></path>
      <path class="cls-1" d="M40.44,12.76a11.58,11.58,0,0,0,.68,4c1.17,3.16,3.53,3.92,6.29,2,1.21-.83,1.21-.83,1.94.44l.5.87c1,1.71,1,1.79-.69,3a7.79,7.79,0,0,1-11.64-2.27c-3-4.73-2.86-12.65.34-17.2A7.75,7.75,0,0,1,50.07,2.52c.47.47.61.85.21,1.43A25.24,25.24,0,0,0,49,6.14c-.28.54-.58.57-1,.19a6.93,6.93,0,0,0-1.19-.81A3.46,3.46,0,0,0,41.53,7,11.83,11.83,0,0,0,40.44,12.76Z"></path>
      <path class="cls-2" d="M25.21,41.76a14.4,14.4,0,0,0,.74,4.4c1.18,3,3.46,3.68,6.09,1.85,1.2-.83,1.2-.83,1.91.41.17.28.33.57.5.86,1,1.7.95,1.82-.71,3-4.06,2.8-8.65,1.93-11.3-2.15-3-4.61-2.91-12.35.23-16.88A7.57,7.57,0,0,1,34.6,32.05c.56.53.67,1,.22,1.6a15.22,15.22,0,0,0-1.13,1.91c-.32.6-.65.71-1.2.26-3.12-2.6-6-1.33-6.91,2.79A22.89,22.89,0,0,0,25.21,41.76Z"></path>
      <path class="cls-2" d="M174.7,41.78a13.79,13.79,0,0,0,.77,4.45c1.17,2.91,3.45,3.6,6,1.8,1.22-.85,1.22-.85,2,.46.19.32.37.64.55,1,.87,1.52.87,1.52-.49,2.58a7.65,7.65,0,0,1-11.65-2c-3-4.59-2.83-12.33.26-16.8,3.36-4.86,8.64-4.23,12-1.13.47.44.71.85.23,1.41a1.67,1.67,0,0,0-.18.28c-.46.76-.76,1.81-1.44,2.18s-1.37-.73-2.13-1.07a3.39,3.39,0,0,0-4.79,1.59A11.85,11.85,0,0,0,174.7,41.78Z"></path>
      <path class="cls-1" d="M120,12.35c0-3.59,0-7.19,0-10.78,0-1,.31-1.31,1.27-1.23a18.3,18.3,0,0,0,2.67,0c.84-.06,1.07.28,1.06,1.09,0,5.71,0,11.42,0,17.12,0,.88.22,1.13,1.09,1.09,1.51-.07,3,0,4.56,0,.64,0,1,.14.92.86,0,1,0,2.07,0,3.11,0,.56-.14.81-.74.8-3.34,0-6.68,0-10,0-.8,0-.76-.49-.76-1Z"></path>
      <path class="cls-1" d="M78,12.39c0-3.63,0-7.26,0-10.89,0-.84.18-1.23,1.1-1.16a15.87,15.87,0,0,0,2.67,0c1-.1,1.21.34,1.21,1.28,0,5.67,0,11.33,0,17,0,.85.22,1.06,1,1,1.52-.07,3,0,4.56,0,.71,0,1,.17,1,.92-.11,1.24.51,2.82-.27,3.63s-2.26.19-3.43.2c-2.26,0-4.52,0-6.78,0-.78,0-1-.22-1-1C78.06,19.72,78,16.05,78,12.39Z"></path>
      <path class="cls-1" d="M57.46,12.5c0,3.63,0,7.26,0,10.89,0,.78-.23,1-1,1-1-.06-2.07,0-3.11,0-.59,0-.86-.14-.86-.81q0-11.22,0-22.44c0-.59.23-.79.78-.78,1,0,2,.06,3,0s1.22.21,1.2,1.16C57.43,5.17,57.46,8.83,57.46,12.5Z"></path>
    </g>
  </g>
</svg>
