<?xml version="1.0" encoding="UTF-8"?>
<svg xmlns="http://www.w3.org/2000/svg" viewBox="0 0 141.57 44.39">
  <defs>
    <style>.cls-1{fill:#636468;}.cls-2{fill:#e11a58;}.cls-3{fill:#9d9ea2;}.cls-4{fill:#383838;}</style>
  </defs>
  <g id="Layer_2" data-name="Layer 2">
    <g id="Layer_1-2" data-name="Layer 1">
      <path class="cls-1" d="M122.25,20.6A10.3,10.3,0,1,1,123.14.07a10,10,0,0,1,8.41,6.4c.17.37.26.56-.31.71a9.33,9.33,0,0,0-6.8,11.3c.09.35.2.69.32,1,.23.62.1.76-.47.85A10.83,10.83,0,0,1,122.25,20.6Z"></path>
      <path class="cls-2" d="M133.51,24.31a8.06,8.06,0,1,1,8.06-8v.08A8,8,0,0,1,133.51,24.31Z"></path>
      <path class="cls-3" d="M124,32.57a5.23,5.23,0,1,1,5.21-5.24v0a5.2,5.2,0,0,1-5.2,5.22Z"></path>
      <path class="cls-4" d="M17.11,29.19a39.65,39.65,0,0,0-4.75-1.5A14.93,14.93,0,0,1,8,26.16a2.55,2.55,0,0,1-1.2-3.07A2.86,2.86,0,0,1,9.26,21c3.31-.64,6.23.39,8.94,2.23.33.22.45.28.66-.12q.93-1.8,1.95-3.57c.19-.33.12-.47-.19-.66a19.69,19.69,0,0,0-3.56-1.77A14.28,14.28,0,0,0,6,17.14a8.1,8.1,0,0,0-4.57,9.63C2,29.19,3.82,30.4,6,31.28s4.22,1.3,6.32,2a8.19,8.19,0,0,1,3.05,1.49,2.52,2.52,0,0,1,.32,3.55,2.47,2.47,0,0,1-1,.72,6,6,0,0,1-2.29.47,15.43,15.43,0,0,1-9.52-3.06c-.45-.31-.54-.2-.74.2C1.42,38,.7,39.33,0,40.68v.14a1.35,1.35,0,0,0,.47.51A21.44,21.44,0,0,0,3,42.69a19.79,19.79,0,0,0,6.46,1.7h4.13c1-.32,2-.38,3-.72A7.45,7.45,0,0,0,22,36.58C22.09,32.92,20.59,30.62,17.11,29.19Z"></path>
      <path class="cls-4" d="M128.35,41.26a2.22,2.22,0,0,0-4.19,1.4,2.69,2.69,0,0,0,1.54,1.72h1.14l.56-.28A2.23,2.23,0,0,0,128.35,41.26Zm-2.07,2.82a1.92,1.92,0,1,1,1.94-1.9v0A1.93,1.93,0,0,1,126.28,44.08Z"></path>
      <path class="cls-4" d="M116.44,32.55c-2-5.22-4-10.42-5.92-15.64a.88.88,0,0,0-1-.69,28.47,28.47,0,0,1-3.2,0c-.68,0-.93.2-1.16.81q-4.29,11.34-8.64,22.68c-.54,1.43-1.07,2.87-1.64,4.37,1.72,0,3.36,0,5,0a.7.7,0,0,0,.79-.59c.69-1.95,1.42-3.87,2.12-5.82a.72.72,0,0,1,.8-.57q4.29,0,8.56,0a.68.68,0,0,1,.76.53c.71,2,1.46,3.92,2.17,5.88a.71.71,0,0,0,.81.57c1.42,0,2.8,0,4.21,0,.78,0,.78,0,.49-.76Zm-5.24.77c-2.38,0-4.76,0-7.14,0,0,0-.08,0-.16-.08,1.29-3.54,2.59-7.1,3.95-10.81.44,1.25.85,2.36,1.22,3.47l2.4,6.85C111.57,33,111.77,33.32,111.2,33.32Z"></path>
      <path class="cls-4" d="M98.92,21c.51,0,.7-.09.68-.65,0-1.16,0-2.33,0-3.49,0-.19.13-.43-.13-.57s-.28,0-.42,0H76.82c-.33-.05-.39.12-.38.41,0,1.4,0,2.8,0,4.2.17.26.43.12.64.12,2.52,0,5,0,7.55,0,.53,0,.67.12.67.67,0,5.22,0,10.44,0,15.66V43.5c0,.46.1.62.58.6,1.42,0,2.85,0,4.28,0,.15,0,.33.07.45-.1h0c.16-.24.07-.51.07-.76V21.71c0-.6.16-.74.75-.73C93.93,21,96.42,21,98.92,21Z"></path>
      <path class="cls-4" d="M74.45,39.46c-.37-.4-1.21-.12-1.84-.12-4,0-7.89,0-11.83,0h0c-.23-.22-.13-.49-.13-.74V32.12c.29,0,.57,0,.85,0H71.74c.2,0,.55.23.6-.23,0-1.16,0-2.32,0-3.48,0-.6-.19-.69-.72-.69-3.47,0-6.93,0-10.4,0-.51,0-.63-.14-.62-.63,0-1.76,0-3.52,0-5.27,0-.64.12-.83.8-.83,4.06,0,8.12,0,12.17,0,.45,0,.62-.09.6-.57,0-1.33,0-2.65,0-4-.06-.31-.3-.18-.46-.18q-9,0-18,0c-.41,0-.52.12-.52.52q0,13.41,0,26.81c0,.4.1.52.51.52H74.08c.37,0,.49-.09.48-.47,0-.78,0-1.57,0-2.35S74.75,39.81,74.45,39.46Z"></path>
      <path class="cls-4" d="M51.63,16.25c-1.57,0-3.14,0-4.71,0-.19,0-.44-.11-.56.17s-.21.31-.3.48L38.41,31.47c-.08.17-.11.39-.34.5l-.13-.21q-3.87-7.46-7.73-14.92a1,1,0,0,0-1-.61c-1.48,0-2.95.05-4.42,0-.61,0-.68.19-.68.72q0,13.13,0,26.24c0,.21,0,.43,0,.64V44c.15.26.39.12.57.12,1.33,0,2.66,0,4,0,.63,0,.84-.11.83-.8,0-5.56,0-11.12,0-16.68V26a1.59,1.59,0,0,1,.43.56c1.88,3.6,3.74,7.2,5.64,10.79.36.69.53,1.66,1.17,2s1.53.06,2.31.1a.74.74,0,0,0,.81-.5q3.28-6.33,6.59-12.63c.06-.12,0-.34.31-.32V37.49c0,2.11,0,4.23,0,6.34h0c0,.33.2.25.37.25H51.7c.42,0,.45-.18.45-.51V16.78C52.19,16.32,52.05,16.23,51.63,16.25Z"></path>
      <path class="cls-4" d="M126.77,41c-1.07-.28-1.35-.07-1.34,1v.92c0,.17-.09.44.21.43s.18-.29.21-.44-.1-.42.15-.49a.78.78,0,0,1,.68.09c.2.15.18.37.2.58s.07.29.25.26.14-.16.14-.29,0-.32,0-.41a.54.54,0,0,1,0-.8C127.48,41.51,127.27,41.09,126.77,41Zm-.47,1.14c-.31,0-.52-.05-.44-.42s0-.5.4-.46.61,0,.62.41-.28.44-.58.47Z"></path>
    </g>
  </g>
</svg>
