<?xml version="1.0" encoding="UTF-8"?>
<svg xmlns="http://www.w3.org/2000/svg" viewBox="0 0 92.54 94.28">
  <defs>
    <style>.cls-1{fill:#e0020a;}</style>
  </defs>
  <g id="Layer_2" data-name="Layer 2">
    <g id="Layer_1-2" data-name="Layer 1">
      <path class="cls-1" d="M92.54,47.61c-.42,0-.84.08-1.26.09l-6.59.23h-.45l-.13-1.23,6.65-.24v-.11l-6.56-.68c-.06-.11-.08-.13-.08-.15-.13-1.18-.13-1.18,1-1.38l4.61-.8c.26,0,.51-.11.86-.18H84.1a.07.07,0,0,1,0-.06C83.94,42,83.94,42,85,42l7.22-.18V44l-6,1,6,.45.2,1.82Z"></path>
      <path class="cls-1" d="M54.92,15.41a24.74,24.74,0,0,1,6.32,2.39A30.67,30.67,0,0,1,75.77,33.94,29.52,29.52,0,0,1,77.6,42a31.76,31.76,0,0,1-2,14.74C71.72,66.71,64.76,73.4,54.3,76.07a31.21,31.21,0,0,1-23.11-2.66A30.36,30.36,0,0,1,17.06,57.34a33.18,33.18,0,0,1-2.44-14.8,8.59,8.59,0,0,1,.17-1.21,2.36,2.36,0,0,1,0,.37A23.71,23.71,0,0,0,21.6,60.23a25.56,25.56,0,0,0,12.29,7,29.75,29.75,0,0,0,10,.81c12.57-1,23.35-9,27.37-20.33a25.17,25.17,0,0,0,1.44-10.67,23.6,23.6,0,0,0-6.52-14.7A26.11,26.11,0,0,0,55.45,15.6Z"></path>
      <path class="cls-1" d="M44.47,57.63A21.84,21.84,0,0,1,47.22,46.5a9.79,9.79,0,0,1,2.68-3.08c2.43-1.71,5.14-1,6.27,1.72a12.63,12.63,0,0,1,.89,3.62,22.77,22.77,0,0,1-2,11.53,9.46,9.46,0,0,1-3.1,4,4.94,4.94,0,0,1-4.24.74,3.72,3.72,0,0,1-2.43-2.24A12.1,12.1,0,0,1,44.47,57.63Z"></path>
      <path class="cls-1" d="M51.06,19.66a33,33,0,0,0-5.74-3.13,18.53,18.53,0,0,1,6.24,2.26l.49-.83c0,.07,0,.11,0,.13-.21.88-.21.88.55,1.39A24.88,24.88,0,0,1,58.43,25c.1.14.21.28.32.41s.07,0,.21.11l1.79-3.11.12,0c-.41,1.11-.79,2.23-1.26,3.31a.92.92,0,0,0,.1,1,23.29,23.29,0,0,1,1.72,2.94l-2.34-2.83c-.5.72-.93,1.38-1.4,2a25.7,25.7,0,0,1-5.07,5,.61.61,0,0,0-.22.86c.48,1.16.91,2.35,1.28,3.56l-2-3.73A32.11,32.11,0,0,1,34.3,40.56l.9,3.55-.11,0c-.38-1-.8-1.94-1.15-2.93a.89.89,0,0,0-1-.7,25,25,0,0,1-8.62-1.74l-.7-.27-.24,6.17c-.08-.57-.18-1-.21-1.47-.12-1.57-.21-3.14-.35-4.71a.78.78,0,0,0-.33-.52c-.33-.22-.71-.38-1-.63l1.37.52c.06-.75.1-1.44.17-2.12s.15-1.42.27-2.12.24-1.36.41-2,.46-1.32.58-2A7.89,7.89,0,0,1,25,27.89,18,18,0,0,1,26,26a19.91,19.91,0,0,1,1.13-1.74,9.13,9.13,0,0,1,1.39-1.54c-.23.42-.49.82-.68,1.25-.73,1.65-1.44,3.31-2.16,5-.17.38-.05.54.34.65a21.2,21.2,0,0,0,5.42.79c.45,0,.57-.13.6-.58a20.53,20.53,0,0,1,2.06-7.94l.18-.23A31.94,31.94,0,0,0,33.1,30.3a23.8,23.8,0,0,0,12.33-4.65,40.57,40.57,0,0,0-6.68-6.16c.67.34,1.36.66,2,1s1.36.82,2,1.27,1.23.94,1.81,1.44,1.14,1.09,1.76,1.67A20.81,20.81,0,0,0,51.06,19.66Zm-5,6.7-.19.07-.48.33a22.94,22.94,0,0,1-11.84,4.17c-.42,0-.49.19-.45.53.29,2.5.59,5,.86,7.5.06.65.36.78.91.62a.63.63,0,0,1,.23,0,31.21,31.21,0,0,0,12.66-3.92C48.88,35,50,34.29,51.1,33.58A51.07,51.07,0,0,0,46.06,26.36ZM51.64,33c.1,0,.14,0,.17,0a30.35,30.35,0,0,0,6.45-6.5c.21-.28.08-.45-.12-.63-1.36-1.31-2.69-2.64-4.09-3.91-.79-.72-1.67-1.34-2.58-2.05a17.51,17.51,0,0,1-4.54,5.71A33.38,33.38,0,0,1,51.64,33ZM25.42,29.75a1.61,1.61,0,0,0-.09.21,44.89,44.89,0,0,0-1.57,7.78c-.05.41.14.53.47.63a28.25,28.25,0,0,0,8.46,1.31,2.8,2.8,0,0,0,.59-.08.41.41,0,0,0,0-.17A27.53,27.53,0,0,1,32,31.33c0-.36-.23-.38-.5-.4a15.63,15.63,0,0,1-2.06-.21C28.08,30.44,26.77,30.09,25.42,29.75Z"></path>
      <path class="cls-1" d="M45.84,89.14c1.68.86,2.1,2,1.47,3.58a2.42,2.42,0,0,1-2.43,1.56,12.74,12.74,0,0,1-3.37-.34A2.64,2.64,0,0,1,40,90a6.57,6.57,0,0,1,1.45-1.24s0,0-.1-.08A1.7,1.7,0,0,1,40.18,87a2.19,2.19,0,0,1,1.1-2.14,6.17,6.17,0,0,1,5.53.4,2.2,2.2,0,0,1,.76,2.29A1.71,1.71,0,0,1,46.11,89,1.61,1.61,0,0,0,45.84,89.14ZM42.6,91.39c0,.26,0,.39,0,.53.1.59.42.9.93.91a.91.91,0,0,0,.93-.91,6.28,6.28,0,0,0,0-1.37.78.78,0,0,0-.82-.73.81.81,0,0,0-.91.62C42.69,90.79,42.65,91.15,42.6,91.39Zm.4-4.16h0v.29a.81.81,0,0,0,1.61.16,2.54,2.54,0,0,0,0-1.13A1.05,1.05,0,0,0,44,86a1.09,1.09,0,0,0-.76.44A2.3,2.3,0,0,0,43,87.23Z"></path>
      <path class="cls-1" d="M24.22,89l6.29-8c1.09.44,2.2.87,3.29,1.34.12.06.21.38.19.56-.12,1.53-.27,3.07-.42,4.6s-.31,3.1-.47,4.65c0,.1,0,.21-.05.38-.93-.36-1.82-.7-2.7-1.08-.1,0-.16-.28-.14-.41.06-.45.16-.9.25-1.4l-2.35-.93-1,1.47Zm7.36-5.3-.19-.07L29.1,87.07l1.74.7Z"></path>
      <path class="cls-1" d="M70.19,87.29a7.24,7.24,0,0,1-1.64-.76,10,10,0,0,1-3.34-5,2.39,2.39,0,0,1,.46-2.23,6.21,6.21,0,0,1,3-2.06,2.4,2.4,0,0,1,2.36.4A9.4,9.4,0,0,1,74.5,83a2.58,2.58,0,0,1-.14,1.34C73.91,85.61,71.61,87.14,70.19,87.29Zm2.08-2.92a5.86,5.86,0,0,0-.42-1c-.79-1.19-1.57-2.37-2.4-3.53-.57-.81-1-1-1.56-.58s-.54.85,0,1.68c.74,1.12,1.5,2.23,2.27,3.33a1.82,1.82,0,0,0,.63.66,1.27,1.27,0,0,0,.9,0C71.93,84.91,72.08,84.59,72.27,84.37Z"></path>
      <path class="cls-1" d="M57.05,90a3.2,3.2,0,0,1-2.87,3.6,10.53,10.53,0,0,1-1.77.19,2.59,2.59,0,0,1-2.62-1.64,10.35,10.35,0,0,1-.88-5.62,2.52,2.52,0,0,1,1.8-2.2,10.06,10.06,0,0,1,2.36-.46A2.84,2.84,0,0,1,56.26,86a7.42,7.42,0,0,1,.36,1.22C56.78,88.13,56.91,89.05,57.05,90Zm-2.78,1.22c-.18-1.13-.32-2.06-.48-3-.12-.7-.24-1.4-.41-2.09a.82.82,0,0,0-.85-.72c-.68,0-1,.42-.94,1.22s.19,1.4.31,2.11c.16.92.3,1.85.53,2.76.19.72.85,1,1.37.57A2.38,2.38,0,0,0,54.27,91.18Z"></path>
      <path class="cls-1" d="M57.24,84.89a2.52,2.52,0,0,1,1.3-2.41,12.22,12.22,0,0,1,2.67-1,2.47,2.47,0,0,1,2.71,1A10.31,10.31,0,0,1,66,87.91a2.39,2.39,0,0,1-1.23,2.39,12.49,12.49,0,0,1-2.71,1.09,2.56,2.56,0,0,1-2.72-1A11.46,11.46,0,0,1,57.24,84.89Zm2.52-1A10,10,0,0,0,60,84.92c.47,1.24,1,2.47,1.45,3.7a4,4,0,0,0,.43.75A.78.78,0,0,0,63,89.6a.83.83,0,0,0,.43-1.12q-.87-2.36-1.79-4.69a1.35,1.35,0,0,0-.31-.41.68.68,0,0,0-.94-.15A3.51,3.51,0,0,0,59.76,83.86Z"></path>
      <path class="cls-1" d="M26.15,82,24,80.48c.09-.19.18-.35.25-.53a.82.82,0,0,0-.23-1c-.35-.29-.79-.48-1.15-.14a1.58,1.58,0,0,0-.44,1,2.34,2.34,0,0,0,.47,1c.4.66.88,1.27,1.25,1.94a2.62,2.62,0,0,1-.34,3.16,2.52,2.52,0,0,1-3.07.78,7.72,7.72,0,0,1-3.47-2.51A2.26,2.26,0,0,1,17.47,81l2.25,1.62-.19.39a.91.91,0,0,0,.18,1.29,1,1,0,0,0,1.27.17,1,1,0,0,0,.4-1.32,11.73,11.73,0,0,0-.75-1.29,14.58,14.58,0,0,1-1-1.69,2.43,2.43,0,0,1,.54-2.73,2.48,2.48,0,0,1,2.63-.92A6.46,6.46,0,0,1,26.4,79,2.3,2.3,0,0,1,26.15,82Z"></path>
      <path class="cls-1" d="M89.41,62.85c-.25.58-.5,1.08-.69,1.6s-.35.42-.71.33c-2.07-.51-4.14-1-6.25-1.43L88,66.08l-.45,1.07-7.57-3.36c.26-.59.5-1.17.79-1.73a.58.58,0,0,1,.5-.18c1.77.42,3.55.87,5.32,1.31l.77.18.06-.14-6-2.68.46-1Z"></path>
      <path class="cls-1" d="M91.73,37.39c0,1.16-.29,1.54-1.28,1.74-1.81.38-3.62.73-5.42,1.11a1.18,1.18,0,0,1-1.38-.58,3.19,3.19,0,0,1-.48-2.15,1.21,1.21,0,0,1,1-1.14c1.69-.34,3.38-.7,5.07-1,1.51-.32,2,0,2.37,1.53A4.63,4.63,0,0,1,91.73,37.39Zm-7.22,1.49c2.08-.43,4-.82,6-1.26a.65.65,0,0,0,.31-.55.72.72,0,0,0-.54-.43,4.53,4.53,0,0,0-1.13.19l-4.52.93c-.35.07-.61.25-.49.63A1.65,1.65,0,0,0,84.51,38.88Z"></path>
      <path class="cls-1" d="M17.09,21.16a3.38,3.38,0,0,1-.7-.41c-1.39-1.29-2.75-2.59-4.12-3.9A1.27,1.27,0,0,1,12,15.14a4.31,4.31,0,0,1,.75-.94c.94-.89,1.56-.87,2.48,0q1.84,1.75,3.7,3.5a1.38,1.38,0,0,1,.21,2.17A2.61,2.61,0,0,1,17.09,21.16Zm-3.58-6.44c-.18.19-.42.33-.45.51a.76.76,0,0,0,.22.59c1.3,1.25,2.63,2.49,3.94,3.73.28.26.55.54.92.16s.13-.65-.15-.92c-1.32-1.24-2.64-2.49-4-3.72A3.58,3.58,0,0,0,13.51,14.72Z"></path>
      <path class="cls-1" d="M77.27,24.33l7.06-4.46c.49.89,1,1.73,1.42,2.62A1.15,1.15,0,0,1,85.22,24c-1.56,1-3.14,2-4.73,3a1.34,1.34,0,0,1-1.79-.48C78.18,25.8,77.76,25.07,77.27,24.33Zm1.57.71c.39.79.6.89,1.16.54,1.43-.89,2.84-1.79,4.26-2.69.11-.07.3-.16.3-.25a2.52,2.52,0,0,0-.14-.82c0-.05-.38-.05-.52,0-1.13.69-2.25,1.41-3.38,2.12Z"></path>
      <path class="cls-1" d="M5.15,59.15l-3,1-.45-1.36,7.86-2.57L10,57.54c-1.17.38-2.28.76-3.39,1.11-.34.11-.47.24-.35.62s.29.47.67.34c1.11-.39,2.22-.74,3.38-1.12l.46,1.36L2.94,62.42l-.47-1.36,2.28-.74C5.61,60.05,5.63,60,5.15,59.15Z"></path>
      <path class="cls-1" d="M21.08,7.39c.78-.44,1.49-.89,2.25-1.26a1.33,1.33,0,0,1,2,.63s.05.11.08.15c.56.82,1,1.63,0,2.46l.6-.09a1,1,0,0,1,1,.47c.57.89,1.16,1.77,1.78,2.72l-1.26.75c-.54-.86-1.08-1.7-1.59-2.54-.2-.33-.41-.55-.83-.48s-.56.26-.33.66c.57,1,1.14,1.92,1.73,2.93l-1.23.75Zm1.72.07c.34.58.66,1.14,1,1.7.14.23.23.58.63.32s.51-.48.29-.87-.36-.63-.55-.94C23.74,6.94,23.61,6.91,22.8,7.46Z"></path>
      <path class="cls-1" d="M21.06,17.84l-5.18-6.51c.8-.58,1.54-1.2,2.35-1.69a1.12,1.12,0,0,1,1.63.33c.1.12.18.25.29.36.65.69,1.1,1.4.26,2.24.08.06.12.1.13.09.87-.44,1.43,0,2,.64s1.14,1.3,1.74,2l-1.14.92-1.94-2.29c-.48-.57-.76-.58-1.35,0l2.36,3Zm-1.9-4.72c.78-.44.83-.68.33-1.3L19,11.14c-.5-.63-.81-.61-1.32.09Z"></path>
      <path class="cls-1" d="M60,2.11c.84.32,1.63.57,2.38.91A1.32,1.32,0,0,1,63.18,5c-.07.19-.14.36-.2.55-.34,1-.44,1.06-1.47,1.1a1.22,1.22,0,0,0-.28.07l.42.37A.93.93,0,0,1,62,8.19c-.19.51-.34,1-.49,1.54l-.42,1.49s-.07,0-.1,0c-1.35-.38-1.35-.38-.94-1.71.15-.51.35-1,.53-1.52.27-.76.17-1-.69-1.25l-1.32,3.62-1.35-.48Zm.2,3.73c.43.22.85.47,1.13,0a6.12,6.12,0,0,0,.57-1.62c0-.16-.28-.44-.48-.58a.55.55,0,0,0-.47.18C60.66,4.44,60.44,5.13,60.19,5.84Z"></path>
      <path class="cls-1" d="M82.23,58.41l.4-1.39c.65.08,1.26.15,1.86.25.33,0,.49-.07.51-.37s.41-.66-.12-.89a13.22,13.22,0,0,0-1.22-.53c-.47-.15-.61-.4-.4-.86.08-.18.12-.39.2-.63l7.66,3.28-.58,2.17ZM89.36,58l0-.22-3.29-1.29-.23.91Z"></path>
      <path class="cls-1" d="M8.22,46.87l-3.51-.65C3.27,46,1.84,45.66.4,45.41c-.32,0-.41-.18-.4-.48,0-.59,0-1.18,0-1.82l8.34-.83a9.73,9.73,0,0,1,0,1.22c0,.1-.22.23-.36.25-.5.07-1,.12-1.49.14-.31,0-.51.11-.45.43s-.26.78.33.89a12.54,12.54,0,0,0,1.36.26c.43,0,.56.23.5.64A6.37,6.37,0,0,0,8.22,46.87Zm-6.7-2.71,0,.25L5,45v-.79Z"></path>
      <path class="cls-1" d="M12,19.72l-.82,1.17c-.43-.31-.84-.59-1.25-.87s-.61-.35-.89,0-.05.61.23.81l4.54,3.21c.28.2.55.28.8,0s.15-.61-.17-.83l-1.39-1L13.89,21c.6.45,1.2.83,1.73,1.3a1.12,1.12,0,0,1,.18,1.34,4.58,4.58,0,0,1-.71,1.18,1.43,1.43,0,0,1-2.29.27L8.45,22.05A1.22,1.22,0,0,1,8,20.26,6.36,6.36,0,0,1,9.2,18.72a1,1,0,0,1,1.39,0Z"></path>
      <path class="cls-1" d="M3.08,49.92l-1.58.16c-.38,0-.63.19-.57.62s.34.51.71.47c1.8-.18,3.6-.37,5.4-.54.4,0,.75-.1.7-.63s-.4-.48-.77-.45l-1.59.14-.15-1.42a13.17,13.17,0,0,1,2.13-.15,1.37,1.37,0,0,1,.94.73,4.78,4.78,0,0,1,.31,1.84A1.24,1.24,0,0,1,7.32,52c-1.93.21-3.87.37-5.81.54a1.08,1.08,0,0,1-1.15-.69,3.22,3.22,0,0,1-.21-2.36,1.12,1.12,0,0,1,.93-.85c.49-.08,1-.1,1.49-.15.3,0,.42.1.43.38S3.05,49.53,3.08,49.92Z"></path>
      <path class="cls-1" d="M51.8,3.3l-1.42-.14c0-.57.08-1.1.12-1.63,0-.37-.13-.61-.52-.63s-.54.22-.57.58C49.27,3.32,49.12,5.16,49,7c0,.36,0,.71.49.73s.55-.32.59-.69.08-1,.12-1.5l.09-.07c.41.22,1.2-.33,1.28.43.17,1.77-.24,2.52-1.29,2.68a4.1,4.1,0,0,1-1.26,0c-1.21-.22-1.55-.69-1.45-1.92.14-1.78.28-3.56.43-5.34.08-1,.87-1.28,1.87-1.3a3.16,3.16,0,0,1,.9.16c.93.25,1.21.63,1.16,1.57C51.88,2.23,51.84,2.72,51.8,3.3Z"></path>
      <path class="cls-1" d="M87.67,33.48l-.49-1.33,1.41-.52c.34-.13.67-.26.5-.74s-.47-.43-.84-.29l-5.11,1.84c-.35.12-.65.28-.5.74s.5.4.85.28L85,32.92l.49,1.34c-.66.24-1.26.49-1.88.68a1.08,1.08,0,0,1-1.27-.49,4.75,4.75,0,0,1-.67-1.51c-.24-1.11,0-1.53,1.12-1.91l4.84-1.74a1.43,1.43,0,0,1,2.08.83,4.5,4.5,0,0,1,.36,1.09,1.34,1.34,0,0,1-1,1.78C88.62,33.16,88.17,33.31,87.67,33.48Z"></path>
      <path class="cls-1" d="M35.87,6.61l1.37-.38c.18.67.36,1.31.51,2a1,1,0,0,1-.46,1.1,5,5,0,0,1-1.41.61c-1.23.27-1.74-.06-2.08-1.26-.48-1.7-.95-3.41-1.42-5.11a1.27,1.27,0,0,1,.7-1.64,3.62,3.62,0,0,1,1.08-.4c1-.16,1.84-.15,2.13,1.28.08.41.21.81.33,1.25l-1.37.36-.43-1.51c-.1-.36-.29-.6-.71-.47s-.43.41-.33.78q.73,2.64,1.45,5.28c.1.38.28.64.73.52s.43-.45.32-.82S36,7.16,35.87,6.61Z"></path>
      <path class="cls-1" d="M92.35,50.66c-.2,1-.33,1.9-.6,2.79a1.21,1.21,0,0,1-1.48.91c-.61-.07-1.22-.16-1.82-.26C87.3,53.9,87,53.48,87,52.35c0-1,0-1-.93-1.09l-2.16-.33.21-1.41ZM91.15,52l-1.34-.2a12.85,12.85,0,0,1-1.37-.18c-.5-.12-.55.13-.54.52s.28.54.63.59l1.66.22C90.87,53,91.15,52.77,91.15,52Z"></path>
      <path class="cls-1" d="M82.94,18.17l-.75.61L81,17.32c-.53.44-1,.86-1.54,1.31-.07.07,0,.36.08.48.25.36.55.68.88,1.08l-.73.62-1.2-1.4c-.74.62-1.44,1.18-2.12,1.78a.53.53,0,0,0,0,.47c.28.4.62.77,1,1.2l-.72.62-2.17-2.6,6.37-5.3Z"></path>
      <path class="cls-1" d="M56.87,5.6c-.54-.12-1-.24-1.44-.3a.5.5,0,0,0-.41.22c-.22.87-.4,1.76-.59,2.68l1.87.44-.19.93-3.3-.71L54.56.77l3.25.71-.18.93c-.49-.1-.94-.16-1.37-.29s-.56,0-.61.43a10,10,0,0,1-.27,1.18c-.12.41,0,.6.45.65s.79.17,1.23.27Z"></path>
      <path class="cls-1" d="M13.75,67.72l-1-1.62.79-.55,1.87,2.83L8.45,72.93,6.6,70.14l.8-.54,1.07,1.59L10.36,70l-1-1.54.79-.54,1,1.52Z"></path>
      <path class="cls-1" d="M29.41,6.78l1.7-.69.38.87c-.45.2-.9.36-1.32.59A.55.55,0,0,0,30,8c.31.82.67,1.63,1.05,2.5l1.8-.72.37.88L30.06,12,26.82,4.37,29.9,3.05l.37.88-1.74.77Z"></path>
      <path class="cls-1" d="M84.6,72l-.74,1.13C82,71,80.51,68.5,77.7,67.38L78.56,66c2.18,2.06,5,2.35,7.78,3.22a11.68,11.68,0,0,1-.71,1.07c-.07.09-.35.08-.51,0-1-.29-1.89-.61-2.91-.94Z"></path>
      <path class="cls-1" d="M2.71,30.55c.19-.44.31-.82.5-1.17a.54.54,0,0,1,.44-.14c.88.11,1.75.25,2.62.38l.48.05L4,27.55l.51-1.24c2.24,1.71,4.08,4,7.07,4.56L11,32.25c-1.38-.44-2.58-1.23-4-1.3S4.18,30.69,2.71,30.55Z"></path>
      <path class="cls-1" d="M74.09,9.35l2.62,2.12-.59.76L74.61,11l-1.43,1.75L74.6,14,74,14.7l-1.46-1.14L70,16.68l-1.11-.91C70.63,13.62,72.35,11.51,74.09,9.35Z"></path>
      <path class="cls-1" d="M65.09,5.12l.45-.84,3.7,1.9L68.8,7l-1.22-.57c-1.12,2.16-2.23,4.29-3.35,6.46L63,12.26l3.33-6.48Z"></path>
      <path class="cls-1" d="M11.79,62.22l.63,1.29L5.87,66.72,6.46,68l-.87.43L3.77,64.66l.85-.44.62,1.2Z"></path>
      <path class="cls-1" d="M42,8.6l-1.41.18c-.21-1.56-.41-3.06-.6-4.57-.1-.72-.2-1.44-.28-2.17,0-.39-.19-.55-.6-.43a5.27,5.27,0,0,1-.83.09L38.13.76l4.1-.54.18.93-1.35.23Z"></path>
      <path class="cls-1" d="M.46,39.73l.25-1.41,4,.68c.91.16,1.82.31,2.73.49.43.09.59-.05.62-.48s.16-.87.25-1.37l1,.13-.59,3.38Z"></path>
      <path class="cls-1" d="M9,35.06l.61-1.89.9.29-1,3.27L1.6,34.33,2,33Z"></path>
      <path class="cls-1" d="M78.29,13l.89.94L73.25,19.6l-.88-.89Z"></path>
      <path class="cls-1" d="M1.16,56.44.86,55,9,53.34l.32,1.4Z"></path>
      <path class="cls-1" d="M67.67,14.92l-1.21-.78L71,7.23l1.2.79C70.7,10.32,69.21,12.6,67.67,14.92Z"></path>
    </g>
  </g>
</svg>
