<?xml version="1.0" encoding="UTF-8"?>
<svg xmlns="http://www.w3.org/2000/svg" viewBox="0 0 131.54 45.78">
  <defs>
    <style>.cls-1,.cls-2{fill:#008d36;}.cls-2{fill-rule:evenodd;}.cls-3{fill:#fff;}</style>
  </defs>
  <g id="Layer_2" data-name="Layer 2">
    <g id="Layer_1-2" data-name="Layer 1">
      <path class="cls-1" d="M2.35,39a1.51,1.51,0,0,1,1.07.33,1.32,1.32,0,0,1,.36,1A1.08,1.08,0,0,1,3.6,41a1,1,0,0,1-.51.41,2,2,0,0,1-.83.15l0-.34a2.21,2.21,0,0,1,.53.07,1.78,1.78,0,0,1,.58.22,1.35,1.35,0,0,1,.47.45,1.4,1.4,0,0,1,.18.74,1.74,1.74,0,0,1-.16.81,1.27,1.27,0,0,1-.42.49,1.73,1.73,0,0,1-.56.24,3.09,3.09,0,0,1-.58.06H.46A.44.44,0,0,1,0,43.82V39.48a.42.42,0,0,1,.13-.32A.44.44,0,0,1,.46,39Zm-.14.88H.88l.1-.12v1.36l-.09-.07H2.24a.59.59,0,0,0,.39-.14.51.51,0,0,0,.17-.41.59.59,0,0,0-.16-.47A.61.61,0,0,0,2.21,39.91ZM2.27,42H.91L1,41.91v1.58L.9,43.42H2.33a.77.77,0,0,0,.55-.19.71.71,0,0,0,.2-.55.73.73,0,0,0-.14-.49A.55.55,0,0,0,2.62,42,1.5,1.5,0,0,0,2.27,42Z"></path>
      <path class="cls-1" d="M7.82,40.26a.42.42,0,0,1,.32.14.41.41,0,0,1,.13.32v1.91a1.77,1.77,0,0,1-.44,1.26,1.69,1.69,0,0,1-1.28.47,1.67,1.67,0,0,1-1.27-.47,1.77,1.77,0,0,1-.44-1.26V40.72A.41.41,0,0,1,5,40.4a.42.42,0,0,1,.32-.14.45.45,0,0,1,.33.14.44.44,0,0,1,.12.32v1.91a1,1,0,0,0,.21.68.75.75,0,0,0,.6.22.8.8,0,0,0,.62-.22,1,1,0,0,0,.2-.68V40.72a.41.41,0,0,1,.13-.32A.42.42,0,0,1,7.82,40.26Z"></path>
      <path class="cls-1" d="M9,43.66A.39.39,0,0,1,9,43.39a.36.36,0,0,1,.19-.29.4.4,0,0,1,.52.08,2,2,0,0,0,.46.34,1.34,1.34,0,0,0,.6.12l.25,0a.46.46,0,0,0,.23-.12.37.37,0,0,0,.11-.29.31.31,0,0,0-.12-.26.89.89,0,0,0-.29-.17l-.41-.12L10,42.49a2.35,2.35,0,0,1-.45-.22,1,1,0,0,1-.33-.35,1.08,1.08,0,0,1-.12-.54,1,1,0,0,1,.21-.64,1.39,1.39,0,0,1,.54-.41,1.86,1.86,0,0,1,.7-.14,2.12,2.12,0,0,1,.49.06,1.53,1.53,0,0,1,.49.18,1.34,1.34,0,0,1,.39.32A.63.63,0,0,1,12,41a.33.33,0,0,1-.15.29.38.38,0,0,1-.26.08.43.43,0,0,1-.25-.1A.93.93,0,0,0,11,41a1.26,1.26,0,0,0-.49-.09,1,1,0,0,0-.24,0,.55.55,0,0,0-.23.11.34.34,0,0,0-.1.28.37.37,0,0,0,.11.27,1,1,0,0,0,.31.17l.4.12.46.14a1.93,1.93,0,0,1,.43.22,1,1,0,0,1,.44.89,1,1,0,0,1-.23.66,1.54,1.54,0,0,1-.56.41,1.89,1.89,0,0,1-.69.14,2.79,2.79,0,0,1-.89-.16A1.5,1.5,0,0,1,9,43.66Z"></path>
      <path class="cls-1" d="M13.26,39.78a.56.56,0,0,1-.36-.09.34.34,0,0,1-.11-.29v-.14a.33.33,0,0,1,.12-.3.65.65,0,0,1,.35-.08.57.57,0,0,1,.37.09.34.34,0,0,1,.11.29v.14a.33.33,0,0,1-.12.3A.64.64,0,0,1,13.26,39.78Zm.46,4a.49.49,0,0,1-.13.33.44.44,0,0,1-.33.13.42.42,0,0,1-.32-.13.49.49,0,0,1-.13-.33v-3.1a.44.44,0,0,1,.13-.32.43.43,0,0,1,.32-.14.45.45,0,0,1,.33.14.44.44,0,0,1,.13.32Z"></path>
      <path class="cls-1" d="M16.79,40.19a1.33,1.33,0,0,1,.84.23A1.2,1.2,0,0,1,18,41a3.32,3.32,0,0,1,.11.86v1.92a.49.49,0,0,1-.13.33.42.42,0,0,1-.32.13.44.44,0,0,1-.33-.13.48.48,0,0,1-.12-.33V41.9a1.63,1.63,0,0,0-.07-.45.59.59,0,0,0-.23-.31.78.78,0,0,0-.47-.12,1,1,0,0,0-.51.12.84.84,0,0,0-.31.31,1,1,0,0,0-.11.45v1.92a.44.44,0,0,1-.13.33.46.46,0,0,1-.64,0,.44.44,0,0,1-.13-.33v-3.1a.41.41,0,0,1,.13-.32.44.44,0,0,1,.64,0,.41.41,0,0,1,.13.32v.33l-.11,0a1.7,1.7,0,0,1,.19-.27,1.93,1.93,0,0,1,.3-.27,1.47,1.47,0,0,1,.39-.21A1.51,1.51,0,0,1,16.79,40.19Z"></path>
      <path class="cls-1" d="M21,44.36a2.16,2.16,0,0,1-1.1-.27,1.78,1.78,0,0,1-.72-.72,2.14,2.14,0,0,1-.26-1,2.28,2.28,0,0,1,.28-1.15,2,2,0,0,1,.72-.74,1.8,1.8,0,0,1,.93-.25,1.66,1.66,0,0,1,.73.16,1.84,1.84,0,0,1,.6.43,1.93,1.93,0,0,1,.42.63,2,2,0,0,1,.15.77.36.36,0,0,1-.14.29.44.44,0,0,1-.31.11H19.43l-.23-.75H22l-.17.15v-.2a.73.73,0,0,0-.15-.39.94.94,0,0,0-.35-.27.92.92,0,0,0-.44-.1,1.42,1.42,0,0,0-.42.06.7.7,0,0,0-.33.2.94.94,0,0,0-.23.38,2,2,0,0,0-.08.61A1.26,1.26,0,0,0,20,43a1.08,1.08,0,0,0,.43.42,1.16,1.16,0,0,0,.57.15,1.78,1.78,0,0,0,.44,0,1.16,1.16,0,0,0,.27-.11l.18-.11a.54.54,0,0,1,.26-.07.37.37,0,0,1,.27.11.4.4,0,0,1,.11.27.46.46,0,0,1-.21.36,1.65,1.65,0,0,1-.55.29A2.24,2.24,0,0,1,21,44.36Z"></path>
      <path class="cls-1" d="M23.31,43.66a.45.45,0,0,1-.07-.27.43.43,0,0,1,.45-.35.4.4,0,0,1,.26.14,2,2,0,0,0,.46.34,1.34,1.34,0,0,0,.6.12l.25,0a.55.55,0,0,0,.24-.12.4.4,0,0,0,.1-.29.33.33,0,0,0-.11-.26,1.07,1.07,0,0,0-.3-.17l-.41-.12-.48-.15a2,2,0,0,1-.44-.22.86.86,0,0,1-.33-.35,1.13,1.13,0,0,1,.08-1.18,1.39,1.39,0,0,1,.54-.41,1.91,1.91,0,0,1,.71-.14,2.1,2.1,0,0,1,.48.06,1.45,1.45,0,0,1,.49.18,1.12,1.12,0,0,1,.39.32.52.52,0,0,1,.1.27.34.34,0,0,1-.14.29.43.43,0,0,1-.27.08.38.38,0,0,1-.24-.1,1,1,0,0,0-.35-.27,1.22,1.22,0,0,0-.49-.09,1.06,1.06,0,0,0-.24,0,.55.55,0,0,0-.23.11.34.34,0,0,0-.1.28.37.37,0,0,0,.11.27,1,1,0,0,0,.31.17l.41.12.46.14a2.1,2.1,0,0,1,.42.22,1,1,0,0,1,.44.89,1,1,0,0,1-.23.66,1.46,1.46,0,0,1-.56.41,1.81,1.81,0,0,1-.69.14A2.79,2.79,0,0,1,24,44.2,1.5,1.5,0,0,1,23.31,43.66Z"></path>
      <path class="cls-1" d="M26.93,43.66a.39.39,0,0,1-.07-.27.36.36,0,0,1,.19-.29.4.4,0,0,1,.52.08,2,2,0,0,0,.46.34,1.34,1.34,0,0,0,.6.12l.25,0a.55.55,0,0,0,.24-.12.4.4,0,0,0,.1-.29.31.31,0,0,0-.12-.26.89.89,0,0,0-.29-.17l-.41-.12-.48-.15a2,2,0,0,1-.44-.22,1,1,0,0,1-.34-.35,1.08,1.08,0,0,1-.12-.54,1,1,0,0,1,.21-.64,1.39,1.39,0,0,1,.54-.41,1.86,1.86,0,0,1,.7-.14,2.12,2.12,0,0,1,.49.06,1.53,1.53,0,0,1,.49.18,1.34,1.34,0,0,1,.39.32.63.63,0,0,1,.1.27.33.33,0,0,1-.15.29.38.38,0,0,1-.26.08.43.43,0,0,1-.25-.1.85.85,0,0,0-.34-.27,1.22,1.22,0,0,0-.49-.09,1,1,0,0,0-.24,0,.55.55,0,0,0-.23.11.34.34,0,0,0-.1.28.37.37,0,0,0,.11.27,1,1,0,0,0,.31.17l.41.12.45.14a1.93,1.93,0,0,1,.43.22,1,1,0,0,1,.44.89,1,1,0,0,1-.23.66,1.54,1.54,0,0,1-.56.41,1.89,1.89,0,0,1-.69.14,2.79,2.79,0,0,1-.89-.16A1.5,1.5,0,0,1,26.93,43.66Z"></path>
      <path class="cls-1" d="M34.64,44.36a3,3,0,0,1-.94-.14,2.11,2.11,0,0,1-.8-.46.55.55,0,0,1-.16-.18.54.54,0,0,1-.05-.21.42.42,0,0,1,.13-.31.42.42,0,0,1,.56,0,2.2,2.2,0,0,0,.57.35,1.78,1.78,0,0,0,.69.12,1.6,1.6,0,0,0,.51-.08,1,1,0,0,0,.38-.24.43.43,0,0,0,.14-.33.55.55,0,0,0-.13-.38,1,1,0,0,0-.42-.27,3.26,3.26,0,0,0-.7-.17,3.19,3.19,0,0,1-.71-.18,1.58,1.58,0,0,1-.52-.32,1.25,1.25,0,0,1-.31-.45,1.5,1.5,0,0,1-.11-.58,1.35,1.35,0,0,1,.26-.83,1.52,1.52,0,0,1,.68-.53,2.39,2.39,0,0,1,.94-.18,2.67,2.67,0,0,1,.91.15,2.31,2.31,0,0,1,.68.37.5.5,0,0,1,.21.4.44.44,0,0,1-.12.3.41.41,0,0,1-.3.13.31.31,0,0,1-.21-.07A1.17,1.17,0,0,0,35.5,40a2.23,2.23,0,0,0-.43-.16,1.67,1.67,0,0,0-.42-.07,1.45,1.45,0,0,0-.54.09.77.77,0,0,0-.34.22.57.57,0,0,0-.11.33.51.51,0,0,0,.13.37,1,1,0,0,0,.38.24,5,5,0,0,0,.59.15,6.22,6.22,0,0,1,.8.2,2,2,0,0,1,.56.28,1.08,1.08,0,0,1,.34.45,1.58,1.58,0,0,1,.11.65,1.36,1.36,0,0,1-.27.84,1.77,1.77,0,0,1-.71.54A2.48,2.48,0,0,1,34.64,44.36Z"></path>
      <path class="cls-1" d="M41.26,42.28A2,2,0,0,1,41,43.36a1.9,1.9,0,0,1-.73.73,2,2,0,0,1-1,.27,2,2,0,0,1-1-.27,2,2,0,0,1-.73-.73,2.12,2.12,0,0,1-.28-1.08,2.15,2.15,0,0,1,.28-1.09,2,2,0,0,1,.73-.73,2,2,0,0,1,1-.27,2,2,0,0,1,1,.27,1.9,1.9,0,0,1,.73.73A2.06,2.06,0,0,1,41.26,42.28Zm-.9,0a1.3,1.3,0,0,0-.16-.67,1.16,1.16,0,0,0-.41-.44,1.1,1.1,0,0,0-.57-.15,1.14,1.14,0,0,0-.58.15,1.16,1.16,0,0,0-.41.44,1.41,1.41,0,0,0-.16.67,1.33,1.33,0,0,0,.16.65,1.09,1.09,0,0,0,.41.44,1.06,1.06,0,0,0,.58.16,1,1,0,0,0,.57-.16,1.09,1.09,0,0,0,.41-.44A1.23,1.23,0,0,0,40.36,42.28Z"></path>
      <path class="cls-1" d="M43.83,40.19a2.75,2.75,0,0,1,.75.09,1.23,1.23,0,0,1,.5.25.54.54,0,0,1,.17.39.49.49,0,0,1-.09.28.29.29,0,0,1-.26.13.56.56,0,0,1-.2,0,.67.67,0,0,1-.14-.09l-.14-.1a.79.79,0,0,0-.23-.07A1.11,1.11,0,0,0,44,41a1.23,1.23,0,0,0-.65.16,1.11,1.11,0,0,0-.41.45,1.45,1.45,0,0,0-.14.65,1.34,1.34,0,0,0,.15.64,1.09,1.09,0,0,0,.4.45,1.08,1.08,0,0,0,.6.16l.32,0a1,1,0,0,0,.23-.07.83.83,0,0,0,.18-.13.44.44,0,0,1,.25-.06.38.38,0,0,1,.3.12.44.44,0,0,1,.11.3.42.42,0,0,1-.21.34,1.53,1.53,0,0,1-.56.25,2.8,2.8,0,0,1-.73.1,1.91,1.91,0,0,1-1-.28,1.87,1.87,0,0,1-.68-.74,2.46,2.46,0,0,1-.23-1.06,2.25,2.25,0,0,1,.25-1.09,1.82,1.82,0,0,1,.7-.73A1.94,1.94,0,0,1,43.83,40.19Z"></path>
      <path class="cls-1" d="M46.34,39.78a.56.56,0,0,1-.36-.09.34.34,0,0,1-.11-.29v-.14A.33.33,0,0,1,46,39a.69.69,0,0,1,.36-.08.59.59,0,0,1,.37.09.34.34,0,0,1,.1.29v.14a.35.35,0,0,1-.11.3A.7.7,0,0,1,46.34,39.78Zm.46,4a.44.44,0,0,1-.13.33.42.42,0,0,1-.32.13.44.44,0,0,1-.33-.13.48.48,0,0,1-.12-.33v-3.1A.44.44,0,0,1,46,40.4a.45.45,0,0,1,.33-.14.43.43,0,0,1,.32.14.41.41,0,0,1,.13.32Z"></path>
      <path class="cls-1" d="M51,40.19a.41.41,0,0,1,.32.13.42.42,0,0,1,.13.33v3.17a.44.44,0,0,1-.13.33.46.46,0,0,1-.64,0,.44.44,0,0,1-.13-.33v-.36l.16.06a.4.4,0,0,1-.1.24,1.54,1.54,0,0,1-.29.27,1.69,1.69,0,0,1-.42.23,1.51,1.51,0,0,1-.53.1,1.69,1.69,0,0,1-.94-.27,1.83,1.83,0,0,1-.66-.74,2.2,2.2,0,0,1-.25-1.07,2.25,2.25,0,0,1,.25-1.09,1.85,1.85,0,0,1,.65-.73,1.65,1.65,0,0,1,.92-.27,1.59,1.59,0,0,1,.59.1,1.62,1.62,0,0,1,.47.25,1.49,1.49,0,0,1,.31.3.5.5,0,0,1,.11.26l-.27.1v-.55a.44.44,0,0,1,.13-.33A.41.41,0,0,1,51,40.19Zm-1.52,3.34a1,1,0,0,0,.58-.16,1.11,1.11,0,0,0,.39-.46,1.46,1.46,0,0,0,.14-.63,1.51,1.51,0,0,0-.14-.65,1.14,1.14,0,0,0-.39-.45,1,1,0,0,0-.58-.16,1,1,0,0,0-.57.16,1.12,1.12,0,0,0-.38.45,1.38,1.38,0,0,0-.14.65,1.33,1.33,0,0,0,.14.63,1.09,1.09,0,0,0,.38.46A1,1,0,0,0,49.49,43.53Z"></path>
      <path class="cls-1" d="M53.41,43.82a.44.44,0,0,1-.46.46.4.4,0,0,1-.31-.13.44.44,0,0,1-.13-.33V39.18a.41.41,0,0,1,.13-.32.44.44,0,0,1,.33-.13.42.42,0,0,1,.32.13.44.44,0,0,1,.12.32Z"></path>
      <path class="cls-1" d="M60.32,39.28a.43.43,0,0,1,.23.31.48.48,0,0,1-.11.38.35.35,0,0,1-.25.15.61.61,0,0,1-.32-.06,2.32,2.32,0,0,0-.37-.13,2,2,0,0,0-.42,0,1.9,1.9,0,0,0-.73.13,1.42,1.42,0,0,0-.54.36,1.68,1.68,0,0,0-.34.56,2,2,0,0,0-.12.71,2.39,2.39,0,0,0,.13.8,1.57,1.57,0,0,0,.37.56,1.55,1.55,0,0,0,.55.34,2.11,2.11,0,0,0,.68.11,2.71,2.71,0,0,0,.4,0,1.3,1.3,0,0,0,.39-.14.6.6,0,0,1,.32-.05.47.47,0,0,1,.36.54.37.37,0,0,1-.22.29,2.31,2.31,0,0,1-.41.16,1.89,1.89,0,0,1-.41.1,3.13,3.13,0,0,1-.43,0,3,3,0,0,1-1-.18,2.42,2.42,0,0,1-.86-.51,2.38,2.38,0,0,1-.6-.84,3.07,3.07,0,0,1-.21-1.18,2.63,2.63,0,0,1,.2-1.06,2.47,2.47,0,0,1,.56-.85,2.64,2.64,0,0,1,.86-.55,2.92,2.92,0,0,1,1.08-.2,2.73,2.73,0,0,1,.64.07A3.07,3.07,0,0,1,60.32,39.28Z"></path>
      <path class="cls-1" d="M65.17,42.28a2,2,0,0,1-.28,1.08,1.9,1.9,0,0,1-.73.73,2.12,2.12,0,0,1-2.07,0,2,2,0,0,1-.73-.73,2,2,0,0,1-.28-1.08,2.06,2.06,0,0,1,.28-1.09,2,2,0,0,1,.73-.73,2.12,2.12,0,0,1,2.07,0,1.9,1.9,0,0,1,.73.73A2.06,2.06,0,0,1,65.17,42.28Zm-.9,0a1.41,1.41,0,0,0-.16-.67,1.16,1.16,0,0,0-.41-.44,1.1,1.1,0,0,0-.57-.15,1.14,1.14,0,0,0-.58.15,1.16,1.16,0,0,0-.41.44,1.41,1.41,0,0,0-.16.67,1.33,1.33,0,0,0,.16.65,1.09,1.09,0,0,0,.41.44,1.06,1.06,0,0,0,.58.16,1,1,0,0,0,.57-.16,1.09,1.09,0,0,0,.41-.44A1.33,1.33,0,0,0,64.27,42.28Z"></path>
      <path class="cls-1" d="M68.06,40.19a1.22,1.22,0,0,1,.89.29,1.41,1.41,0,0,1,.38.75l-.13-.07.06-.12a1.44,1.44,0,0,1,.28-.37,1.41,1.41,0,0,1,.45-.34,1.33,1.33,0,0,1,.6-.14,1.29,1.29,0,0,1,.82.23,1.18,1.18,0,0,1,.39.62,3.33,3.33,0,0,1,.1.86v1.92a.44.44,0,0,1-.13.33.46.46,0,0,1-.64,0,.44.44,0,0,1-.13-.33V41.9a1.63,1.63,0,0,0-.06-.45.58.58,0,0,0-.22-.31.71.71,0,0,0-.45-.12,1,1,0,0,0-.49.12.81.81,0,0,0-.3.31,1,1,0,0,0-.1.45v1.92a.44.44,0,0,1-.13.33.46.46,0,0,1-.64,0,.44.44,0,0,1-.13-.33V41.9a1.63,1.63,0,0,0-.06-.45.63.63,0,0,0-.22-.31.75.75,0,0,0-.45-.12,1,1,0,0,0-.49.12.74.74,0,0,0-.3.31,1,1,0,0,0-.1.45v1.92a.49.49,0,0,1-.13.33.42.42,0,0,1-.32.13.44.44,0,0,1-.33-.13.48.48,0,0,1-.12-.33v-3.1a.44.44,0,0,1,.12-.32.45.45,0,0,1,.33-.14.43.43,0,0,1,.32.14.44.44,0,0,1,.13.32v.33l-.12,0a2.78,2.78,0,0,1,.19-.27,1.5,1.5,0,0,1,.29-.27,1.47,1.47,0,0,1,.39-.21A1.33,1.33,0,0,1,68.06,40.19Z"></path>
      <path class="cls-1" d="M75,40.19a1.69,1.69,0,0,1,.94.27,1.8,1.8,0,0,1,.66.73,2.55,2.55,0,0,1,0,2.16,1.88,1.88,0,0,1-.65.74,1.65,1.65,0,0,1-.92.27,1.8,1.8,0,0,1-.57-.1A2,2,0,0,1,74,44a1.78,1.78,0,0,1-.31-.3.54.54,0,0,1-.11-.26l.24-.1v2a.49.49,0,0,1-.13.33.42.42,0,0,1-.32.13.43.43,0,0,1-.45-.46v-4.6A.44.44,0,0,1,73,40.4a.45.45,0,0,1,.33-.14.43.43,0,0,1,.32.14.44.44,0,0,1,.13.32v.37L73.65,41a.4.4,0,0,1,.1-.23,1.3,1.3,0,0,1,.29-.28,1.69,1.69,0,0,1,.42-.23A1.35,1.35,0,0,1,75,40.19Zm-.12.83a1,1,0,0,0-.57.16,1.07,1.07,0,0,0-.39.45,1.44,1.44,0,0,0-.14.64,1.5,1.5,0,0,0,.14.64,1.1,1.1,0,0,0,.39.46,1,1,0,0,0,.57.16,1,1,0,0,0,.58-.16,1.15,1.15,0,0,0,.38-.46,1.5,1.5,0,0,0,.14-.64,1.44,1.44,0,0,0-.14-.64,1.12,1.12,0,0,0-.38-.45A1,1,0,0,0,74.84,41Z"></path>
      <path class="cls-1" d="M78.57,43.82a.49.49,0,0,1-.13.33.44.44,0,0,1-.33.13.42.42,0,0,1-.32-.13.48.48,0,0,1-.12-.33V39.18a.45.45,0,1,1,.9,0Z"></path>
      <path class="cls-1" d="M80,39.78a.56.56,0,0,1-.36-.09.34.34,0,0,1-.11-.29v-.14a.33.33,0,0,1,.12-.3.69.69,0,0,1,.36-.08.56.56,0,0,1,.36.09.34.34,0,0,1,.11.29v.14a.35.35,0,0,1-.11.3A.7.7,0,0,1,80,39.78Zm.46,4a.49.49,0,0,1-.13.33.42.42,0,0,1-.32.13.44.44,0,0,1-.33-.13.48.48,0,0,1-.12-.33v-3.1a.44.44,0,0,1,.12-.32.45.45,0,0,1,.33-.14.43.43,0,0,1,.32.14.44.44,0,0,1,.13.32Z"></path>
      <path class="cls-1" d="M84.68,40.19a.41.41,0,0,1,.32.13.42.42,0,0,1,.13.33v3.17a.44.44,0,0,1-.13.33.41.41,0,0,1-.32.13.44.44,0,0,1-.33-.13.48.48,0,0,1-.12-.33v-.36l.16.06a.4.4,0,0,1-.1.24A1.54,1.54,0,0,1,84,44a1.69,1.69,0,0,1-.42.23,1.56,1.56,0,0,1-.53.1,1.69,1.69,0,0,1-.94-.27,1.83,1.83,0,0,1-.66-.74,2.2,2.2,0,0,1-.25-1.07,2.25,2.25,0,0,1,.25-1.09,1.85,1.85,0,0,1,.65-.73,1.65,1.65,0,0,1,.92-.27,1.77,1.77,0,0,1,1.06.35,1.49,1.49,0,0,1,.31.3.5.5,0,0,1,.11.26l-.27.1v-.55a.48.48,0,0,1,.12-.33A.44.44,0,0,1,84.68,40.19Zm-1.52,3.34a1,1,0,0,0,.58-.16,1.18,1.18,0,0,0,.39-.46,1.45,1.45,0,0,0,.13-.63,1.51,1.51,0,0,0-.13-.65,1.23,1.23,0,0,0-.39-.45,1.11,1.11,0,0,0-1.15,0,1.23,1.23,0,0,0-.39.45,1.51,1.51,0,0,0-.14.65,1.46,1.46,0,0,0,.14.63,1.18,1.18,0,0,0,.39.46A1,1,0,0,0,83.16,43.53Z"></path>
      <path class="cls-1" d="M88.25,40.19a1.39,1.39,0,0,1,.85.23,1.18,1.18,0,0,1,.39.62,2.94,2.94,0,0,1,.11.86v1.92a.44.44,0,0,1-.13.33.46.46,0,0,1-.64,0,.44.44,0,0,1-.13-.33V41.9a1.63,1.63,0,0,0-.06-.45.65.65,0,0,0-.23-.31.8.8,0,0,0-.47-.12,1,1,0,0,0-.51.12.87.87,0,0,0-.32.31,1,1,0,0,0-.11.45v1.92a.48.48,0,0,1-.12.33.44.44,0,0,1-.33.13.42.42,0,0,1-.32-.13.49.49,0,0,1-.13-.33v-3.1a.44.44,0,0,1,.13-.32.43.43,0,0,1,.32-.14.45.45,0,0,1,.33.14.44.44,0,0,1,.12.32v.33l-.11,0a1.85,1.85,0,0,1,.2-.27,1.31,1.31,0,0,1,.3-.27,1.22,1.22,0,0,1,.39-.21A1.4,1.4,0,0,1,88.25,40.19Z"></path>
      <path class="cls-1" d="M92.36,40.19a2.75,2.75,0,0,1,.75.09,1.23,1.23,0,0,1,.5.25.54.54,0,0,1,.17.39.49.49,0,0,1-.09.28.28.28,0,0,1-.26.13.56.56,0,0,1-.2,0,.67.67,0,0,1-.14-.09l-.14-.1a.79.79,0,0,0-.23-.07,1.11,1.11,0,0,0-.23,0,1.23,1.23,0,0,0-.65.16,1.11,1.11,0,0,0-.41.45,1.45,1.45,0,0,0-.14.65,1.34,1.34,0,0,0,.15.64,1.06,1.06,0,0,0,1,.61l.32,0a1,1,0,0,0,.23-.07l.19-.13a.38.38,0,0,1,.24-.06.38.38,0,0,1,.3.12.44.44,0,0,1,.11.3.42.42,0,0,1-.21.34,1.56,1.56,0,0,1-.55.25,2.94,2.94,0,0,1-.74.1,1.91,1.91,0,0,1-1-.28,1.77,1.77,0,0,1-.67-.74,2.33,2.33,0,0,1-.24-1.06,2.25,2.25,0,0,1,.25-1.09,1.82,1.82,0,0,1,.7-.73A1.94,1.94,0,0,1,92.36,40.19Z"></path>
      <path class="cls-1" d="M96.37,44.36a2.16,2.16,0,0,1-1.1-.27,1.78,1.78,0,0,1-.72-.72,2.14,2.14,0,0,1-.26-1,2.18,2.18,0,0,1,.28-1.15,2,2,0,0,1,.71-.74,1.87,1.87,0,0,1,.94-.25,1.66,1.66,0,0,1,.73.16,1.84,1.84,0,0,1,.6.43,1.93,1.93,0,0,1,.42.63,2,2,0,0,1,.15.77.36.36,0,0,1-.14.29.46.46,0,0,1-.32.11H94.8l-.23-.75h2.76l-.17.15v-.2a.73.73,0,0,0-.15-.39,1,1,0,0,0-.35-.27,1,1,0,0,0-.44-.1,1.42,1.42,0,0,0-.42.06.79.79,0,0,0-.34.2.93.93,0,0,0-.22.38,1.77,1.77,0,0,0-.08.61,1.26,1.26,0,0,0,.17.69,1.08,1.08,0,0,0,.43.42,1.16,1.16,0,0,0,.57.15,1.78,1.78,0,0,0,.44,0,1.16,1.16,0,0,0,.27-.11,1.25,1.25,0,0,1,.18-.11.54.54,0,0,1,.26-.07.37.37,0,0,1,.27.11.4.4,0,0,1,.11.27.46.46,0,0,1-.21.36,1.65,1.65,0,0,1-.55.29A2.24,2.24,0,0,1,96.37,44.36Z"></path>
      <path class="cls-1" d="M102,43.82a.43.43,0,0,1-.15.33.44.44,0,0,1-.33.13.45.45,0,0,1-.34-.13.48.48,0,0,1-.12-.33V39.48a.42.42,0,0,1,.13-.32.48.48,0,0,1,.35-.13.45.45,0,0,1,.32.13.43.43,0,0,1,.14.32Z"></path>
      <path class="cls-1" d="M105.22,40.19a1.37,1.37,0,0,1,.85.23,1.26,1.26,0,0,1,.4.62,3.33,3.33,0,0,1,.1.86v1.92a.48.48,0,0,1-.12.33.44.44,0,0,1-.33.13.42.42,0,0,1-.32-.13.49.49,0,0,1-.13-.33V41.9a1.63,1.63,0,0,0-.06-.45.59.59,0,0,0-.23-.31.8.8,0,0,0-.47-.12,1,1,0,0,0-.51.12.77.77,0,0,0-.31.31.88.88,0,0,0-.11.45v1.92a.49.49,0,0,1-.13.33.42.42,0,0,1-.32.13.44.44,0,0,1-.33-.13.48.48,0,0,1-.12-.33v-3.1a.44.44,0,0,1,.12-.32.45.45,0,0,1,.33-.14.43.43,0,0,1,.32.14.44.44,0,0,1,.13.32v.33l-.12,0a1.85,1.85,0,0,1,.2-.27,1.93,1.93,0,0,1,.3-.27,1.47,1.47,0,0,1,.39-.21A1.45,1.45,0,0,1,105.22,40.19Z"></path>
      <path class="cls-1" d="M107.94,39.78a.56.56,0,0,1-.36-.09.34.34,0,0,1-.1-.29v-.14c0-.15,0-.25.11-.3a.69.69,0,0,1,.36-.08.59.59,0,0,1,.37.09.34.34,0,0,1,.1.29v.14a.35.35,0,0,1-.11.3A.7.7,0,0,1,107.94,39.78Zm.46,4a.44.44,0,0,1-.13.33.46.46,0,0,1-.64,0,.44.44,0,0,1-.13-.33v-3.1a.41.41,0,0,1,.13-.32.44.44,0,0,1,.64,0,.41.41,0,0,1,.13.32Z"></path>
      <path class="cls-1" d="M109.37,40.34h1.78a.41.41,0,0,1,.42.42.38.38,0,0,1-.12.29.41.41,0,0,1-.3.12h-1.78a.41.41,0,0,1-.42-.42.37.37,0,0,1,.12-.29A.41.41,0,0,1,109.37,40.34Zm.8-.94a.44.44,0,0,1,.32.13.48.48,0,0,1,.12.33V43.2a.39.39,0,0,0,0,.17.23.23,0,0,0,.12.1.37.37,0,0,0,.15,0,.47.47,0,0,0,.17,0,.31.31,0,0,1,.17,0,.28.28,0,0,1,.19.1.4.4,0,0,1,.09.27.41.41,0,0,1-.23.35,1,1,0,0,1-.49.13l-.35,0a.9.9,0,0,1-.36-.12.71.71,0,0,1-.28-.31,1.19,1.19,0,0,1-.12-.58V39.86a.44.44,0,0,1,.46-.46Z"></path>
      <path class="cls-1" d="M112.78,39.78a.56.56,0,0,1-.36-.09.34.34,0,0,1-.1-.29v-.14a.35.35,0,0,1,.11-.3.69.69,0,0,1,.36-.08.57.57,0,0,1,.37.09.34.34,0,0,1,.1.29v.14c0,.15,0,.25-.11.3A.68.68,0,0,1,112.78,39.78Zm.46,4a.44.44,0,0,1-.13.33.46.46,0,0,1-.64,0,.44.44,0,0,1-.13-.33v-3.1a.41.41,0,0,1,.13-.32.44.44,0,0,1,.64,0,.41.41,0,0,1,.13.32Z"></path>
      <path class="cls-1" d="M117.45,40.19a.43.43,0,0,1,.45.46v3.17a.48.48,0,0,1-.12.33.44.44,0,0,1-.33.13.41.41,0,0,1-.32-.13.44.44,0,0,1-.13-.33v-.36l.17.06a.42.42,0,0,1-.11.24,1.45,1.45,0,0,1-.28.27,1.59,1.59,0,0,1-.43.23,1.51,1.51,0,0,1-.53.1,1.74,1.74,0,0,1-.94-.27,1.83,1.83,0,0,1-.66-.74,2.31,2.31,0,0,1-.24-1.07,2.37,2.37,0,0,1,.24-1.09,1.8,1.8,0,0,1,.66-.73,1.62,1.62,0,0,1,.91-.27,1.64,1.64,0,0,1,.6.1,1.76,1.76,0,0,1,.47.25,1.41,1.41,0,0,1,.3.3.43.43,0,0,1,.11.26l-.27.1v-.55a.44.44,0,0,1,.13-.33A.41.41,0,0,1,117.45,40.19Zm-1.51,3.34a1,1,0,0,0,.57-.16,1,1,0,0,0,.39-.46,1.46,1.46,0,0,0,.14-.63,1.51,1.51,0,0,0-.14-.65,1.07,1.07,0,0,0-.39-.45,1.1,1.1,0,0,0-1.14,0,1.07,1.07,0,0,0-.39.45,1.51,1.51,0,0,0-.14.65,1.46,1.46,0,0,0,.14.63,1,1,0,0,0,.39.46A1,1,0,0,0,115.94,43.53Z"></path>
      <path class="cls-1" d="M118.92,40.34h1.78a.41.41,0,0,1,.42.42.38.38,0,0,1-.12.29.41.41,0,0,1-.3.12h-1.78a.41.41,0,0,1-.42-.42.37.37,0,0,1,.12-.29A.41.41,0,0,1,118.92,40.34Zm.81-.94a.46.46,0,0,1,.32.13.48.48,0,0,1,.12.33V43.2a.29.29,0,0,0,0,.17.26.26,0,0,0,.11.1.44.44,0,0,0,.32,0,.34.34,0,0,1,.18,0,.28.28,0,0,1,.19.1.46.46,0,0,1,.08.27.39.39,0,0,1-.23.35.92.92,0,0,1-.49.13l-.35,0a1,1,0,0,1-.36-.12.85.85,0,0,1-.28-.31,1.33,1.33,0,0,1-.11-.58V39.86a.44.44,0,0,1,.13-.33A.49.49,0,0,1,119.73,39.4Z"></path>
      <path class="cls-1" d="M122.34,39.78a.56.56,0,0,1-.36-.09.34.34,0,0,1-.11-.29v-.14A.33.33,0,0,1,122,39a.69.69,0,0,1,.36-.08.56.56,0,0,1,.36.09.34.34,0,0,1,.11.29v.14a.35.35,0,0,1-.11.3A.7.7,0,0,1,122.34,39.78Zm.46,4a.49.49,0,0,1-.13.33.42.42,0,0,1-.32.13.44.44,0,0,1-.33-.13.48.48,0,0,1-.12-.33v-3.1a.44.44,0,0,1,.12-.32.45.45,0,0,1,.33-.14.43.43,0,0,1,.32.14.44.44,0,0,1,.13.32Z"></path>
      <path class="cls-1" d="M123.9,40.26a.47.47,0,0,1,.26.08.42.42,0,0,1,.18.21l1.11,2.52-.17.08,1.13-2.59a.4.4,0,0,1,.4-.29.41.41,0,0,1,.3.12.38.38,0,0,1,.12.29.52.52,0,0,1,0,.11.76.76,0,0,0,0,.11L125.76,44a.43.43,0,0,1-.38.28.36.36,0,0,1-.27-.05.45.45,0,0,1-.2-.23l-1.4-3.1a.46.46,0,0,1,0-.09.34.34,0,0,1,0-.15.37.37,0,0,1,.12-.26A.42.42,0,0,1,123.9,40.26Z"></path>
      <path class="cls-1" d="M129.79,44.36a2.16,2.16,0,0,1-1.1-.27,1.78,1.78,0,0,1-.72-.72,2.14,2.14,0,0,1-.26-1,2.28,2.28,0,0,1,.28-1.15,2,2,0,0,1,.72-.74,1.8,1.8,0,0,1,.93-.25,1.66,1.66,0,0,1,.73.16,1.84,1.84,0,0,1,.6.43,1.93,1.93,0,0,1,.42.63,2,2,0,0,1,.15.77.36.36,0,0,1-.14.29.46.46,0,0,1-.32.11h-2.86l-.23-.75h2.76l-.17.15v-.2a.73.73,0,0,0-.15-.39,1,1,0,0,0-.79-.37,1.42,1.42,0,0,0-.42.06.7.7,0,0,0-.33.2.94.94,0,0,0-.23.38,1.77,1.77,0,0,0-.08.61,1.26,1.26,0,0,0,.17.69,1.08,1.08,0,0,0,.43.42,1.16,1.16,0,0,0,.57.15,1.78,1.78,0,0,0,.44,0,1.16,1.16,0,0,0,.27-.11l.18-.11a.54.54,0,0,1,.26-.07.37.37,0,0,1,.27.11.4.4,0,0,1,.11.27.46.46,0,0,1-.21.36,1.65,1.65,0,0,1-.55.29A2.24,2.24,0,0,1,129.79,44.36Z"></path>
      <path class="cls-2" d="M14.36,7.89H29.41V6.35H20.29A5.86,5.86,0,0,1,14.44.5V0H37.49l13,7.89V31.65a3,3,0,0,1-3,3H11.79A2.92,2.92,0,0,1,8.88,31.7h0a2.92,2.92,0,0,1,2.91-2.91h9.14v-1H5.84a2.92,2.92,0,0,1-2.91-2.91h0a2.92,2.92,0,0,1,2.91-2.91H19.21V20.72H2.91A2.91,2.91,0,0,1,0,17.82H0a2.92,2.92,0,0,1,2.91-2.91H21.29l1.89-1.21H5.84a2.92,2.92,0,0,1-2.91-2.91h0a2.91,2.91,0,0,1,2.91-2.9Z"></path>
      <path class="cls-3" d="M29.74,10.6A11.46,11.46,0,1,0,41.19,22.06,11.46,11.46,0,0,0,29.74,10.6Zm8.14,6.19a9.62,9.62,0,0,1,1.54,4.83H36.07a12.46,12.46,0,0,0-1.27-4.83Zm-7.7-4.14a12.13,12.13,0,0,1,3.1,3.25h-3.1Zm-.89,3.25h-3.1a12.13,12.13,0,0,1,3.1-3.25Zm0,.89v4.83h-5a11.88,11.88,0,0,1,1.38-4.83Zm0,5.71v4.83H25.65a12,12,0,0,1-1.37-4.83Zm0,5.72v3.1a8.93,8.93,0,0,1-3.13-3.1Zm.89,0h3.13a8.93,8.93,0,0,1-3.13,3.1Zm0-.89V22.5h5a12,12,0,0,1-1.37,4.83Zm0-5.71V16.79h3.63a11.88,11.88,0,0,1,1.38,4.83Zm7-5.72h-2.9a12.9,12.9,0,0,0-2.89-3.39A9.72,9.72,0,0,1,37.23,15.9ZM28,12.51a12.9,12.9,0,0,0-2.89,3.39H22.25A9.67,9.67,0,0,1,28,12.51ZM21.6,16.79h3.07a12.64,12.64,0,0,0-1.27,4.83H20.05A9.63,9.63,0,0,1,21.6,16.79Zm0,10.54a9.53,9.53,0,0,1-1.55-4.83h3.34a13,13,0,0,0,1.27,4.83Zm.65.89h2.88l.09.17a10.44,10.44,0,0,0,2.89,3.23A9.61,9.61,0,0,1,22.25,28.22Zm9.11,3.4a10.32,10.32,0,0,0,2.89-3.23l.09-.17h2.89A9.66,9.66,0,0,1,31.36,31.62Zm6.52-4.29H34.81a13,13,0,0,0,1.27-4.83h3.34A9.62,9.62,0,0,1,37.88,27.33Z"></path>
      <path class="cls-1" d="M74.76,20.07a11.79,11.79,0,0,0-1.29-.63,5.43,5.43,0,0,0,2.3-2,5.68,5.68,0,0,0,.88-3.14,6.74,6.74,0,0,0-1.79-5.07c-1.2-1.14-3-1.71-5.45-1.71h-9.6a2.29,2.29,0,0,0-2.33,2.32v22a2.29,2.29,0,0,0,2.33,2.33h9.48a13.94,13.94,0,0,0,2.94-.33,8,8,0,0,0,2.85-1.2,6.38,6.38,0,0,0,2.16-2.47,9.12,9.12,0,0,0,.82-4.12,6.53,6.53,0,0,0-3.3-6ZM70.88,12.8a3.08,3.08,0,0,1,.81,2.38,2.56,2.56,0,0,1-.87,2.09,3,3,0,0,1-2,.73h-6.4V12.05h6.28A3.09,3.09,0,0,1,70.88,12.8Zm1.2,16.11a4,4,0,0,1-2.79.94H62.44V22.49H69a9.61,9.61,0,0,1,1.75.19,3,3,0,0,1,1.64,1,3.61,3.61,0,0,1,.68,2.47A3.6,3.6,0,0,1,72.08,28.91Z"></path>
      <path class="cls-1" d="M97.75,21.1a9.53,9.53,0,0,0-2.87-1.46,29.47,29.47,0,0,0-4-1,20,20,0,0,1-3-.78,4.51,4.51,0,0,1-1.93-1.18,2.71,2.71,0,0,1-.66-1.88,2.63,2.63,0,0,1,.57-1.68A3.77,3.77,0,0,1,87.52,12a8,8,0,0,1,2.77-.42,8,8,0,0,1,2.13.32,16.43,16.43,0,0,1,2.17.8,7.15,7.15,0,0,1,1.64,1,1.67,1.67,0,0,0,1,.35,2,2,0,0,0,1.52-.69,2.19,2.19,0,0,0,.65-1.52,2.52,2.52,0,0,0-1.11-2,10.6,10.6,0,0,0-3.44-1.89,13.89,13.89,0,0,0-4.59-.74,12.19,12.19,0,0,0-4.8.91A8,8,0,0,0,82,10.76,7,7,0,0,0,80.76,15a7.91,7.91,0,0,0,.53,3,6.39,6.39,0,0,0,1.59,2.29,8.37,8.37,0,0,0,2.61,1.6,15.69,15.69,0,0,0,3.61.93,15.9,15.9,0,0,1,3.59.86A5.22,5.22,0,0,1,94.78,25a2.86,2.86,0,0,1,.69,1.94,2.39,2.39,0,0,1-.73,1.7,5.13,5.13,0,0,1-1.9,1.18,7.45,7.45,0,0,1-2.59.44,9.15,9.15,0,0,1-3.53-.61,12.39,12.39,0,0,1-2.87-1.79,2,2,0,0,0-1.3-.46A2.07,2.07,0,0,0,81,28a2.15,2.15,0,0,0-.63,1.54,2.39,2.39,0,0,0,.27,1.07,3.1,3.1,0,0,0,.76,1,11.37,11.37,0,0,0,4.08,2.34,16.18,16.18,0,0,0,4.8.67,12.09,12.09,0,0,0,4.82-1,8.75,8.75,0,0,0,3.6-2.74A6.81,6.81,0,0,0,100,26.65a8.49,8.49,0,0,0-.57-3.3A5.61,5.61,0,0,0,97.75,21.1Z"></path>
      <path class="cls-1" d="M121.66,28.89a2.79,2.79,0,0,0-1.58.27,7.24,7.24,0,0,1-2,.69,11.85,11.85,0,0,1-2,.19,10.52,10.52,0,0,1-3.47-.56,7.33,7.33,0,0,1-2.78-1.69,8,8,0,0,1-1.85-2.86,11.22,11.22,0,0,1-.66-4,10.49,10.49,0,0,1,.59-3.62,7.94,7.94,0,0,1,1.73-2.83,7.67,7.67,0,0,1,2.76-1.85,9.89,9.89,0,0,1,3.68-.65,9.63,9.63,0,0,1,4,.88,3,3,0,0,0,1.58.3,1.71,1.71,0,0,0,1.27-.76,2.33,2.33,0,0,0,.56-1.94,2.06,2.06,0,0,0-1.17-1.57,13.18,13.18,0,0,0-3-1.1A14.2,14.2,0,0,0,116,7.37a14.69,14.69,0,0,0-5.49,1,13.11,13.11,0,0,0-4.36,2.82,12.62,12.62,0,0,0-2.86,4.28,14.27,14.27,0,0,0-1,5.41,14.91,14.91,0,0,0,1.11,6,11.75,11.75,0,0,0,3,4.29,13.1,13.1,0,0,0,4.38,2.59,15.47,15.47,0,0,0,5.2.88,14.22,14.22,0,0,0,2.17-.17,15.75,15.75,0,0,0,2.11-.5,12.79,12.79,0,0,0,2-.82,2,2,0,0,0,1.16-1.47,2.29,2.29,0,0,0-.55-2A2,2,0,0,0,121.66,28.89Z"></path>
      <path class="cls-1" d="M130.84,8.23a2.27,2.27,0,0,0-1.62-.67,2.37,2.37,0,0,0-1.75.67,2.19,2.19,0,0,0-.69,1.65v22a2.26,2.26,0,0,0,2.36,2.33,2.42,2.42,0,0,0,1.68-.67,2.17,2.17,0,0,0,.72-1.66v-22A2.16,2.16,0,0,0,130.84,8.23Z"></path>
    </g>
  </g>
</svg>
