<?xml version="1.0" encoding="UTF-8"?>
<svg xmlns="http://www.w3.org/2000/svg" viewBox="0 0 119.59 97.2">
  <defs>
    <style>.cls-1{fill:#0398cc;}</style>
  </defs>
  <g id="Layer_2" data-name="Layer 2">
    <g id="Layer_1-2" data-name="Layer 1">
      <path class="cls-1" d="M117.76,38.31a16.55,16.55,0,0,0-6.32-7.58c-8.21-5.22-20.73-5.59-29.19-.87a17,17,0,0,0-8.59,11.8c-1.71,7.88-1.27,17.25,4.8,23.16,7.08,6.2,17.38,7.57,26.54,5a12,12,0,0,0,2.76-.94l.27-.11a18.7,18.7,0,0,0,7.58-5.72c4.68-6.83,5-17.08,2.15-24.77M102.85,56a4.86,4.86,0,0,1-2.91,3.6,9.94,9.94,0,0,1-8.28-.49c-2-1.37-2.21-3.67-2.46-5.84-.19-4.28-.5-8.81.7-12.73.94-2.42,3.53-3,5.87-3.23,2.47,0,4.86.38,6.38,2.36.95,1.43.89,3.29,1.08,5-.07,3.54.25,7.75-.38,11.36M28,59.86c-2.09-.13-4.43,0-6.45-.2l.06-21.8.13-.18L28,37.62c.06-3.54.12-7.33-.07-10.56L4.08,27l-3.92.06C.1,30.35.1,34.2.16,37.56c2.15.06,4.17,0,6.26.19V58.86l-.07.87L.1,59.86C0,63.27,0,66.69.1,70.1H28V59.86Zm70.14,14.9a48.43,48.43,0,0,1-9.66,10.3c-.13.19-.51.12-.63-.06-1.59-1-3.29-1.8-4.81-2.79a52,52,0,0,0,5.5-7.52h-2a44.44,44.44,0,0,1-5.3,6.77,67.46,67.46,0,0,0-8.15-2.86l-.32-.24a30.56,30.56,0,0,0,1.51-3.67h-1.7L70.87,78a79.77,79.77,0,0,0-11.62-1.49c-.19-.56.06-1.37-.19-1.86H57.41c-.13.74.19,1.31-.19,1.92A72.42,72.42,0,0,0,45.85,78l-1.71-3.3a5.55,5.55,0,0,0-1.76.06L44,78.42l-.18.18a79.36,79.36,0,0,0-8.35,2.92l-.25-.13a48.59,48.59,0,0,1-4.87-6.14c-.31-1.06-1.58-.44-2.27-.56a53.86,53.86,0,0,0,5.56,7.64,59.17,59.17,0,0,1-5.19,2.92,45.62,45.62,0,0,1-10-10.49,7.19,7.19,0,0,0-2,0,49.61,49.61,0,0,0,19,16.95.06.06,0,0,1,.07-.06s.18.12,0,.18a52.14,52.14,0,0,0,15.93,4.91,49.73,49.73,0,0,0,48.65-22,9.65,9.65,0,0,0-2,0M71.76,80.34l.19-.12a35.12,35.12,0,0,1,7.71,2.67,40.19,40.19,0,0,1-7,6c-1.46.86-2.91,1.8-4.43,2.54l-2.71-1.18.18-.43a74.52,74.52,0,0,0,6.07-9.44M59.31,78.48a49.93,49.93,0,0,1,10.55,1.24l.07.19a64.17,64.17,0,0,1-6.38,9.62,16.92,16.92,0,0,1-3.16-.37L59.31,89c-.13-3.67-.19-6.9,0-10.56M47.12,79.6a54.88,54.88,0,0,1,10.23-1.12L57.42,89c-1.33.3-2.79.3-4.05.62a55.28,55.28,0,0,1-6.57-9.76l.32-.24ZM36.94,83a41.33,41.33,0,0,1,7.71-2.73l.25.06a97.49,97.49,0,0,0,6.38,9.87c-.88.5-2,.8-2.84,1.31a42.56,42.56,0,0,1-11.5-8.33V83Zm8.15,10.62A44.94,44.94,0,0,1,30.3,86.62v-.2A37,37,0,0,1,35,83.81a64.45,64.45,0,0,0,11.37,8.76,4.76,4.76,0,0,1-1.26,1m23.45.8a48,48,0,0,1-20.86-.12c-.12-.31.32-.37.51-.55,5.87-3.8,15-3.8,20.79.3.19.37-.32.25-.44.37m6.06-1.73-3,.93a7.28,7.28,0,0,1-1.39-1l.13-.19a55.84,55.84,0,0,0,11.18-8.63,25.72,25.72,0,0,1,4.88,2.67A42.68,42.68,0,0,1,74.6,92.64M18.3,22.28a57.76,57.76,0,0,1,5.12-6.15A33.17,33.17,0,0,1,28.35,12c1.64,1,3.47,1.93,5,2.92A53.55,53.55,0,0,0,28,22.34a3.8,3.8,0,0,0,1.9,0,47.42,47.42,0,0,1,5.3-6.65c2.72,1,5.37,2,8.16,2.8l.24.25L42,22.34a5.91,5.91,0,0,0,1.83,0c.57-1.05,1-2.23,1.64-3.29a62,62,0,0,0,11.44,1.36c.5.44.13,1.37.32,1.93h1.7c.19-.61-.06-1.31.19-1.86a60.34,60.34,0,0,0,11.07-1.43l.31.06,1.7,3.22A4,4,0,0,0,74,22.21l-1.58-3.6.13-.12a68.18,68.18,0,0,0,8.4-3,57.08,57.08,0,0,1,5.44,6.82,5.7,5.7,0,0,0,1.9-.13,25.55,25.55,0,0,0-2.72-3.91A27.66,27.66,0,0,0,82.76,15v-.32l4.42-2.54.64-.25a46.29,46.29,0,0,1,10,10.36c.75,0,1.39.27,2-.05A50,50,0,0,0,62.29.18L62.22.3,62.09.18A28.5,28.5,0,0,0,56.46.11a14.37,14.37,0,0,0-2.33.07A49.54,49.54,0,0,0,16.27,22.34a7.26,7.26,0,0,0,2-.06m26.23-5.46-.25.06a49.76,49.76,0,0,1-7.53-2.55l.12-.37A49.68,49.68,0,0,1,48.06,5.83C49,6.2,50,6.51,50.9,7l-.18.49a78.25,78.25,0,0,0-6.19,9.38M57.1,18.49A22.52,22.52,0,0,1,52,18.3a35.09,35.09,0,0,1-5.56-1A55.5,55.5,0,0,1,53,7.57l4,.56c.19,3.22.06,7,.06,10.36m2,.07c-.13-3.3-.06-7,0-10.38L63,7.63a53.65,53.65,0,0,1,6.51,9.68,45.29,45.29,0,0,1-10.43,1.25m20.16-4.35a41.64,41.64,0,0,1-7.71,2.61A105.57,105.57,0,0,0,65,7.06c.89-.48,2-.86,2.92-1.35A44.73,44.73,0,0,1,79.34,14ZM71.13,3.59a45.23,45.23,0,0,1,14.85,7l-.13.25L81.5,13.21h-.33A55,55,0,0,0,69.93,4.65c.12-.44.76-.75,1.2-1.06M68.6,3V3.1c-5.5,4-14.41,4.34-20.22.67-.32-.25-1-.37-1-.8A47.31,47.31,0,0,1,68.6,3m-38.55,7.7A45.62,45.62,0,0,1,43.14,4.09c.19-.19.31-.38.56-.38v.13c.5.12.88-.44,1.33-.07s.82.57,1.13.88a64.12,64.12,0,0,0-11.31,8.74,20.72,20.72,0,0,1-4.8-2.6v-.12ZM57.16,60.34c-5.94,1.62-12.39.38-16.68-4.09-.5-.62-.82-1.36-1.33-2l-8.53.06c-.13,5-.19,10.8,0,15.77L40.1,70l.12-3c1.08.49,2.16,1.11,3.23,1.67,6.57,2.74,15,3.36,21.54,0a12.78,12.78,0,0,0,6.58-13c-.7-5.27-5.75-10.06-10.87-11.36L45.41,39.92l-1.14-.56a1.77,1.77,0,0,1-.7-1.68c1.2-2,4-1.42,6.07-1.37,4.43.63,9,2.12,11.57,6.16,2.77,0,6,.05,9-.07.13-5.09,0-9.56-.13-14.71-2.84-.07-6.32-.07-9.16.06a11.49,11.49,0,0,1-.19,2.54l-2.91-1.55c-7-2.92-16.68-3.23-23,1.31-4.11,3-5.37,8.32-4.29,13,.81,4.46,5.11,7.75,9.22,9.3,5.62,2,11.5,3.42,17.19,5.35.57.25,1.32.81,1.2,1.49s-.57.87-1,1.11"></path>
    </g>
  </g>
</svg>
