<?xml version="1.0" encoding="UTF-8"?>
<svg xmlns="http://www.w3.org/2000/svg" viewBox="0 0 99 99.08">
  <defs>
    <style>.cls-1{fill:#7f8184;}.cls-2{fill:#fcfcfd;}</style>
  </defs>
  <g id="Layer_2" data-name="Layer 2">
    <g id="Layer_1-2" data-name="Layer 1">
      <path class="cls-1" d="M0,47.73a49.59,49.59,0,0,1,97.85-9.36,49.17,49.17,0,0,1,1,6.16,3,3,0,0,0,.1.6c0,.12,0,8.9,0,9-.07.51-.12,1-.18,1.53a49.53,49.53,0,0,1-45.34,43.4c-.2,0-7.52,0-7.68,0-1-.13-1.9-.19-2.84-.31A49.55,49.55,0,0,1,0,51.5C0,51.28,0,48,0,47.73ZM49.63,1.89A47.72,47.72,0,1,0,97.26,49.6,47.7,47.7,0,0,0,49.63,1.89Z"></path>
      <path class="cls-2" d="M49.63,1.89A47.72,47.72,0,1,1,1.86,49.38,47.71,47.71,0,0,1,49.63,1.89Zm-46,50C3.74,61.66,7.82,72.15,16,81a7.76,7.76,0,0,1,2.27,3.32c.08.32.28.52.62.34.57-.3.94,0,1.36.34q17.52,14,39.5,9.41a44.24,44.24,0,0,0,19-9.32c.29-.23.53-.61,1-.43s.55-.08.66-.4a3.86,3.86,0,0,1,.87-1.43c11.37-11.32,16-25,13.57-40.81C91.05,17.48,67.51.39,42.88,4.1,20.22,7.51,3.6,26.78,3.6,51.86Z"></path>
      <path class="cls-1" d="M3.6,51.86C3.6,26.78,20.22,7.51,42.88,4.1,67.51.39,91.05,17.48,94.87,42c2.46,15.85-2.2,29.49-13.57,40.81a3.86,3.86,0,0,0-.87,1.43c-.11.32-.25.57-.66.4s-.71.2-1,.43a44.24,44.24,0,0,1-19,9.32Q37.8,99.07,20.25,85c-.42-.34-.79-.64-1.36-.34-.34.18-.54,0-.62-.34A7.76,7.76,0,0,0,16,81C7.82,72.15,3.74,61.66,3.6,51.86Zm21-31.63c.22.06.45.11.67.18,1.09.37,2.19.72,3.28,1.12.56.2.82-.22,1.1-.5s-.1-.5-.25-.68c-1.1-1.4-2.23-2.77-3.32-4.17-.31-.39-.51-.41-.92-.1s-.4.58-.07,1c.68.8,1.32,1.64,2,2.46a.79.79,0,0,1-.56,0c-1.17-.4-2.33-.8-3.49-1.23-.59-.21-.87.23-1.17.54s.11.5.26.69c1.12,1.41,2.26,2.8,3.37,4.22.33.43.55.26.87,0s.49-.45.14-.85c-.7-.82-1.34-1.69-2-2.54ZM41.14,65.05a6.56,6.56,0,0,1-1.67-1.57,43.75,43.75,0,0,1-9.81-18.07c-.08-.26,0-.77-.43-.68s-.14.49-.08.73a42,42,0,0,0,12.48,21.6,1,1,0,0,0,.79.4c1.75-.08,3.5-.15,5.25-.2.58,0,.49-.27.28-.62a2.63,2.63,0,0,0-1-.77,16.59,16.59,0,0,1-4.91-4.06c-1.19-1.66-.7-3,1.25-3.57a2.35,2.35,0,0,0,1.81-2A2.24,2.24,0,0,0,44,53.79a9.59,9.59,0,0,1-4.18-5.27A5.94,5.94,0,0,1,39.36,46a1.83,1.83,0,0,1,2.47-1.85c.58.12,1.14.33,1.71.46,1,.23,1.37-.16,1.12-1.16A9.63,9.63,0,0,0,43.58,41a15.27,15.27,0,0,1-1.75-4.52,6.64,6.64,0,0,1-.06-2.91c.32-1.33,1.24-1.76,2.42-1.08.45.25.83.61,1.25.9s.84.78,1.37.52.4-1,.35-1.47a30,30,0,0,1-.27-3.54,6.33,6.33,0,0,1,.75-3.19,2.27,2.27,0,0,1,4,0,4.62,4.62,0,0,1,.58,1.58,12.55,12.55,0,0,1,.07,3.62c-.07.66-.16,1.33-.21,2,0,.38,0,.82.39,1s.69-.09,1-.28a19.34,19.34,0,0,1,1.83-1.28,1.4,1.4,0,0,1,2.13.91,5.46,5.46,0,0,1,.13,2.6A14.72,14.72,0,0,1,55.73,41a8.65,8.65,0,0,0-1.13,2.61c-.14.74.21,1.1.95,1,.48-.09.94-.25,1.41-.38,2.11-.6,3.18.29,3,2.49,0,.15,0,.31-.07.46a9.68,9.68,0,0,1-4.46,6.57,2.38,2.38,0,0,0-.79,3.63,2.69,2.69,0,0,0,1.48.9c1.7.48,2.19,1.76,1.28,3.28a7.86,7.86,0,0,1-1.52,1.74A24.11,24.11,0,0,1,52.19,66a2.38,2.38,0,0,0-.82.69c-.27.41-.27.62.32.64,1.54,0,3.09.08,4.63.2A1.8,1.8,0,0,0,57.83,67,42.14,42.14,0,0,0,70.12,45.67c.08-.31.38-.86,0-1s-.41.54-.5.86A43.59,43.59,0,0,1,58.93,64.45a1.87,1.87,0,0,1-.82.63c.12-.37.19-.64.3-.89a7.72,7.72,0,0,0,.64-3.61A15.39,15.39,0,0,0,58.22,57c-.26-.75-.55-1.49-.8-2.25a1.23,1.23,0,0,1,.39-1.53,1.36,1.36,0,0,1,1.65.12,2.39,2.39,0,0,1,.68.83c.24.39.49.78.76,1.15.12.17.27.35.51.3s.26-.29.31-.49a3,3,0,0,0,0-1.22c-.26-1.55-.52-3.1-.76-4.65a6.48,6.48,0,0,1,.19-3.57c.48-1.13,1.08-1.25,1.85-.32.55.65,1.05,1.34,1.57,2,.13.16.27.35.51.29s.32-.32.34-.55a4,4,0,0,0,0-.69,14.71,14.71,0,0,0-.73-3.15,6.51,6.51,0,0,1-.38-2,1.64,1.64,0,0,1,1.09-1.62,1.43,1.43,0,0,1,1.72.7c.12.16.23.34.36.5s.23.38.48.31.23-.33.24-.53c0-.72,0-1.44.1-2.16a1.77,1.77,0,0,1,1.88-1.76,3.07,3.07,0,0,1,3.07,3.17c0,.52-.09,1-.09,1.54,0,.76.28,1,1,.9,1.19-.2,1.66.22,1.63,1.45a6.19,6.19,0,0,1-2,4.14c-.53.57-1.07,1.12-1.58,1.7-.2.22-.43.49-.2.83a.89.89,0,0,0,.88.36,5.71,5.71,0,0,0,1.45-.52,1.15,1.15,0,0,1,1.71.76,2.69,2.69,0,0,1-.7,3.1,10.13,10.13,0,0,1-3.7,2.18,2.84,2.84,0,0,0-1.43,1,.51.51,0,0,0-.13.5.45.45,0,0,0,.53.21c.43-.08.85-.2,1.28-.28a1.71,1.71,0,0,1,2,2.14,4.35,4.35,0,0,1-1.28,2.07,12.7,12.7,0,0,1-6.25,3.5,40.94,40.94,0,0,0-6,1.86c-.24.09-.56.1-.71.44.34,0,.64.1.94.13A85.9,85.9,0,0,1,71,69.46,1.25,1.25,0,0,0,72.4,69a29.39,29.39,0,0,0,6.83-23.23A29.93,29.93,0,1,0,26.68,68.92a1.21,1.21,0,0,0,1.37.48,84,84,0,0,1,10.21-1.6c.43,0,.86-.1,1.29-.16a31,31,0,0,0-6.68-2.26,12.78,12.78,0,0,1-6.24-3.52A4.35,4.35,0,0,1,25.44,60a1.72,1.72,0,0,1,2.11-2.28c.3.06.59.17.9.22s.6.15.76-.18-.11-.53-.3-.73a3.23,3.23,0,0,0-1.31-.8A9.88,9.88,0,0,1,23.92,54a2.7,2.7,0,0,1-.56-3.26,1.08,1.08,0,0,1,1.47-.6c.46.17.9.38,1.37.52a.92.92,0,0,0,1.11-.31c.25-.39-.06-.7-.29-.95-.67-.76-1.38-1.46-2-2.22a5.48,5.48,0,0,1-1.44-3.65c0-1.07.52-1.5,1.56-1.32.78.13,1-.08,1-.87,0-.34-.07-.67-.09-1a3.64,3.64,0,0,1,1.28-3.17A2.44,2.44,0,0,1,30,36.82c.86.32,1,1.09,1.11,1.88.05.61,0,1.23,0,1.85,0,.21,0,.44.24.53s.36-.14.49-.29a8,8,0,0,1,.66-.85,1.36,1.36,0,0,1,2.14.17,2.12,2.12,0,0,1,.31,1.77c-.19.83-.42,1.65-.66,2.46a10,10,0,0,0-.41,2.43c0,.31,0,.67.29.82s.54-.21.72-.43c.52-.64,1-1.31,1.53-1.94s1.21-.67,1.65.23a5.21,5.21,0,0,1,.38,3.09c-.25,1.63-.52,3.25-.79,4.88A5.13,5.13,0,0,0,37.58,55c0,.23.07.49.34.56s.39-.14.5-.3c.32-.47.61-.95.92-1.43a1.63,1.63,0,0,1,2-.75c.6.31.74,1,.41,1.9-.42,1.19-.86,2.37-1.19,3.59a8.19,8.19,0,0,0,.27,5.52,1.43,1.43,0,0,1,.24.95Zm8.18,3.07a98.36,98.36,0,0,0-22.21,2.34A65.29,65.29,0,0,0,15.78,74c-.37.16-.67.27-.44.82,1.17,2.8,2.29,5.62,3.41,8.44.17.43.37.45.76.33.9-.3,1.81-.57,2.73-.83a97.48,97.48,0,0,1,36.44-3.38A99,99,0,0,1,78.9,83.52c.67.22.91.07,1.16-.56q1.55-4,3.2-7.95c.22-.54.18-.79-.4-1-1.51-.61-3-1.19-4.56-1.68A94.56,94.56,0,0,0,49.32,68.12Zm-14.84-57a17.68,17.68,0,0,0-3,1.2c-.23.1-.16.28-.09.46q1.15,2.68,2.3,5.39c.11.26.23.37.52.24.84-.38,1.71-.72,2.54-1.13a1.8,1.8,0,0,0,1.11-1.72,1.87,1.87,0,0,0-1.21-1.88c-.28-.1-.31-.21-.26-.5A1.71,1.71,0,0,0,34.48,11.15ZM88.31,47.6c-.28.22-.39.32-.51.4-1,.69-2,1.39-3.09,2-.5.32-.36.77-.29,1.17s.45.24.7.24c1.75,0,3.5-.08,5.25-.1.46,0,.7-.08.69-.63s-.21-.69-.73-.68c-1,0-2.08,0-3.13,0,0-.23.18-.27.3-.35,1-.68,2-1.38,3.11-2,.54-.33.4-.8.33-1.23s-.49-.26-.77-.25c-1.74,0-3.49.07-5.24.08-.51,0-.67.18-.65.68s.17.66.68.64C86,47.57,87.06,47.6,88.31,47.6Zm-19-30c-.31-.23-.22-.48-.23-.7C69,15.72,69,14.59,69,13.46c0-.67-.5-.8-.92-1s-.45.32-.58.55c-.81,1.37-1.61,2.75-2.36,4.15-.2.37-.91.77,0,1.29s.87-.26,1.11-.63c.49-.78.93-1.6,1.43-2.48a1.66,1.66,0,0,1,.2,1c.06,1.13.13,2.26.16,3.39,0,.59.49.7.86.85s.43-.29.55-.51c.88-1.51,1.73-3,2.62-4.54.26-.45.24-.67-.24-1s-.7-.09-.92.33C70.37,15.78,69.85,16.65,69.33,17.55ZM50.08,52.45H50q0-7,0-14c0-.29.17-.84-.28-.82s-.24.55-.25.86c-.23,9.28-.19,18.56-.1,27.84,0,.18,0,.36,0,.54s.06.4.34.41.37-.19.37-.45,0-.3,0-.46ZM17.91,35c-.78.08-1.54.15-2.29.25-.33,0-.49,0-.6-.39a2.06,2.06,0,0,0-2-1.61,1.93,1.93,0,0,0-2,1.39c-.32.76-.56,1.55-.88,2.3-.2.46,0,.64.38.79q2.58.93,5.13,1.92c.39.15.57.1.75-.31s.16-.85-.45-1A5.32,5.32,0,0,1,15,38c-.24-.12-.7-.07-.57-.55s.19-.81.76-.8a10.92,10.92,0,0,0,1.15-.12C17.62,36.36,17.64,36.34,17.91,35ZM59.12,86.36a1.6,1.6,0,0,0-1.95-1.68c-.91.11-1.81.35-2.72.52-.36.06-.44.24-.37.59.37,1.73.73,3.47,1.08,5.2.05.25.1.46.43.39a18.86,18.86,0,0,0,3.08-.71,1.83,1.83,0,0,0,.46-3.22c-.22-.17-.32-.28-.17-.55A2,2,0,0,0,59.12,86.36ZM57.83,15.82a3.13,3.13,0,0,0,3.37-2.77,2.91,2.91,0,0,0-1.82-3.62c-.65-.25-1.34-.36-2-.55-.37-.11-.5.06-.58.39q-.65,2.77-1.32,5.54c-.07.3,0,.49.31.56A15.67,15.67,0,0,0,57.83,15.82ZM84,37.4A4.6,4.6,0,0,0,87.14,36a2.71,2.71,0,0,0-2-4.57,4.36,4.36,0,0,0-3.22,1.42,2.56,2.56,0,0,0-.52,2.93A2.69,2.69,0,0,0,84,37.4ZM77.72,20.13a2.78,2.78,0,0,0-3.09-2.57,4.29,4.29,0,0,0-3.3,3.71,2.59,2.59,0,0,0,1.55,2.55,2.32,2.32,0,0,0,2.72-.4c1.13-.94,1.13-1,0-2a3.38,3.38,0,0,1-.35-.31c-.28-.29-.53-.38-.8,0s-.66.53-.1.91c.11.09.29.18.23.36s-.3.27-.5.3A1.38,1.38,0,0,1,72.7,21a3.18,3.18,0,0,1,1.57-1.93,1.33,1.33,0,0,1,2.06,1.11c0,.79.64.54,1,.59S77.66,20.36,77.72,20.13ZM12.37,46a4.61,4.61,0,0,0,1.25-.18,2.67,2.67,0,0,0,1.91-2.69,2.43,2.43,0,0,0-2-2.39c-1.19-.32-1.19-.32-1.39.91l-.09.53c0,.33-.2.7.33.75s.84.29.93-.39.36-.39.62-.15a1.35,1.35,0,0,1-.61,2.13,3.09,3.09,0,0,1-2.4-.23,1.35,1.35,0,0,1-.22-2.45c.63-.44.06-.78,0-1.12s-.46-.17-.69,0a2.72,2.72,0,0,0-.49,4.2A4.23,4.23,0,0,0,12.37,46Zm3.38-15.78a.68.68,0,0,1-.64-1c.33-.58.66-1.16,1-1.72s-.05-.56-.33-.74-.54-.39-.8.08c-.57,1-1.17,2-1.78,3-.19.31-.18.48.15.68q2.49,1.47,5,3c.23.15.4.18.56-.1.64-1.08,1.29-2.16,1.94-3.24.3-.48-.15-.54-.39-.72s-.51-.35-.74.08-.69,1.08-1,1.66-.6.67-1.22.32-.43-.76-.15-1.21.64-.71-.07-1.09c-.47-.25-.7-.22-.95.26C16.19,29.68,16.05,30.06,15.75,30.22Zm70.34,14c1.17-.13,2.48-.53,3.82-.78.46-.08.72-.19.59-.79s-.43-.63-.92-.51c-1,.25-2,.48-3.09.68-.58.12-1.19.17-1.58-.45a1.23,1.23,0,0,1,.88-1.94c1.17-.31,2.35-.56,3.54-.79.44-.09.46-.33.33-.67s0-.78-.51-.65a31.53,31.53,0,0,0-4.19,1,2.3,2.3,0,0,0-1.53,2.83A2.41,2.41,0,0,0,86.09,44.18ZM41.66,15.82a2.51,2.51,0,0,0,2.66-3.14c-.19-1.11-.47-2.21-.69-3.32-.09-.47-.15-.81-.8-.67s-.63.4-.51.91c.27,1.15.53,2.31.69,3.48a1.2,1.2,0,0,1-1.69,1.31,1.49,1.49,0,0,1-.79-1.17C40.27,12.1,40,11,39.8,9.83c-.09-.47-.39-.41-.69-.32s-.74,0-.61.55c.31,1.36.55,2.73.94,4.06A2.21,2.21,0,0,0,41.66,15.82Zm-16.82,9.3c-.26-.23-.49-.46-.75-.66s-.41.08-.55.24c-.43.48-.87.95-1.25,1.46s-.61.53-1.09.12-.62-.76-.1-1.26c.31-.28.83-.56.18-1.14s-.81-.06-1.12.28c-.1.12-.21.23-.3.35-.29.41-.51.13-.75-.06s-.46-.39-.13-.73c.48-.51.89-1.07,1.37-1.57s.22-.59-.12-.86-.51-.46-.86,0c-.71.88-1.45,1.73-2.21,2.57-.29.32-.2.51.08.75,1.43,1.21,2.86,2.44,4.27,3.68.32.28.5.2.74-.09.75-.89,1.51-1.76,2.26-2.64C24.61,25.43,24.7,25.3,24.84,25.12Zm-10.18,35a29.13,29.13,0,0,0-4.47,1.55c-.17.06-.18.18-.16.37.12.79.37.95,1.11.68,1.09-.4,2.16-.82,3.26-1.19a1.1,1.1,0,0,1,1.27.29A1.25,1.25,0,0,1,16,63.1a1.53,1.53,0,0,1-1,.87c-1,.41-2.11.81-3.17,1.19-.31.12-.45.23-.34.61.19.61.43.89,1.09.54a9.93,9.93,0,0,1,1.22-.47,12.26,12.26,0,0,0,2.6-1.13,2.26,2.26,0,0,0,.92-2.7A2.46,2.46,0,0,0,14.66,60.11ZM8.4,54.32a2.21,2.21,0,0,0,1.8,2.42c1.17.11,1.8-.47,2.12-1.94.09-.43.17-.86.29-1.28a.59.59,0,0,1,.6-.49.64.64,0,0,1,.61.5,1.92,1.92,0,0,1-.21,1.84c-.44.64.21.73.47,1s.53-.07.68-.3a3.13,3.13,0,0,0,.42-2.51,2,2,0,0,0-1.95-1.86c-1.06,0-1.72.53-2,1.74-.13.52-.23,1-.36,1.57a.47.47,0,0,1-.51.39.56.56,0,0,1-.51-.4,1.55,1.55,0,0,1,.07-1.35c.49-.71-.1-.94-.5-1.14s-.54.31-.7.57A2.39,2.39,0,0,0,8.4,54.32ZM51.1,88.56h-.7c-.38,0-.49.19-.46.53s-.1.65.4.67c.18,0,.46-.12.51.18s-.18.47-.41.6A1.4,1.4,0,0,1,48.56,90a2.55,2.55,0,0,1-.33-1.48,1.74,1.74,0,0,1,.9-1.67,1.3,1.3,0,0,1,1.64.43c.37.4.77-.05,1.08-.24s0-.46-.13-.65a2.62,2.62,0,0,0-4.3.38,3.85,3.85,0,0,0,0,4,2.58,2.58,0,0,0,2.89,1.12,2.3,2.3,0,0,0,1.83-2.13C52.32,88.6,52.27,88.54,51.1,88.56ZM42.89,85c-1.34,0-2.11.47-2.33,1.34s.13,1.61,1.2,2.13c.39.19.8.35,1.18.55s.52.37.42.74a.67.67,0,0,1-.78.47A2.17,2.17,0,0,1,41,89.51c-.45-.52-.74,0-1,.2s0,.5.13.68a3.31,3.31,0,0,0,2.79,1,1.78,1.78,0,0,0,1.79-1.51,1.7,1.7,0,0,0-1-2c-.47-.25-1-.46-1.45-.7-.25-.13-.42-.32-.33-.62s.33-.37.6-.38a1.66,1.66,0,0,1,1.32.54c.49.56.78,0,1.07-.22s0-.53-.21-.72A2.72,2.72,0,0,0,42.89,85Zm-10.27,1.7A2.51,2.51,0,0,0,37.42,88c.47-1,.8-2.11,1.22-3.16.16-.41.14-.64-.34-.8s-.69-.2-.87.34c-.29.93-.65,1.85-1,2.75s-1,1.33-1.77,1.05-.93-1-.63-1.89c.14-.44.31-.88.47-1.31s.4-1.11.62-1.66c.14-.35,0-.5-.32-.55s-.62-.47-.79,0A23.14,23.14,0,0,0,32.62,86.66ZM86.87,53.35a3.73,3.73,0,0,0-1.78.39,2.74,2.74,0,0,0-.81,4.1c.18.21.39.61.71.18s.81-.41.34-1a1.37,1.37,0,0,1,1-2.26,3.43,3.43,0,0,1,2,.35,1.34,1.34,0,0,1,.2,2.41c-.63.43-.09.77,0,1.11.14.51.49.2.73.07a2.73,2.73,0,0,0,.35-4.31A4.42,4.42,0,0,0,86.87,53.35Zm-5-28a4.39,4.39,0,0,0-3.74,2.56,2.72,2.72,0,0,0,2,3.64c.28,0,.75.26.77-.29,0-.38.29-.91-.51-1A1.35,1.35,0,0,1,79.62,28a3.22,3.22,0,0,1,2-1.27,1.3,1.3,0,0,1,1.62,1.61c-.17.74.42.65.74.82s.51-.17.6-.45A2.72,2.72,0,0,0,81.89,25.37ZM64.05,82.5a2.69,2.69,0,0,0-2.83,2.21,3.87,3.87,0,0,0,1.4,3.65,2.63,2.63,0,0,0,4.11-1.18c.07-.23.29-.61-.18-.68s-.75-.38-1,.24a1.33,1.33,0,0,1-2.4.27,2.75,2.75,0,0,1-.66-1.92,1.29,1.29,0,0,1,1.72-1.23c.71.29.95-.24,1.12-.59s-.37-.5-.65-.64A2,2,0,0,0,64.05,82.5ZM82.87,64.16l.41.18c1.26.58,2.52,1.14,3.77,1.75.5.25.6,0,.77-.39s.3-.61-.21-.83c-1.72-.76-3.41-1.55-5.11-2.35-.37-.18-.55-.09-.71.27-.45,1-.91,2.06-1.42,3.07-.24.49,0,.61.37.78s.64.28.84-.22c.25-.65.57-1.27.86-1.89C82.52,64.35,82.56,64.11,82.87,64.16ZM49.76,11.62h0c0,.9-.09,1.79-.15,2.69,0,.33.06.54.45.55,1.18.05,2.36.12,3.54.19.54,0,.46-.36.49-.68s0-.61-.44-.62c-.64,0-1.28-.11-1.92-.1s-.77-.17-.72-.76c.11-1.31.14-2.62.24-3.93,0-.48,0-.76-.6-.78s-.73.11-.74.67C49.9,9.77,49.81,10.69,49.76,11.62Zm-2.1.09c-.06-1-.15-2-.19-2.93,0-.48-.24-.56-.64-.49s-.75-.07-.7.54c.15,1.9.28,3.79.39,5.69,0,.52.32.49.67.46s.73,0,.67-.58C47.76,13.5,47.72,12.6,47.66,11.71Zm15,5.71c.41,0,.42-.25.5-.44.67-1.7,1.31-3.41,2-5.09.21-.51,0-.67-.4-.85s-.67-.16-.85.34c-.62,1.67-1.29,3.31-1.93,5C61.71,17,62,17.4,62.63,17.42ZM89.26,61.61c0-.38-.31-.35-.53-.42l-5.07-1.6c-.46-.15-.73-.18-.91.4s0,.72.48.87c1.68.5,3.34,1,5,1.55C88.91,62.62,89.26,62.35,89.26,61.61ZM14.09,49.05a.9.9,0,0,0-.9.87.89.89,0,0,0,.92.92.86.86,0,0,0,.86-.9A.88.88,0,0,0,14.09,49.05Zm1.05,10.18a.85.85,0,0,0,.91-.86.81.81,0,0,0-.84-.89.82.82,0,0,0-.93.88C14.27,58.9,14.63,59.17,15.14,59.23Z"></path>
      <path class="cls-2" d="M41.12,65.07a1.43,1.43,0,0,0-.24-.95,8.19,8.19,0,0,1-.27-5.52c.33-1.22.77-2.4,1.19-3.59.33-.95.19-1.59-.41-1.9a1.63,1.63,0,0,0-2,.75c-.31.48-.6,1-.92,1.43-.11.16-.27.35-.5.3s-.3-.33-.34-.56a5.13,5.13,0,0,1,.07-1.61c.27-1.63.54-3.25.79-4.88a5.21,5.21,0,0,0-.38-3.09c-.44-.9-1-1-1.65-.23s-1,1.3-1.53,1.94c-.18.22-.34.6-.72.43s-.3-.51-.29-.82a10,10,0,0,1,.41-2.43c.24-.81.47-1.63.66-2.46a2.12,2.12,0,0,0-.31-1.77,1.36,1.36,0,0,0-2.14-.17,8,8,0,0,0-.66.85c-.13.15-.24.38-.49.29s-.23-.32-.24-.53c0-.62,0-1.24,0-1.85-.07-.79-.25-1.56-1.11-1.88a2.44,2.44,0,0,0-2.61.37,3.64,3.64,0,0,0-1.28,3.17c0,.33.09.66.09,1,0,.79-.27,1-1,.87-1-.18-1.56.25-1.56,1.32A5.48,5.48,0,0,0,25,47.2c.66.76,1.37,1.46,2,2.22.23.25.54.56.29.95a.92.92,0,0,1-1.11.31c-.47-.14-.91-.35-1.37-.52a1.08,1.08,0,0,0-1.47.6A2.7,2.7,0,0,0,23.92,54a9.88,9.88,0,0,0,3.68,2.2,3.23,3.23,0,0,1,1.31.8c.19.2.44.43.3.73s-.49.22-.76.18-.6-.16-.9-.22A1.72,1.72,0,0,0,25.44,60a4.35,4.35,0,0,0,1.19,1.87,12.78,12.78,0,0,0,6.24,3.52,31,31,0,0,1,6.68,2.26c-.43.06-.86.12-1.29.16a84,84,0,0,0-10.21,1.6,1.21,1.21,0,0,1-1.37-.48A29.93,29.93,0,1,1,79.23,45.74,29.39,29.39,0,0,1,72.4,69a1.25,1.25,0,0,1-1.45.49,85.9,85.9,0,0,0-10.36-1.64c-.3,0-.6-.08-.94-.13.15-.34.47-.35.71-.44a40.94,40.94,0,0,1,6-1.86,12.7,12.7,0,0,0,6.25-3.5,4.35,4.35,0,0,0,1.28-2.07,1.71,1.71,0,0,0-2-2.14c-.43.08-.85.2-1.28.28a.45.45,0,0,1-.53-.21.51.51,0,0,1,.13-.5,2.84,2.84,0,0,1,1.43-1,10.13,10.13,0,0,0,3.7-2.18,2.69,2.69,0,0,0,.7-3.1,1.15,1.15,0,0,0-1.71-.76,5.71,5.71,0,0,1-1.45.52.89.89,0,0,1-.88-.36c-.23-.34,0-.61.2-.83.51-.58,1.05-1.13,1.58-1.7a6.19,6.19,0,0,0,2-4.14c0-1.23-.44-1.65-1.63-1.45-.69.11-1-.14-1-.9,0-.51.1-1,.09-1.54a3.07,3.07,0,0,0-3.07-3.17,1.77,1.77,0,0,0-1.88,1.76c-.08.72-.06,1.44-.1,2.16,0,.2,0,.45-.24.53s-.36-.15-.48-.31-.24-.34-.36-.5a1.43,1.43,0,0,0-1.72-.7,1.64,1.64,0,0,0-1.09,1.62,6.51,6.51,0,0,0,.38,2,14.71,14.71,0,0,1,.73,3.15,4,4,0,0,1,0,.69c0,.23-.07.48-.34.55s-.38-.13-.51-.29c-.52-.66-1-1.35-1.57-2-.77-.93-1.37-.81-1.85.32A6.48,6.48,0,0,0,61,49.23c.24,1.55.5,3.1.76,4.65a3,3,0,0,1,0,1.22c0,.2-.08.43-.31.49s-.39-.13-.51-.3c-.27-.37-.52-.76-.76-1.15a2.39,2.39,0,0,0-.68-.83,1.36,1.36,0,0,0-1.65-.12,1.23,1.23,0,0,0-.39,1.53c.25.76.54,1.5.8,2.25a15.39,15.39,0,0,1,.83,3.61,7.72,7.72,0,0,1-.64,3.61c-.11.25-.18.52-.3.89a1.87,1.87,0,0,0,.82-.63A43.59,43.59,0,0,0,69.6,45.57c.09-.32,0-1,.5-.86s.1.65,0,1A42.14,42.14,0,0,1,57.83,67a1.8,1.8,0,0,1-1.51.53c-1.54-.12-3.09-.17-4.63-.2-.59,0-.59-.23-.32-.64a2.38,2.38,0,0,1,.82-.69,24.11,24.11,0,0,0,3.69-2.65,7.86,7.86,0,0,0,1.52-1.74c.91-1.52.42-2.8-1.28-3.28a2.69,2.69,0,0,1-1.48-.9,2.38,2.38,0,0,1,.79-3.63,9.68,9.68,0,0,0,4.46-6.57c0-.15,0-.31.07-.46.18-2.2-.89-3.09-3-2.49-.47.13-.93.29-1.41.38-.74.13-1.09-.23-.95-1A8.65,8.65,0,0,1,55.73,41a14.72,14.72,0,0,0,1.86-5.13,5.46,5.46,0,0,0-.13-2.6,1.4,1.4,0,0,0-2.13-.91,19.34,19.34,0,0,0-1.83,1.28c-.3.19-.62.46-1,.28s-.41-.64-.39-1c.05-.66.14-1.33.21-2a12.55,12.55,0,0,0-.07-3.62,4.62,4.62,0,0,0-.58-1.58,2.27,2.27,0,0,0-4,0,6.33,6.33,0,0,0-.75,3.19,30,30,0,0,0,.27,3.54c.05.52.24,1.18-.35,1.47s-1-.24-1.37-.52-.8-.65-1.25-.9c-1.18-.68-2.1-.25-2.42,1.08a6.64,6.64,0,0,0,.06,2.91A15.27,15.27,0,0,0,43.58,41a9.63,9.63,0,0,1,1.08,2.38c.25,1-.13,1.39-1.12,1.16-.57-.13-1.13-.34-1.71-.46A1.83,1.83,0,0,0,39.36,46a5.94,5.94,0,0,0,.41,2.57A9.59,9.59,0,0,0,44,53.79a2.24,2.24,0,0,1,1.2,2.47,2.35,2.35,0,0,1-1.81,2c-2,.56-2.44,1.91-1.25,3.57A16.59,16.59,0,0,0,47,65.87a2.63,2.63,0,0,1,1,.77c.21.35.3.6-.28.62-1.75,0-3.5.12-5.25.2a1,1,0,0,1-.79-.4,42,42,0,0,1-12.48-21.6c-.06-.24-.26-.67.08-.73s.35.42.43.68a43.75,43.75,0,0,0,9.81,18.07,6.56,6.56,0,0,0,1.67,1.57s0,0,0,.06,0,0,0,0Z"></path>
      <path class="cls-2" d="M49.32,68.12a94.56,94.56,0,0,1,29,4.18c1.54.49,3,1.07,4.56,1.68.58.24.62.49.4,1q-1.65,4-3.2,7.95c-.25.63-.49.78-1.16.56a99,99,0,0,0-20.22-4.13,97.48,97.48,0,0,0-36.44,3.38c-.92.26-1.83.53-2.73.83-.39.12-.59.1-.76-.33-1.12-2.82-2.24-5.64-3.41-8.44-.23-.55.07-.66.44-.82a65.29,65.29,0,0,1,11.33-3.55A98.36,98.36,0,0,1,49.32,68.12ZM77.76,78a7.13,7.13,0,0,1-.43,1.71c-.12.39-.08.61.36.74s.53-.15.62-.46c.34-1.15.69-2.31,1-3.47.08-.26.36-.59-.08-.8a.72.72,0,0,0-1,.2c-.5.67-1.08,1.28-1.62,1.91a.48.48,0,0,1-.23-.44c-.11-.76-.23-1.53-.32-2.29,0-.47-.42-.47-.73-.54s-.34.25-.4.45c-.37,1.23-.73,2.46-1.11,3.69-.12.36-.1.56.31.68s.55-.06.65-.41c.15-.57.34-1.14.51-1.72l.15,0,.41,2.62C76.62,79.34,77,78.55,77.76,78ZM64.65,74.17c.18.35.25.49.31.62.36.8.74,1.59,1.07,2.4a.77.77,0,0,0,.86.49c.36,0,.29-.37.33-.6.21-1.17.42-2.34.6-3.5.05-.32.27-.71-.34-.82s-.55.27-.63.61a11.87,11.87,0,0,1-.46,2.2c-.48-1-.91-1.95-1.29-2.88-.18-.43-.54-.46-.88-.47s-.31.37-.35.59c-.22,1.24-.42,2.49-.64,3.73-.07.38,0,.56.43.62s.49-.11.55-.44C64.33,75.94,64.48,75.16,64.65,74.17ZM35.66,72l-1.36.18c-.36,0-.48.21-.42.57.19,1.32.38,2.64.56,4,0,.26.12.44.43.39a6.39,6.39,0,0,0,2-.42,2.36,2.36,0,0,0,1.17-2.89A2.15,2.15,0,0,0,35.66,72ZM25.51,79.1c.92-.23,1.79-.45,2.67-.65.31-.08.5-.2.4-.58s-.26-.51-.65-.39a11.46,11.46,0,0,1-1.12.28c-.39.08-.81.39-1-.34s.27-.71.68-.78.6-.31.43-.74c-.24-.63-.65-.13-1-.13s-.49.13-.59-.26.07-.5.39-.57.9-.23,1.35-.33.53-.23.41-.64-.26-.44-.61-.34c-.79.22-1.59.41-2.39.6-.36.08-.45.25-.36.6.33,1.29.64,2.59,1,3.89C25.16,79,25.24,79.18,25.51,79.1Zm5.37-2.24c-.16.06-.26-.12-.34-.37-.17-.53-.05-.83.55-.89.29,0,.69,0,.63-.53s-.37-.48-.76-.44-.73.39-.82-.26.42-.46.71-.55A8.7,8.7,0,0,1,32,73.59c.38,0,.44-.23.39-.58s-.25-.45-.59-.39c-.8.17-1.61.33-2.42.47-.36.06-.47.22-.4.57.26,1.31.52,2.62.76,3.93.07.36.23.47.59.39q1.23-.27,2.49-.48c.39-.07.51-.24.43-.63s-.3-.42-.62-.35Zm40,1.75a1.88,1.88,0,0,0,1.84-1.49c.24-.83.4-1.7.62-2.54.1-.4,0-.54-.42-.64s-.5.08-.57.4c-.15.68-.31,1.35-.47,2-.23.95-.66,1.34-1.3,1.2s-.87-.71-.66-1.63c.15-.71.31-1.41.49-2.1.08-.33,0-.49-.34-.55s-.56-.12-.65.29c-.19.93-.46,1.85-.59,2.79A1.94,1.94,0,0,0,70.91,78.61ZM55.09,76.2c.48.08.53-.12.4-.52-.46-1.33-.91-2.67-1.33-4a.62.62,0,0,0-.66-.49.61.61,0,0,0-.69.46c-.54,1.28-1.08,2.55-1.66,3.81-.23.52,0,.62.43.62a.54.54,0,0,0,.6-.46c.13-.62.56-.64,1.06-.57s1.08-.13,1.17.65A.53.53,0,0,0,55.09,76.2ZM41.63,73.74c0,.72.09,1.43.12,2.15,0,.33.17.44.49.42s.56-.06.53-.47-.24-.9,0-1.2.83-.11,1.25-.22l.15,0a1.49,1.49,0,0,0,1.28-1.72,1.46,1.46,0,0,0-1.59-1.42c-.62,0-1.23.08-1.85.08-.47,0-.54.24-.49.64C41.58,72.56,41.59,73.15,41.63,73.74ZM59,72.54c.57.1.9.15.94-.42s-.3-.51-.63-.54l-2.54-.21c-.36,0-.66-.06-.69.45s.3.53.63.52c.61,0,.79.24.7.85-.14.84-.17,1.69-.25,2.53,0,.35-.08.66.43.72s.54-.23.57-.59c.08-.87.19-1.74.23-2.61C58.45,72.67,58.63,72.4,59,72.54ZM24.14,79.15c-.08-.35-.13-.74-.68-.52s-.84.22-1.24.39-.72,0-.86-.47c-.24-.92-.54-1.82-.81-2.73-.09-.31-.26-.39-.57-.28s-.54.15-.41.56c.41,1.3.8,2.6,1.19,3.9.09.29.23.44.55.33l2.5-.76C24,79.5,24.21,79.43,24.14,79.15Zm22.53-5.57h0c0,.64,0,1.29,0,1.93,0,.39.13.56.53.55.83,0,1.65,0,2.47,0,.36,0,.52-.11.51-.49s-.14-.51-.51-.5-.92,0-1.38,0-.63-.16-.62-.62c0-.9,0-1.8,0-2.7,0-.33.05-.67-.48-.67s-.52.28-.51.65C46.68,72.34,46.67,73,46.67,73.58Zm14.1,2.65c-.09.35,0,.54.44.59s.52-.18.56-.52c.16-1.27.32-2.55.5-3.82,0-.38-.05-.56-.46-.61s-.51.1-.55.44C61.1,73.61,60.93,74.91,60.77,76.23Z"></path>
      <path class="cls-2" d="M34.48,11.15a1.71,1.71,0,0,1,1.87,2.06c-.05.29,0,.4.26.5a1.87,1.87,0,0,1,1.21,1.88,1.8,1.8,0,0,1-1.11,1.72c-.83.41-1.7.75-2.54,1.13-.29.13-.41,0-.52-.24q-1.14-2.7-2.3-5.39c-.07-.18-.14-.36.09-.46A17.68,17.68,0,0,1,34.48,11.15Zm2,4.44c-.06-.44-.23-.85-.81-.89a3.19,3.19,0,0,0-1.73.82,2.62,2.62,0,0,0,.75,1.33C35.21,16.88,36.44,16.05,36.45,15.59Zm-2.91-1.44a5.89,5.89,0,0,0,1.45-.7.54.54,0,0,0,.07-.7.51.51,0,0,0-.64-.3c-.43.16-.85.34-1.27.52s-.2.38-.09.58S33.15,14.13,33.54,14.15Z"></path>
      <path class="cls-2" d="M88.31,47.6c-1.25,0-2.3,0-3.35,0-.51,0-.66-.15-.68-.64s.14-.68.65-.68c1.75,0,3.5-.07,5.24-.08.28,0,.7-.2.77.25s.21.9-.33,1.23c-1.06.64-2.08,1.34-3.11,2-.12.08-.29.12-.3.35,1,0,2.09,0,3.13,0,.52,0,.73.12.73.68s-.23.62-.69.63c-1.75,0-3.5.08-5.25.1-.25,0-.64.17-.7-.24s-.21-.85.29-1.17c1-.66,2.06-1.36,3.09-2C87.92,47.92,88,47.82,88.31,47.6Z"></path>
      <path class="cls-2" d="M24.53,20.34c.67.85,1.31,1.72,2,2.54.35.4.19.6-.14.85s-.54.42-.87,0c-1.11-1.42-2.25-2.81-3.37-4.22-.15-.19-.55-.4-.26-.69s.58-.75,1.17-.54c1.16.43,2.32.83,3.49,1.23a.79.79,0,0,0,.56,0c-.66-.82-1.3-1.66-2-2.46-.33-.39-.38-.62.07-1s.61-.29.92.1c1.09,1.4,2.22,2.77,3.32,4.17.15.18.56.38.25.68s-.54.7-1.1.5c-1.09-.4-2.19-.75-3.28-1.12-.22-.07-.45-.12-.67-.18,0,0-.1-.07-.12-.06S24.49,20.29,24.53,20.34Z"></path>
      <path class="cls-2" d="M69.33,17.55c.52-.9,1-1.77,1.52-2.67.22-.42.4-.65.92-.33s.5.51.24,1c-.89,1.5-1.74,3-2.62,4.54-.12.22-.17.65-.55.51S68,20.3,68,19.71c0-1.13-.1-2.26-.16-3.39a1.66,1.66,0,0,0-.2-1c-.5.88-.94,1.7-1.43,2.48-.24.37-.25,1.14-1.11.63s-.17-.92,0-1.29c.75-1.4,1.55-2.78,2.36-4.15.13-.23.17-.72.58-.55s.93.3.92,1c0,1.13.07,2.26.13,3.39C69.11,17.07,69,17.32,69.33,17.55Z"></path>
      <path class="cls-2" d="M50.08,52.45V66.33c0,.16,0,.31,0,.46s0,.47-.37.45-.34-.18-.34-.41,0-.36,0-.54c-.09-9.28-.13-18.56.1-27.84,0-.31-.14-.85.25-.86s.27.53.28.82q0,7,0,14Z"></path>
      <path class="cls-2" d="M17.91,35c-.27,1.39-.29,1.41-1.55,1.53a10.92,10.92,0,0,1-1.15.12c-.57,0-.66.41-.76.8s.33.43.57.55a5.32,5.32,0,0,0,.94.35c.61.14.7.43.45,1s-.36.46-.75.31q-2.55-1-5.13-1.92c-.41-.15-.58-.33-.38-.79.32-.75.56-1.54.88-2.3a1.93,1.93,0,0,1,2-1.39,2.06,2.06,0,0,1,2,1.61c.11.37.27.43.6.39C16.37,35.1,17.13,35,17.91,35Zm-4.13.25c0-.43-.39-.64-.87-.66s-1.38,1.39-1.21,2,.79.48,1.22.64C13.15,37.22,13.8,35.85,13.78,35.2Z"></path>
      <path class="cls-2" d="M59.12,86.36a2,2,0,0,1-.16.54c-.15.27-.05.38.17.55a1.83,1.83,0,0,1-.46,3.22,18.86,18.86,0,0,1-3.08.71c-.33.07-.38-.14-.43-.39-.35-1.73-.71-3.47-1.08-5.2-.07-.35,0-.53.37-.59.91-.17,1.81-.41,2.72-.52A1.6,1.6,0,0,1,59.12,86.36Zm-1.48,1.73-1.4.29c-.39.09-.32.39-.22.61s-.12,1,.51.94a6,6,0,0,0,1.56-.34.68.68,0,0,0,.46-.86A.77.77,0,0,0,57.64,88.09Zm-.59-2.22-1.25.25c-.43.1-.3.41-.24.67s.09.58.51.48L57.35,87a.54.54,0,0,0,.48-.66C57.77,85.94,57.5,85.85,57.05,85.87Z"></path>
      <path class="cls-2" d="M57.83,15.82a15.67,15.67,0,0,1-2-.45c-.36-.07-.38-.26-.31-.56q.68-2.76,1.32-5.54c.08-.33.21-.5.58-.39.67.19,1.36.3,2,.55a2.91,2.91,0,0,1,1.82,3.62A3.13,3.13,0,0,1,57.83,15.82ZM60,12.19a1.69,1.69,0,0,0-1.47-1.71c-.39-.11-.61-.09-.71.38-.2,1-.45,2-.7,2.92-.11.42,0,.58.45.68C59,14.78,60,13.85,60,12.19Z"></path>
      <path class="cls-2" d="M84,37.4a2.69,2.69,0,0,1-2.61-1.67,2.56,2.56,0,0,1,.52-2.93,4.36,4.36,0,0,1,3.22-1.42,2.71,2.71,0,0,1,2,4.57A4.6,4.6,0,0,1,84,37.4ZM84.16,36a3.35,3.35,0,0,0,1.94-.92,1.39,1.39,0,0,0-1-2.42,3.32,3.32,0,0,0-2.14.93,1.33,1.33,0,0,0-.33,1.62C82.85,35.83,83.33,36.07,84.16,36Z"></path>
      <path class="cls-2" d="M77.72,20.13c-.06.23.11.7-.38.64s-1,.2-1-.59a1.33,1.33,0,0,0-2.06-1.11A3.18,3.18,0,0,0,72.7,21a1.38,1.38,0,0,0,1.4,1.74c.2,0,.42-.08.5-.3s-.12-.27-.23-.36c-.56-.38-.1-.62.1-.91s.52-.31.8,0a3.38,3.38,0,0,0,.35.31c1.11.95,1.11,1,0,2a2.32,2.32,0,0,1-2.72.4,2.59,2.59,0,0,1-1.55-2.55,4.29,4.29,0,0,1,3.3-3.71A2.78,2.78,0,0,1,77.72,20.13Z"></path>
      <path class="cls-2" d="M12.37,46a4.23,4.23,0,0,1-2.92-1.13,2.72,2.72,0,0,1,.49-4.2c.23-.12.56-.39.69,0s.67.68,0,1.12a1.35,1.35,0,0,0,.22,2.45,3.09,3.09,0,0,0,2.4.23,1.35,1.35,0,0,0,.61-2.13c-.26-.24-.55-.4-.62.15s-.55.43-.93.39-.38-.42-.33-.75l.09-.53c.2-1.23.2-1.23,1.39-.91a2.43,2.43,0,0,1,2,2.39,2.67,2.67,0,0,1-1.91,2.69A4.61,4.61,0,0,1,12.37,46Z"></path>
      <path class="cls-2" d="M15.75,30.22c.3-.16.44-.54.6-.86.25-.48.48-.51.95-.26.71.38.3.73.07,1.09s-.58.8.15,1.21.91.31,1.22-.32.67-1.1,1-1.66.48-.27.74-.08.69.24.39.72c-.65,1.08-1.3,2.16-1.94,3.24-.16.28-.33.25-.56.1q-2.47-1.49-5-3c-.33-.2-.34-.37-.15-.68.61-1,1.21-2,1.78-3,.26-.47.51-.26.8-.08s.64.28.33.74-.7,1.14-1,1.72A.68.68,0,0,0,15.75,30.22Z"></path>
      <path class="cls-2" d="M86.09,44.18a2.41,2.41,0,0,1-2.66-2.07A2.3,2.3,0,0,1,85,39.28a31.53,31.53,0,0,1,4.19-1c.56-.13.41.39.51.65s.11.58-.33.67c-1.19.23-2.37.48-3.54.79a1.23,1.23,0,0,0-.88,1.94c.39.62,1,.57,1.58.45,1-.2,2.06-.43,3.09-.68.49-.12.78-.1.92.51s-.13.71-.59.79C88.57,43.65,87.26,44.05,86.09,44.18Z"></path>
      <path class="cls-2" d="M41.66,15.82a2.21,2.21,0,0,1-2.22-1.7c-.39-1.33-.63-2.7-.94-4.06-.13-.55.33-.47.61-.55s.6-.15.69.32c.22,1.13.47,2.27.73,3.39a1.49,1.49,0,0,0,.79,1.17A1.2,1.2,0,0,0,43,13.08c-.16-1.17-.42-2.33-.69-3.48-.12-.51-.11-.78.51-.91s.71.2.8.67c.22,1.11.5,2.21.69,3.32A2.51,2.51,0,0,1,41.66,15.82Z"></path>
      <path class="cls-2" d="M24.84,25.12c-.14.18-.23.31-.33.42-.75.88-1.51,1.75-2.26,2.64-.24.29-.42.37-.74.09C20.1,27,18.67,25.8,17.24,24.59c-.28-.24-.37-.43-.08-.75.76-.84,1.5-1.69,2.21-2.57.35-.44.56-.22.86,0s.49.48.12.86-.89,1.06-1.37,1.57c-.33.34-.13.52.13.73s.46.47.75.06c.09-.12.2-.23.3-.35.31-.34.49-.83,1.12-.28s.13.86-.18,1.14c-.52.5-.43.81.1,1.26s.74.35,1.09-.12.82-1,1.25-1.46c.14-.16.26-.45.55-.24S24.58,24.89,24.84,25.12Z"></path>
      <path class="cls-2" d="M14.66,60.11A2.46,2.46,0,0,1,17.25,62a2.26,2.26,0,0,1-.92,2.7,12.26,12.26,0,0,1-2.6,1.13,9.93,9.93,0,0,0-1.22.47c-.66.35-.9.07-1.09-.54-.11-.38,0-.49.34-.61,1.06-.38,2.12-.78,3.17-1.19a1.53,1.53,0,0,0,1-.87,1.25,1.25,0,0,0-.28-1.29,1.1,1.1,0,0,0-1.27-.29c-1.1.37-2.17.79-3.26,1.19-.74.27-1,.11-1.11-.68,0-.19,0-.31.16-.37A29.13,29.13,0,0,1,14.66,60.11Z"></path>
      <path class="cls-2" d="M8.4,54.32a2.39,2.39,0,0,1,.29-1.26c.16-.26.2-.83.7-.57s1,.43.5,1.14A1.55,1.55,0,0,0,9.82,55a.56.56,0,0,0,.51.4.47.47,0,0,0,.51-.39c.13-.52.23-1.05.36-1.57.31-1.21,1-1.76,2-1.74a2,2,0,0,1,1.95,1.86,3.13,3.13,0,0,1-.42,2.51c-.15.23-.3.65-.68.3s-.91-.34-.47-1a1.92,1.92,0,0,0,.21-1.84.64.64,0,0,0-.61-.5.59.59,0,0,0-.6.49c-.12.42-.2.85-.29,1.28-.32,1.47-1,2.05-2.12,1.94A2.21,2.21,0,0,1,8.4,54.32Z"></path>
      <path class="cls-2" d="M51.1,88.56c1.17,0,1.22,0,1.09,1.18a2.3,2.3,0,0,1-1.83,2.13,2.58,2.58,0,0,1-2.89-1.12,3.85,3.85,0,0,1,0-4,2.62,2.62,0,0,1,4.3-.38c.13.19.44.45.13.65s-.71.64-1.08.24a1.3,1.3,0,0,0-1.64-.43,1.74,1.74,0,0,0-.9,1.67A2.55,2.55,0,0,0,48.56,90a1.4,1.4,0,0,0,1.88.53c.23-.13.45-.32.41-.6s-.33-.17-.51-.18c-.5,0-.37-.39-.4-.67s.08-.55.46-.53Z"></path>
      <path class="cls-2" d="M42.89,85a2.72,2.72,0,0,1,1.77.82c.17.19.63.4.21.72s-.58.78-1.07.22a1.66,1.66,0,0,0-1.32-.54c-.27,0-.52.08-.6.38s.08.49.33.62c.48.24,1,.45,1.45.7a1.7,1.7,0,0,1,1,2,1.78,1.78,0,0,1-1.79,1.51,3.31,3.31,0,0,1-2.79-1c-.16-.18-.53-.43-.13-.68s.58-.72,1-.2a2.17,2.17,0,0,0,1.59.68.67.67,0,0,0,.78-.47c.1-.37-.13-.59-.42-.74s-.79-.36-1.18-.55c-1.07-.52-1.44-1.19-1.2-2.13S41.55,84.93,42.89,85Z"></path>
      <path class="cls-2" d="M32.62,86.66A23.14,23.14,0,0,1,34,82.72c.17-.45.53,0,.79,0s.46.2.32.55c-.22.55-.42,1.1-.62,1.66s-.33.87-.47,1.31c-.3.93-.07,1.62.63,1.89s1.39-.09,1.77-1.05.71-1.82,1-2.75c.18-.54.45-.48.87-.34s.5.39.34.8c-.42,1-.75,2.14-1.22,3.16a2.51,2.51,0,0,1-4.8-1.31Z"></path>
      <path class="cls-2" d="M86.87,53.35a4.42,4.42,0,0,1,2.78,1,2.73,2.73,0,0,1-.35,4.31c-.24.13-.59.44-.73-.07-.1-.34-.64-.68,0-1.11a1.34,1.34,0,0,0-.2-2.41,3.43,3.43,0,0,0-2-.35,1.37,1.37,0,0,0-1,2.26c.47.62-.12.75-.34,1s-.53,0-.71-.18a2.74,2.74,0,0,1,.81-4.1A3.73,3.73,0,0,1,86.87,53.35Z"></path>
      <path class="cls-2" d="M81.89,25.37a2.72,2.72,0,0,1,2.65,3.35c-.09.28-.15.69-.6.45s-.91-.08-.74-.82a1.3,1.3,0,0,0-1.62-1.61,3.22,3.22,0,0,0-2,1.27,1.35,1.35,0,0,0,.84,2.24c.8.12.52.65.51,1,0,.55-.49.33-.77.29a2.72,2.72,0,0,1-2-3.64A4.39,4.39,0,0,1,81.89,25.37Z"></path>
      <path class="cls-2" d="M64.05,82.5a2,2,0,0,1,.6.13c.28.14.86.18.65.64s-.41.88-1.12.59a1.29,1.29,0,0,0-1.72,1.23A2.75,2.75,0,0,0,63.12,87a1.33,1.33,0,0,0,2.4-.27c.28-.62.68-.29,1-.24s.25.45.18.68a2.63,2.63,0,0,1-4.11,1.18,3.87,3.87,0,0,1-1.4-3.65A2.69,2.69,0,0,1,64.05,82.5Z"></path>
      <path class="cls-2" d="M82.87,64.16c-.31,0-.35.19-.43.37-.29.62-.61,1.24-.86,1.89-.2.5-.47.39-.84.22s-.61-.29-.37-.78c.51-1,1-2,1.42-3.07.16-.36.34-.45.71-.27,1.7.8,3.39,1.59,5.11,2.35.51.22.38.48.21.83s-.27.64-.77.39c-1.25-.61-2.51-1.17-3.77-1.75Z"></path>
      <path class="cls-2" d="M49.76,11.62c.05-.93.14-1.85.15-2.77,0-.56.22-.68.74-.67s.64.3.6.78c-.1,1.31-.13,2.62-.24,3.93,0,.59.15.77.72.76s1.28.09,1.92.1c.47,0,.47.3.44.62s0,.71-.49.68c-1.18-.07-2.36-.14-3.54-.19-.39,0-.47-.22-.45-.55.06-.9.11-1.79.15-2.69Z"></path>
      <path class="cls-2" d="M47.66,11.71c.06.89.1,1.79.2,2.69.06.57-.3.54-.67.58s-.64.06-.67-.46c-.11-1.9-.24-3.79-.39-5.69-.05-.61.38-.48.7-.54s.63,0,.64.49C47.51,9.76,47.6,10.73,47.66,11.71Z"></path>
      <path class="cls-2" d="M62.63,17.42c-.62,0-.92-.44-.67-1.08.64-1.65,1.31-3.29,1.93-5,.18-.5.41-.52.85-.34s.61.34.4.85c-.7,1.68-1.34,3.39-2,5.09C63.05,17.17,63,17.46,62.63,17.42Z"></path>
      <path class="cls-2" d="M89.26,61.61c0,.74-.35,1-1,.8-1.66-.52-3.32-1-5-1.55-.49-.15-.64-.33-.48-.87s.45-.55.91-.4l5.07,1.6C89,61.26,89.27,61.23,89.26,61.61Z"></path>
      <path class="cls-2" d="M14.09,49.05a.88.88,0,0,1,.88.89.86.86,0,0,1-.86.9.89.89,0,0,1-.92-.92A.9.9,0,0,1,14.09,49.05Z"></path>
      <path class="cls-2" d="M15.14,59.23c-.51-.06-.87-.33-.86-.87a.82.82,0,0,1,.93-.88.81.81,0,0,1,.84.89A.85.85,0,0,1,15.14,59.23Z"></path>
      <path class="cls-1" d="M41.12,65.07l.08,0s0,0,0,0,0,0,0-.06Z"></path>
      <path class="cls-1" d="M77.76,78c-.76.53-1.14,1.32-1.9,1.89l-.41-2.62-.15,0c-.17.58-.36,1.15-.51,1.72-.1.35-.23.54-.65.41s-.43-.32-.31-.68c.38-1.23.74-2.46,1.11-3.69.06-.2.06-.52.4-.45s.68.07.73.54c.09.76.21,1.53.32,2.29a.48.48,0,0,0,.23.44c.54-.63,1.12-1.24,1.62-1.91a.72.72,0,0,1,1-.2c.44.21.16.54.08.8-.33,1.16-.68,2.32-1,3.47-.09.31-.17.59-.62.46s-.48-.35-.36-.74A7.13,7.13,0,0,0,77.76,78Z"></path>
      <path class="cls-1" d="M64.65,74.17c-.17,1-.32,1.77-.44,2.55-.06.33-.15.5-.55.44s-.5-.24-.43-.62c.22-1.24.42-2.49.64-3.73,0-.22,0-.59.35-.59s.7,0,.88.47c.38.93.81,1.83,1.29,2.88a11.87,11.87,0,0,0,.46-2.2c.08-.34.05-.72.63-.61s.39.5.34.82c-.18,1.16-.39,2.33-.6,3.5,0,.23,0,.58-.33.6a.77.77,0,0,1-.86-.49c-.33-.81-.71-1.6-1.07-2.4C64.9,74.66,64.83,74.52,64.65,74.17Z"></path>
      <path class="cls-1" d="M35.66,72a2.15,2.15,0,0,1,2.41,1.8,2.36,2.36,0,0,1-1.17,2.89,6.39,6.39,0,0,1-2,.42c-.31.05-.4-.13-.43-.39-.18-1.33-.37-2.65-.56-4-.06-.36.06-.54.42-.57Zm0,1c-.49-.05-.75.17-.58.85a14.58,14.58,0,0,1,.25,1.74c0,.3.13.46.48.44a1.52,1.52,0,0,0-.15-3Z"></path>
      <path class="cls-1" d="M25.51,79.1c-.27.08-.35-.15-.41-.38-.32-1.3-.63-2.6-1-3.89-.09-.35,0-.52.36-.6.8-.19,1.6-.38,2.39-.6.35-.1.51,0,.61.34s0,.56-.41.64-.9.23-1.35.33-.5.19-.39.57.33.26.59.26.73-.5,1,.13c.17.43.05.66-.43.74s-.87.06-.68.78.62.42,1,.34a11.46,11.46,0,0,0,1.12-.28c.39-.12.55,0,.65.39s-.09.5-.4.58C27.3,78.65,26.43,78.87,25.51,79.1Z"></path>
      <path class="cls-1" d="M30.88,76.86l1.73-.34c.32-.07.54,0,.62.35s0,.56-.43.63q-1.26.21-2.49.48c-.36.08-.52,0-.59-.39-.24-1.31-.5-2.62-.76-3.93-.07-.35,0-.51.4-.57.81-.14,1.62-.3,2.42-.47.34-.06.52,0,.59.39s0,.53-.39.58a8.7,8.7,0,0,0-1.13.23c-.29.09-.8-.07-.71.55s.53.3.82.26.7-.12.76.44-.34.5-.63.53c-.6.06-.72.36-.55.89C30.62,76.74,30.72,76.92,30.88,76.86Z"></path>
      <path class="cls-1" d="M70.91,78.61a1.94,1.94,0,0,1-2-2.24c.13-.94.4-1.86.59-2.79.09-.41.35-.36.65-.29s.42.22.34.55c-.18.69-.34,1.39-.49,2.1-.21.92,0,1.49.66,1.63s1.07-.25,1.3-1.2c.16-.68.32-1.35.47-2,.07-.32.18-.5.57-.4s.52.24.42.64c-.22.84-.38,1.71-.62,2.54A1.88,1.88,0,0,1,70.91,78.61Z"></path>
      <path class="cls-1" d="M55.09,76.2a.53.53,0,0,1-.68-.52c-.09-.78-.69-.59-1.17-.65s-.93,0-1.06.57a.54.54,0,0,1-.6.46c-.48,0-.66-.1-.43-.62.58-1.26,1.12-2.53,1.66-3.81a.61.61,0,0,1,.69-.46.62.62,0,0,1,.66.49c.42,1.35.87,2.69,1.33,4C55.62,76.08,55.57,76.28,55.09,76.2Zm-1.65-3.58c-.23.53-.63.89-.42,1.38.06.14.6.19.69,0C54,73.56,53.59,73.16,53.44,72.62Z"></path>
      <path class="cls-1" d="M41.63,73.74c0-.59-.05-1.18-.11-1.77-.05-.4,0-.63.49-.64.62,0,1.23-.09,1.85-.08a1.46,1.46,0,0,1,1.59,1.42,1.49,1.49,0,0,1-1.28,1.72l-.15,0c-.42.11-1-.13-1.25.22s0,.79,0,1.2-.22.45-.53.47-.47-.09-.49-.42C41.72,75.17,41.67,74.46,41.63,73.74Zm1.83-1.53c-.34.13-1-.18-.89.65,0,.42.08.78.65.65s1.2.12,1.17-.73C44.38,72.21,43.91,72.2,43.46,72.21Z"></path>
      <path class="cls-1" d="M59,72.54c-.4-.14-.58.13-.61.7,0,.87-.15,1.74-.23,2.61,0,.36,0,.66-.57.59s-.46-.37-.43-.72c.08-.84.11-1.69.25-2.53.09-.61-.09-.86-.7-.85-.33,0-.67,0-.63-.52s.33-.48.69-.45l2.54.21c.33,0,.67,0,.63.54S59.6,72.64,59,72.54Z"></path>
      <path class="cls-1" d="M24.14,79.15c.07.28-.12.35-.33.42l-2.5.76c-.32.11-.46,0-.55-.33-.39-1.3-.78-2.6-1.19-3.9-.13-.41.13-.46.41-.56s.48,0,.57.28c.27.91.57,1.81.81,2.73.14.49.33.7.86.47s.84-.23,1.24-.39S24.06,78.8,24.14,79.15Z"></path>
      <path class="cls-1" d="M46.67,73.58c0-.62,0-1.24,0-1.85,0-.37,0-.65.51-.65s.47.34.48.67c0,.9,0,1.8,0,2.7,0,.46.13.67.62.62s.92,0,1.38,0,.5.14.51.5-.15.49-.51.49c-.82,0-1.64,0-2.47,0-.4,0-.54-.16-.53-.55,0-.64,0-1.29,0-1.93Z"></path>
      <path class="cls-1" d="M60.77,76.23c.16-1.32.33-2.62.49-3.92,0-.34.18-.48.55-.44s.51.23.46.61c-.18,1.27-.34,2.55-.5,3.82,0,.34-.12.57-.56.52S60.68,76.58,60.77,76.23Z"></path>
      <path class="cls-1" d="M36.45,15.59c0,.46-1.24,1.29-1.79,1.26a2.62,2.62,0,0,1-.75-1.33,3.19,3.19,0,0,1,1.73-.82C36.22,14.74,36.39,15.15,36.45,15.59Z"></path>
      <path class="cls-1" d="M33.54,14.15c-.39,0-.36-.38-.48-.6s-.23-.44.09-.58.84-.36,1.27-.52a.51.51,0,0,1,.64.3.54.54,0,0,1-.07.7A5.89,5.89,0,0,1,33.54,14.15Z"></path>
      <path class="cls-1" d="M24.53,20.34c0-.05-.09-.12,0-.17s.08,0,.12.06Z"></path>
      <path class="cls-1" d="M13.78,35.2c0,.65-.63,2-.86,1.94-.43-.16-1.06-.13-1.22-.64s.77-2,1.21-2S13.75,34.77,13.78,35.2Z"></path>
      <path class="cls-1" d="M57.64,88.09a.77.77,0,0,1,.91.64.68.68,0,0,1-.46.86,6,6,0,0,1-1.56.34c-.63,0-.36-.62-.51-.94s-.17-.52.22-.61Z"></path>
      <path class="cls-1" d="M57.05,85.87c.45,0,.72.07.78.46a.54.54,0,0,1-.48.66l-1.28.28c-.42.1-.46-.2-.51-.48s-.19-.57.24-.67Z"></path>
      <path class="cls-1" d="M60,12.19c0,1.66-1,2.59-2.43,2.27-.41-.1-.56-.26-.45-.68.25-1,.5-1.94.7-2.92.1-.47.32-.49.71-.38A1.69,1.69,0,0,1,60,12.19Z"></path>
      <path class="cls-1" d="M84.16,36c-.83,0-1.31-.21-1.57-.79a1.33,1.33,0,0,1,.33-1.62,3.32,3.32,0,0,1,2.14-.93,1.39,1.39,0,0,1,1,2.42A3.35,3.35,0,0,1,84.16,36Z"></path>
      <path class="cls-2" d="M35.62,73a1.52,1.52,0,0,1,.15,3c-.35,0-.45-.14-.48-.44A14.58,14.58,0,0,0,35,73.86C34.87,73.18,35.13,73,35.62,73Z"></path>
      <path class="cls-2" d="M53.44,72.62c.15.54.51.94.27,1.38-.09.19-.63.14-.69,0C52.81,73.51,53.21,73.15,53.44,72.62Z"></path>
      <path class="cls-2" d="M43.46,72.21c.45,0,.92,0,.93.57,0,.85-.69.62-1.17.73s-.6-.23-.65-.65C42.47,72,43.12,72.34,43.46,72.21Z"></path>
    </g>
  </g>
</svg>
